{"glyphs":{"0":{"ha":915,"x_min":90,"x_max":825,"o":"m 460 -14 q 274 46 358 -14 q 140 215 190 106 q 90 471 90 324 q 140 727 90 619 q 272 894 189 835 q 457 953 356 953 q 643 894 560 953 q 776 726 726 835 q 825 469 825 618 q 776 213 825 322 q 644 45 726 104 q 460 -14 561 -14 m 457 28 q 622 81 549 28 q 738 234 694 135 q 781 471 781 333 q 738 706 781 607 q 622 858 694 804 q 457 911 549 911 q 294 858 367 911 q 178 706 221 804 q 135 471 135 607 q 178 234 135 333 q 294 81 221 135 q 457 28 367 28 z "},"1":{"ha":446,"x_min":63,"x_max":314,"o":"m 271 0 l 271 939 l 314 939 l 314 0 l 271 0 m 63 900 l 63 939 l 300 939 l 300 900 l 63 900 z "},"2":{"ha":749,"x_min":67,"x_max":675,"o":"m 67 31 l 415 389 q 535 522 494 471 q 589 614 575 574 q 603 700 603 654 q 542 855 603 799 q 378 911 482 911 q 228 873 292 911 q 114 761 164 835 l 82 793 q 210 912 138 871 q 378 953 282 953 q 520 922 460 953 q 614 833 581 890 q 647 697 647 776 q 631 599 647 644 q 574 499 615 553 q 454 367 532 446 l 129 35 l 67 31 m 67 0 l 67 31 l 96 39 l 675 39 l 675 0 l 67 0 z "},"3":{"ha":736,"x_min":65,"x_max":653,"o":"m 347 -14 q 187 22 260 -14 q 65 126 114 58 l 94 156 q 201 60 135 94 q 347 26 267 26 q 483 57 425 26 q 575 144 542 88 q 608 274 608 200 q 575 405 608 349 q 483 492 542 461 q 344 524 424 524 q 300 521 322 524 q 250 511 278 518 l 258 533 q 299 555 275 549 q 357 561 322 561 q 508 524 442 561 q 614 421 575 486 q 653 274 653 356 q 613 124 653 189 q 505 23 574 60 q 347 -14 436 -14 m 250 511 l 250 542 l 596 919 l 642 908 l 294 529 l 250 511 m 101 900 l 101 939 l 642 939 l 642 908 l 603 900 l 101 900 z "},"4":{"ha":825,"x_min":67,"x_max":760,"o":"m 67 286 l 433 939 l 482 939 l 110 286 l 67 286 m 67 256 l 67 286 l 85 294 l 760 294 l 760 256 l 67 256 m 568 0 l 568 639 l 611 639 l 611 0 l 568 0 z "},"5":{"ha":736,"x_min":67,"x_max":654,"o":"m 346 -14 q 187 22 258 -14 q 67 126 115 58 l 96 156 q 201 60 136 94 q 346 26 265 26 q 483 58 424 26 q 576 147 542 90 q 610 281 610 204 q 577 417 610 358 q 486 508 544 475 q 351 540 428 540 q 233 521 289 540 q 139 465 178 501 l 131 497 q 193 542 158 525 q 267 569 228 560 q 351 578 307 578 q 510 540 442 578 q 616 434 578 501 q 654 279 654 367 q 614 127 654 193 q 504 24 574 61 q 346 -14 435 -14 m 139 465 l 118 488 l 158 939 l 200 939 l 157 488 l 139 465 m 182 900 l 158 939 l 622 939 l 622 900 l 182 900 z "},"6":{"ha":789,"x_min":79,"x_max":710,"o":"m 393 -14 q 235 28 306 -14 q 122 140 164 69 q 79 299 79 211 q 156 507 79 410 l 492 939 l 546 939 l 235 550 l 221 557 q 275 588 246 575 q 336 607 304 600 q 400 614 368 614 q 555 571 485 614 q 667 457 625 528 q 710 300 710 386 q 667 142 710 214 q 552 28 624 71 q 393 -14 481 -14 m 394 24 q 530 62 468 24 q 628 163 592 100 q 665 300 665 225 q 628 438 665 375 q 530 539 592 501 q 394 576 468 576 q 258 540 319 576 q 160 440 196 503 q 124 300 124 378 q 160 160 124 224 q 258 60 196 97 q 394 24 319 24 z "},"7":{"ha":740,"x_min":63,"x_max":674,"o":"m 254 0 l 635 922 l 674 908 l 300 0 l 254 0 m 63 900 l 63 939 l 674 939 l 674 908 l 653 900 l 63 900 z "},"8":{"ha":772,"x_min":82,"x_max":690,"o":"m 386 -14 q 231 22 300 -14 q 122 120 161 58 q 82 260 82 182 q 107 375 82 322 q 177 465 132 428 q 281 514 222 501 l 307 500 q 211 547 251 515 q 149 624 171 579 q 128 722 128 669 q 161 842 128 790 q 253 923 194 893 q 386 953 311 953 q 519 923 461 953 q 611 842 578 893 q 644 722 644 790 q 623 624 644 669 q 561 547 601 579 q 465 500 521 515 l 492 514 q 594 465 550 501 q 665 375 639 428 q 690 260 690 322 q 651 120 690 182 q 542 22 611 58 q 386 -14 474 -14 m 386 24 q 521 53 463 24 q 613 137 579 83 q 646 260 646 190 q 613 381 646 328 q 521 464 579 433 q 386 494 463 494 q 252 464 311 494 q 160 381 193 433 q 126 260 126 328 q 160 137 126 190 q 251 53 193 83 q 386 24 310 24 m 386 526 q 540 581 481 526 q 600 722 600 635 q 540 862 600 808 q 386 915 481 915 q 232 862 292 915 q 172 722 172 808 q 232 581 172 635 q 386 526 292 526 z "},"9":{"ha":789,"x_min":79,"x_max":710,"o":"m 243 0 l 554 389 l 568 382 q 514 351 543 364 q 453 332 485 339 q 389 325 422 325 q 234 368 304 325 q 122 483 164 411 q 79 639 79 554 q 122 797 79 726 q 237 910 165 868 q 396 953 308 953 q 555 911 483 953 q 668 799 626 869 q 710 640 710 728 q 633 432 710 529 l 297 0 l 243 0 m 394 363 q 531 399 469 363 q 629 499 593 436 q 665 639 665 563 q 629 779 665 717 q 531 878 593 842 q 394 915 469 915 q 259 878 321 915 q 160 777 197 840 q 124 639 124 714 q 160 501 124 564 q 259 401 197 439 q 394 363 321 363 z "},"A":{"ha":942,"x_min":69,"x_max":872,"o":"m 69 0 l 451 939 l 493 939 l 872 0 l 824 0 l 461 900 l 482 900 l 117 0 l 69 0 m 229 310 l 229 350 l 714 350 l 714 310 l 229 310 z "},"Á":{"ha":942,"x_min":69,"x_max":872,"o":"m 69 0 l 451 939 l 493 939 l 872 0 l 824 0 l 461 900 l 482 900 l 117 0 l 69 0 m 229 310 l 229 350 l 714 350 l 714 310 l 229 310 m 375 1046 l 357 1064 l 547 1278 l 585 1240 l 375 1046 z "},"Ă":{"ha":942,"x_min":69,"x_max":872,"o":"m 69 0 l 451 939 l 493 939 l 872 0 l 824 0 l 461 900 l 482 900 l 117 0 l 69 0 m 229 310 l 229 350 l 714 350 l 714 310 l 229 310 m 682 1231 q 655 1122 682 1171 q 581 1046 628 1074 q 474 1018 535 1018 q 363 1046 411 1018 q 287 1122 314 1074 q 260 1231 260 1171 l 300 1231 q 348 1104 300 1154 q 476 1054 396 1054 q 560 1077 522 1054 q 621 1140 599 1100 q 643 1231 643 1181 l 682 1231 z "},"Ǎ":{"ha":942,"x_min":69,"x_max":872,"o":"m 69 0 l 451 939 l 493 939 l 872 0 l 824 0 l 461 900 l 482 900 l 117 0 l 69 0 m 229 310 l 229 350 l 714 350 l 714 310 l 229 310 m 664 1278 l 682 1260 l 492 1046 l 450 1046 l 260 1260 l 278 1278 l 485 1086 l 457 1086 l 664 1278 z "},"Â":{"ha":942,"x_min":69,"x_max":872,"o":"m 69 0 l 451 939 l 493 939 l 872 0 l 824 0 l 461 900 l 482 900 l 117 0 l 69 0 m 229 310 l 229 350 l 714 350 l 714 310 l 229 310 m 278 1046 l 260 1064 l 450 1278 l 492 1278 l 682 1064 l 664 1046 l 457 1238 l 485 1238 l 278 1046 z "},"Ä":{"ha":942,"x_min":69,"x_max":872,"o":"m 69 0 l 451 939 l 493 939 l 872 0 l 824 0 l 461 900 l 482 900 l 117 0 l 69 0 m 229 310 l 229 350 l 714 350 l 714 310 l 229 310 m 351 1057 q 321 1071 333 1057 q 308 1103 308 1085 q 321 1135 308 1122 q 351 1147 333 1147 q 384 1135 371 1147 q 397 1103 397 1122 q 384 1071 397 1085 q 351 1057 371 1057 m 588 1057 q 557 1071 569 1057 q 544 1103 544 1085 q 557 1135 544 1122 q 588 1147 569 1147 q 620 1135 607 1147 q 633 1103 633 1122 q 620 1071 633 1085 q 588 1057 607 1057 z "},"À":{"ha":942,"x_min":69,"x_max":872,"o":"m 69 0 l 451 939 l 493 939 l 872 0 l 824 0 l 461 900 l 482 900 l 117 0 l 69 0 m 229 310 l 229 350 l 714 350 l 714 310 l 229 310 m 525 1046 l 315 1240 l 353 1278 l 543 1064 l 525 1046 z "},"Ā":{"ha":942,"x_min":69,"x_max":872,"o":"m 69 0 l 451 939 l 493 939 l 872 0 l 824 0 l 461 900 l 482 900 l 117 0 l 69 0 m 229 310 l 229 350 l 714 350 l 714 310 l 229 310 m 256 1121 l 686 1121 l 686 1083 l 256 1083 l 256 1121 z "},"Ą":{"ha":942,"x_min":69,"x_max":935,"o":"m 69 0 l 451 939 l 493 939 l 872 0 l 824 0 l 461 900 l 482 900 l 117 0 l 69 0 m 229 310 l 229 350 l 714 350 l 714 310 l 229 310 m 847 -286 q 765 -257 799 -286 q 732 -174 732 -228 q 765 -75 732 -129 q 842 21 799 -21 l 872 0 q 797 -88 824 -47 q 769 -174 769 -129 q 791 -235 769 -217 q 850 -254 813 -254 q 885 -249 869 -254 q 918 -232 900 -243 l 935 -256 q 893 -278 915 -271 q 847 -286 871 -286 z "},"Å":{"ha":942,"x_min":69,"x_max":872,"o":"m 69 0 l 451 939 l 493 939 l 872 0 l 824 0 l 461 900 l 482 900 l 117 0 l 69 0 m 229 310 l 229 350 l 714 350 l 714 310 l 229 310 m 472 921 q 398 940 431 921 q 347 990 365 958 q 329 1063 329 1022 q 347 1135 329 1103 q 398 1185 365 1167 q 472 1204 431 1204 q 544 1185 513 1204 q 593 1135 575 1167 q 611 1063 611 1103 q 593 990 611 1022 q 544 940 575 958 q 472 921 513 921 m 474 958 q 543 988 514 958 q 572 1063 572 1018 q 543 1137 572 1107 q 474 1167 514 1167 q 398 1137 426 1167 q 369 1063 369 1107 q 398 988 369 1018 q 474 958 426 958 z "},"Ã":{"ha":942,"x_min":69,"x_max":872,"o":"m 69 0 l 451 939 l 493 939 l 872 0 l 824 0 l 461 900 l 482 900 l 117 0 l 69 0 m 229 310 l 229 350 l 714 350 l 714 310 l 229 310 m 574 1058 q 502 1074 532 1058 q 443 1103 472 1089 q 376 1118 414 1118 q 317 1103 338 1118 q 279 1064 296 1089 l 253 1086 q 301 1136 272 1117 q 376 1156 329 1156 q 453 1141 422 1156 q 513 1111 485 1126 q 574 1096 540 1096 q 626 1110 606 1096 q 663 1150 646 1125 l 689 1128 q 642 1078 669 1097 q 574 1058 614 1058 z "},"Æ":{"ha":1315,"x_min":69,"x_max":1240,"o":"m 69 0 l 451 939 l 701 939 l 701 899 l 481 899 l 117 0 l 69 0 m 250 379 l 250 418 l 713 418 l 713 379 l 250 379 m 717 0 l 717 40 l 1240 40 l 1240 0 l 717 0 m 692 0 l 692 939 l 736 939 l 736 0 l 692 0 m 708 463 l 708 501 l 1199 501 l 1199 463 l 708 463 m 717 899 l 717 939 l 1232 939 l 1232 899 l 717 899 z "},"B":{"ha":871,"x_min":138,"x_max":783,"o":"m 160 0 l 160 40 l 486 40 q 669 100 600 40 q 738 258 738 160 q 708 371 738 322 q 625 447 678 419 q 503 475 572 475 l 160 475 l 160 513 l 496 513 q 640 565 588 513 q 693 706 693 617 q 633 847 693 796 q 474 899 574 899 l 160 899 l 160 939 l 474 939 q 613 911 554 939 q 705 832 672 883 q 738 708 738 781 q 696 567 738 625 q 575 486 654 510 l 582 503 q 730 415 676 481 q 783 258 783 350 q 746 122 783 181 q 640 32 708 64 q 479 0 572 0 l 160 0 m 138 0 l 138 939 l 182 939 l 182 0 l 138 0 z "},"C":{"ha":976,"x_min":92,"x_max":903,"o":"m 563 -14 q 376 23 463 -14 q 226 126 290 60 q 127 281 163 193 q 92 471 92 369 q 126 661 92 574 q 224 814 161 749 q 372 916 288 879 q 556 953 457 953 q 744 914 657 953 q 896 806 832 875 l 864 774 q 728 874 808 838 q 556 910 649 910 q 391 876 467 910 q 258 783 315 843 q 170 644 201 724 q 139 471 139 564 q 171 297 139 378 q 259 156 203 217 q 392 63 315 96 q 558 29 469 29 q 734 66 653 29 q 871 167 815 103 l 903 135 q 753 26 840 65 q 563 -14 665 -14 z "},"Ć":{"ha":976,"x_min":92,"x_max":903,"o":"m 563 -14 q 376 23 463 -14 q 226 126 290 60 q 127 281 163 193 q 92 471 92 369 q 126 661 92 574 q 224 814 161 749 q 372 916 288 879 q 556 953 457 953 q 744 914 657 953 q 896 806 832 875 l 864 774 q 728 874 808 838 q 556 910 649 910 q 391 876 467 910 q 258 783 315 843 q 170 644 201 724 q 139 471 139 564 q 171 297 139 378 q 259 156 203 217 q 392 63 315 96 q 558 29 469 29 q 734 66 653 29 q 871 167 815 103 l 903 135 q 753 26 840 65 q 563 -14 665 -14 m 443 1046 l 425 1064 l 615 1278 l 653 1240 l 443 1046 z "},"Č":{"ha":976,"x_min":92,"x_max":903,"o":"m 563 -14 q 376 23 463 -14 q 226 126 290 60 q 127 281 163 193 q 92 471 92 369 q 126 661 92 574 q 224 814 161 749 q 372 916 288 879 q 556 953 457 953 q 744 914 657 953 q 896 806 832 875 l 864 774 q 728 874 808 838 q 556 910 649 910 q 391 876 467 910 q 258 783 315 843 q 170 644 201 724 q 139 471 139 564 q 171 297 139 378 q 259 156 203 217 q 392 63 315 96 q 558 29 469 29 q 734 66 653 29 q 871 167 815 103 l 903 135 q 753 26 840 65 q 563 -14 665 -14 m 732 1278 l 750 1260 l 560 1046 l 518 1046 l 328 1260 l 346 1278 l 553 1086 l 525 1086 l 732 1278 z "},"Ç":{"ha":976,"x_min":92,"x_max":903,"o":"m 563 -14 q 376 23 463 -14 q 226 126 290 60 q 127 281 163 193 q 92 471 92 369 q 126 661 92 574 q 224 814 161 749 q 372 916 288 879 q 556 953 457 953 q 744 914 657 953 q 896 806 832 875 l 864 774 q 728 874 808 838 q 556 910 649 910 q 391 876 467 910 q 258 783 315 843 q 170 644 201 724 q 139 471 139 564 q 171 297 139 378 q 259 156 203 217 q 392 63 315 96 q 558 29 469 29 q 734 66 653 29 q 871 167 815 103 l 903 135 q 753 26 840 65 q 563 -14 665 -14 m 525 -286 q 444 -272 485 -286 q 371 -231 403 -257 l 407 -200 q 460 -233 429 -221 q 525 -244 490 -244 q 609 -225 579 -244 q 639 -171 639 -206 q 606 -117 639 -136 q 513 -99 574 -99 l 485 -99 l 518 11 l 567 11 l 538 -85 l 518 -61 q 644 -90 600 -61 q 688 -172 688 -119 q 645 -256 688 -226 q 525 -286 603 -286 z "},"Ċ":{"ha":976,"x_min":92,"x_max":903,"o":"m 563 -14 q 376 23 463 -14 q 226 126 290 60 q 127 281 163 193 q 92 471 92 369 q 126 661 92 574 q 224 814 161 749 q 372 916 288 879 q 556 953 457 953 q 744 914 657 953 q 896 806 832 875 l 864 774 q 728 874 808 838 q 556 910 649 910 q 391 876 467 910 q 258 783 315 843 q 170 644 201 724 q 139 471 139 564 q 171 297 139 378 q 259 156 203 217 q 392 63 315 96 q 558 29 469 29 q 734 66 653 29 q 871 167 815 103 l 903 135 q 753 26 840 65 q 563 -14 665 -14 m 538 1057 q 507 1071 519 1057 q 494 1103 494 1085 q 507 1135 494 1122 q 538 1147 519 1147 q 570 1135 557 1147 q 583 1103 583 1122 q 570 1071 583 1085 q 538 1057 557 1057 z "},"D":{"ha":1025,"x_min":138,"x_max":933,"o":"m 153 0 l 153 42 l 460 42 q 681 97 585 42 q 832 249 778 153 q 886 471 886 346 q 832 691 886 594 q 681 842 778 788 q 460 897 585 897 l 158 897 l 158 939 l 460 939 q 650 904 564 939 q 800 807 736 869 q 899 658 864 744 q 933 469 933 572 q 899 282 933 368 q 801 133 864 196 q 651 35 738 69 q 463 0 565 0 l 153 0 m 138 0 l 138 939 l 182 939 l 182 0 l 138 0 z "},"Ð":{"ha":1025,"x_min":19,"x_max":933,"o":"m 19 503 l 494 503 l 494 464 l 19 464 l 19 503 m 153 0 l 153 42 l 460 42 q 681 97 585 42 q 832 249 778 153 q 886 471 886 346 q 832 691 886 594 q 681 842 778 788 q 460 897 585 897 l 158 897 l 158 939 l 460 939 q 650 904 564 939 q 800 807 736 869 q 899 658 864 744 q 933 469 933 572 q 899 282 933 368 q 801 133 864 196 q 651 35 738 69 q 463 0 565 0 l 153 0 m 138 0 l 138 939 l 182 939 l 182 0 l 138 0 z "},"Ď":{"ha":1025,"x_min":138,"x_max":933,"o":"m 153 0 l 153 42 l 460 42 q 681 97 585 42 q 832 249 778 153 q 886 471 886 346 q 832 691 886 594 q 681 842 778 788 q 460 897 585 897 l 158 897 l 158 939 l 460 939 q 650 904 564 939 q 800 807 736 869 q 899 658 864 744 q 933 469 933 572 q 899 282 933 368 q 801 133 864 196 q 651 35 738 69 q 463 0 565 0 l 153 0 m 138 0 l 138 939 l 182 939 l 182 0 l 138 0 m 653 1278 l 671 1260 l 481 1046 l 439 1046 l 249 1260 l 267 1278 l 474 1086 l 446 1086 l 653 1278 z "},"Đ":{"ha":1025,"x_min":0,"x_max":933,"o":"m 0 451 l 0 488 l 522 488 l 522 451 l 0 451 m 153 0 l 153 42 l 460 42 q 681 97 585 42 q 832 249 778 153 q 886 471 886 346 q 832 691 886 594 q 681 842 778 788 q 460 897 585 897 l 158 897 l 158 939 l 460 939 q 650 904 564 939 q 800 807 736 869 q 899 658 864 744 q 933 469 933 572 q 899 282 933 368 q 801 133 864 196 q 651 35 738 69 q 463 0 565 0 l 153 0 m 138 0 l 138 939 l 182 939 l 182 0 l 138 0 z "},"E":{"ha":817,"x_min":138,"x_max":742,"o":"m 138 0 l 138 939 l 182 939 l 182 0 l 138 0 m 163 0 l 163 40 l 742 40 l 742 0 l 163 0 m 163 463 l 163 501 l 700 501 l 700 463 l 163 463 m 163 899 l 163 939 l 733 939 l 733 899 l 163 899 z "},"É":{"ha":817,"x_min":138,"x_max":742,"o":"m 138 0 l 138 939 l 182 939 l 182 0 l 138 0 m 163 0 l 163 40 l 742 40 l 742 0 l 163 0 m 163 463 l 163 501 l 700 501 l 700 463 l 163 463 m 163 899 l 163 939 l 733 939 l 733 899 l 163 899 m 344 1046 l 326 1064 l 517 1278 l 554 1240 l 344 1046 z "},"Ě":{"ha":817,"x_min":138,"x_max":742,"o":"m 138 0 l 138 939 l 182 939 l 182 0 l 138 0 m 163 0 l 163 40 l 742 40 l 742 0 l 163 0 m 163 463 l 163 501 l 700 501 l 700 463 l 163 463 m 163 899 l 163 939 l 733 939 l 733 899 l 163 899 m 633 1278 l 651 1260 l 461 1046 l 419 1046 l 229 1260 l 247 1278 l 454 1086 l 426 1086 l 633 1278 z "},"Ê":{"ha":817,"x_min":138,"x_max":742,"o":"m 138 0 l 138 939 l 182 939 l 182 0 l 138 0 m 163 0 l 163 40 l 742 40 l 742 0 l 163 0 m 163 463 l 163 501 l 700 501 l 700 463 l 163 463 m 163 899 l 163 939 l 733 939 l 733 899 l 163 899 m 247 1046 l 229 1064 l 419 1278 l 461 1278 l 651 1064 l 633 1046 l 426 1238 l 454 1238 l 247 1046 z "},"Ë":{"ha":817,"x_min":138,"x_max":742,"o":"m 138 0 l 138 939 l 182 939 l 182 0 l 138 0 m 163 0 l 163 40 l 742 40 l 742 0 l 163 0 m 163 463 l 163 501 l 700 501 l 700 463 l 163 463 m 163 899 l 163 939 l 733 939 l 733 899 l 163 899 m 321 1057 q 290 1071 303 1057 q 278 1103 278 1085 q 290 1135 278 1122 q 321 1147 303 1147 q 353 1135 340 1147 q 367 1103 367 1122 q 353 1071 367 1085 q 321 1057 340 1057 m 557 1057 q 526 1071 539 1057 q 514 1103 514 1085 q 526 1135 514 1122 q 557 1147 539 1147 q 590 1135 576 1147 q 603 1103 603 1122 q 590 1071 603 1085 q 557 1057 576 1057 z "},"Ė":{"ha":817,"x_min":138,"x_max":742,"o":"m 138 0 l 138 939 l 182 939 l 182 0 l 138 0 m 163 0 l 163 40 l 742 40 l 742 0 l 163 0 m 163 463 l 163 501 l 700 501 l 700 463 l 163 463 m 163 899 l 163 939 l 733 939 l 733 899 l 163 899 m 439 1057 q 408 1071 421 1057 q 396 1103 396 1085 q 408 1135 396 1122 q 439 1147 421 1147 q 472 1135 458 1147 q 485 1103 485 1122 q 472 1071 485 1085 q 439 1057 458 1057 z "},"È":{"ha":817,"x_min":138,"x_max":742,"o":"m 138 0 l 138 939 l 182 939 l 182 0 l 138 0 m 163 0 l 163 40 l 742 40 l 742 0 l 163 0 m 163 463 l 163 501 l 700 501 l 700 463 l 163 463 m 163 899 l 163 939 l 733 939 l 733 899 l 163 899 m 494 1046 l 285 1240 l 322 1278 l 513 1064 l 494 1046 z "},"Ē":{"ha":817,"x_min":138,"x_max":742,"o":"m 138 0 l 138 939 l 182 939 l 182 0 l 138 0 m 163 0 l 163 40 l 742 40 l 742 0 l 163 0 m 163 463 l 163 501 l 700 501 l 700 463 l 163 463 m 163 899 l 163 939 l 733 939 l 733 899 l 163 899 m 225 1121 l 656 1121 l 656 1083 l 225 1083 l 225 1121 z "},"Ę":{"ha":817,"x_min":138,"x_max":804,"o":"m 138 0 l 138 939 l 182 939 l 182 0 l 138 0 m 163 0 l 163 40 l 742 40 l 742 0 l 163 0 m 163 463 l 163 501 l 700 501 l 700 463 l 163 463 m 163 899 l 163 939 l 733 939 l 733 899 l 163 899 m 717 -286 q 635 -257 668 -286 q 601 -174 601 -228 q 635 -75 601 -129 q 711 21 668 -21 l 742 0 q 666 -88 693 -47 q 639 -174 639 -129 q 660 -235 639 -217 q 719 -254 682 -254 q 754 -249 739 -254 q 788 -232 769 -243 l 804 -256 q 763 -278 785 -271 q 717 -286 740 -286 z "},"F":{"ha":788,"x_min":138,"x_max":715,"o":"m 138 0 l 138 939 l 182 939 l 182 0 l 138 0 m 163 446 l 163 486 l 692 486 l 692 446 l 163 446 m 163 899 l 163 939 l 715 939 l 715 899 l 163 899 z "},"G":{"ha":1075,"x_min":92,"x_max":993,"o":"m 564 -12 q 374 24 461 -12 q 224 124 288 60 q 126 277 161 189 q 92 469 92 365 q 127 662 92 574 q 226 816 163 750 q 376 918 290 882 q 565 954 463 954 q 775 908 681 954 q 928 775 869 861 l 894 742 q 755 867 839 824 q 565 911 671 911 q 345 853 442 911 q 194 696 249 796 q 139 468 139 596 q 193 242 139 342 q 342 87 247 143 q 561 31 438 31 q 764 81 678 31 q 898 224 850 131 q 947 447 946 318 l 964 433 l 544 433 l 544 474 l 993 474 l 993 465 q 940 208 993 315 q 791 44 888 101 q 564 -12 694 -12 z "},"Ğ":{"ha":1075,"x_min":92,"x_max":993,"o":"m 564 -12 q 374 24 461 -12 q 224 124 288 60 q 126 277 161 189 q 92 469 92 365 q 127 662 92 574 q 226 816 163 750 q 376 918 290 882 q 565 954 463 954 q 775 908 681 954 q 928 775 869 861 l 894 742 q 755 867 839 824 q 565 911 671 911 q 345 853 442 911 q 194 696 249 796 q 139 468 139 596 q 193 242 139 342 q 342 87 247 143 q 561 31 438 31 q 764 81 678 31 q 898 224 850 131 q 947 447 946 318 l 964 433 l 544 433 l 544 474 l 993 474 l 993 465 q 940 208 993 315 q 791 44 888 101 q 564 -12 694 -12 m 763 1231 q 735 1122 763 1171 q 662 1046 708 1074 q 554 1018 615 1018 q 443 1046 492 1018 q 367 1122 394 1074 q 340 1231 340 1171 l 381 1231 q 428 1104 381 1154 q 557 1054 476 1054 q 641 1077 603 1054 q 701 1140 679 1100 q 724 1231 724 1181 l 763 1231 z "},"Ģ":{"ha":1075,"x_min":92,"x_max":993,"o":"m 564 -12 q 374 24 461 -12 q 224 124 288 60 q 126 277 161 189 q 92 469 92 365 q 127 662 92 574 q 226 816 163 750 q 376 918 290 882 q 565 954 463 954 q 775 908 681 954 q 928 775 869 861 l 894 742 q 755 867 839 824 q 565 911 671 911 q 345 853 442 911 q 194 696 249 796 q 139 468 139 596 q 193 242 139 342 q 342 87 247 143 q 561 31 438 31 q 764 81 678 31 q 898 224 850 131 q 947 447 946 318 l 964 433 l 544 433 l 544 474 l 993 474 l 993 465 q 940 208 993 315 q 791 44 888 101 q 564 -12 694 -12 m 531 -353 l 497 -335 l 561 -203 l 581 -200 q 569 -216 578 -210 q 547 -222 561 -222 q 510 -207 526 -222 q 494 -169 494 -192 q 512 -129 494 -146 q 553 -112 529 -112 q 592 -129 575 -112 q 608 -169 608 -146 q 606 -192 608 -179 q 593 -228 604 -206 l 531 -353 z "},"Ġ":{"ha":1075,"x_min":92,"x_max":993,"o":"m 564 -12 q 374 24 461 -12 q 224 124 288 60 q 126 277 161 189 q 92 469 92 365 q 127 662 92 574 q 226 816 163 750 q 376 918 290 882 q 565 954 463 954 q 775 908 681 954 q 928 775 869 861 l 894 742 q 755 867 839 824 q 565 911 671 911 q 345 853 442 911 q 194 696 249 796 q 139 468 139 596 q 193 242 139 342 q 342 87 247 143 q 561 31 438 31 q 764 81 678 31 q 898 224 850 131 q 947 447 946 318 l 964 433 l 544 433 l 544 474 l 993 474 l 993 465 q 940 208 993 315 q 791 44 888 101 q 564 -12 694 -12 m 550 1057 q 519 1071 532 1057 q 507 1103 507 1085 q 519 1135 507 1122 q 550 1147 532 1147 q 583 1135 569 1147 q 596 1103 596 1122 q 583 1071 596 1085 q 550 1057 569 1057 z "},"H":{"ha":954,"x_min":138,"x_max":817,"o":"m 138 0 l 138 939 l 182 939 l 182 0 l 138 0 m 772 0 l 772 939 l 817 939 l 817 0 l 772 0 m 163 463 l 163 503 l 794 503 l 794 463 l 163 463 z "},"Ħ":{"ha":924,"x_min":0,"x_max":924,"o":"m 0 743 l 0 779 l 924 779 l 924 743 l 0 743 m 122 0 l 122 939 l 167 939 l 167 0 l 122 0 m 757 0 l 757 939 l 801 939 l 801 0 l 757 0 m 147 463 l 147 503 l 779 503 l 779 463 l 147 463 z "},"I":{"ha":319,"x_min":138,"x_max":182,"o":"m 138 0 l 138 939 l 182 939 l 182 0 l 138 0 z "},"Ĳ":{"ha":826,"x_min":138,"x_max":699,"o":"m 436 -14 q 305 15 360 -14 q 206 94 250 43 l 236 125 q 322 53 274 78 q 436 29 369 29 q 539 53 489 29 q 622 133 589 78 q 654 276 654 188 l 654 939 l 699 939 l 699 268 q 660 111 699 174 q 562 17 622 49 q 436 -14 501 -14 m 138 306 l 138 944 l 182 944 l 182 306 l 138 306 z "},"Í":{"ha":319,"x_min":46,"x_max":274,"o":"m 138 0 l 138 939 l 182 939 l 182 0 l 138 0 m 64 1046 l 46 1064 l 236 1278 l 274 1240 l 64 1046 z "},"Î":{"ha":319,"x_min":-51,"x_max":371,"o":"m 138 0 l 138 939 l 182 939 l 182 0 l 138 0 m -33 1046 l -51 1064 l 139 1278 l 181 1278 l 371 1064 l 353 1046 l 146 1238 l 174 1238 l -33 1046 z "},"Ï":{"ha":319,"x_min":-3,"x_max":322,"o":"m 138 0 l 138 939 l 182 939 l 182 0 l 138 0 m 40 1057 q 10 1071 22 1057 q -3 1103 -3 1085 q 10 1135 -3 1122 q 40 1147 22 1147 q 73 1135 60 1147 q 86 1103 86 1122 q 73 1071 86 1085 q 40 1057 60 1057 m 276 1057 q 246 1071 258 1057 q 233 1103 233 1085 q 246 1135 233 1122 q 276 1147 258 1147 q 309 1135 296 1147 q 322 1103 322 1122 q 309 1071 322 1085 q 276 1057 296 1057 z "},"İ":{"ha":319,"x_min":115,"x_max":204,"o":"m 138 0 l 138 939 l 182 939 l 182 0 l 138 0 m 158 1057 q 128 1071 140 1057 q 115 1103 115 1085 q 128 1135 115 1122 q 158 1147 140 1147 q 191 1135 178 1147 q 204 1103 204 1122 q 191 1071 204 1085 q 158 1057 178 1057 z "},"Ì":{"ha":319,"x_min":4,"x_max":232,"o":"m 138 0 l 138 939 l 182 939 l 182 0 l 138 0 m 214 1046 l 4 1240 l 42 1278 l 232 1064 l 214 1046 z "},"Ī":{"ha":319,"x_min":-3,"x_max":322,"o":"m -3 1121 l 322 1121 l 322 1083 l -3 1083 l -3 1121 m 138 0 l 138 939 l 182 939 l 182 0 l 138 0 z "},"Į":{"ha":319,"x_min":42,"x_max":244,"o":"m 138 0 l 138 939 l 182 939 l 182 0 l 138 0 m 157 -286 q 75 -257 108 -286 q 42 -174 42 -228 q 75 -75 42 -129 q 151 21 108 -21 l 182 0 q 106 -88 133 -47 q 79 -174 79 -129 q 101 -235 79 -217 q 160 -254 122 -254 q 194 -249 179 -254 q 228 -232 210 -243 l 244 -256 q 203 -278 225 -271 q 157 -286 181 -286 z "},"J":{"ha":689,"x_min":68,"x_max":561,"o":"m 299 -14 q 167 15 222 -14 q 68 94 113 43 l 99 125 q 184 53 136 78 q 299 29 232 29 q 401 53 351 29 q 484 133 451 78 q 517 276 517 188 l 517 939 l 561 939 l 561 268 q 523 111 561 174 q 424 17 485 49 q 299 -14 364 -14 z "},"K":{"ha":897,"x_min":138,"x_max":831,"o":"m 761 0 l 167 489 l 749 939 l 817 939 l 215 475 l 215 504 l 831 0 l 761 0 m 138 0 l 138 939 l 182 939 l 182 0 l 138 0 z "},"Ķ":{"ha":897,"x_min":138,"x_max":831,"o":"m 761 0 l 167 489 l 749 939 l 817 939 l 215 475 l 215 504 l 831 0 l 761 0 m 138 0 l 138 939 l 182 939 l 182 0 l 138 0 m 418 -353 l 385 -335 l 449 -203 l 468 -200 q 457 -216 465 -210 q 435 -222 449 -222 q 398 -207 414 -222 q 382 -169 382 -192 q 399 -129 382 -146 q 440 -112 417 -112 q 479 -129 463 -112 q 496 -169 496 -146 q 494 -192 496 -179 q 481 -228 492 -206 l 418 -353 z "},"L":{"ha":775,"x_min":138,"x_max":707,"o":"m 138 0 l 138 939 l 182 939 l 182 0 l 138 0 m 163 0 l 163 40 l 707 40 l 707 0 l 163 0 z "},"Ĺ":{"ha":775,"x_min":138,"x_max":707,"o":"m 138 0 l 138 939 l 182 939 l 182 0 l 138 0 m 163 0 l 163 40 l 707 40 l 707 0 l 163 0 m 326 1046 l 308 1064 l 499 1278 l 536 1240 l 326 1046 z "},"Ľ":{"ha":775,"x_min":138,"x_max":707,"o":"m 138 0 l 138 939 l 182 939 l 182 0 l 138 0 m 163 0 l 163 40 l 707 40 l 707 0 l 163 0 m 318 699 l 285 717 l 349 849 l 368 851 q 357 835 365 842 q 335 829 349 829 q 298 844 314 829 q 282 882 282 860 q 299 922 282 906 q 340 939 317 939 q 379 922 363 939 q 396 882 396 906 q 394 859 396 872 q 381 824 392 846 l 318 699 z "},"Ļ":{"ha":775,"x_min":138,"x_max":707,"o":"m 138 0 l 138 939 l 182 939 l 182 0 l 138 0 m 163 0 l 163 40 l 707 40 l 707 0 l 163 0 m 401 -353 l 368 -335 l 432 -203 l 451 -200 q 440 -216 449 -210 q 418 -222 432 -222 q 381 -207 397 -222 q 365 -169 365 -192 q 383 -129 365 -146 q 424 -112 400 -112 q 463 -129 446 -112 q 479 -169 479 -146 q 477 -192 479 -179 q 464 -228 475 -206 l 401 -353 z "},"Ł":{"ha":906,"x_min":111,"x_max":838,"o":"m 111 403 l 465 607 l 465 563 l 111 358 l 111 403 m 268 0 l 268 939 l 313 939 l 313 0 l 268 0 m 293 0 l 293 40 l 838 40 l 838 0 l 293 0 z "},"M":{"ha":1153,"x_min":138,"x_max":1015,"o":"m 138 0 l 138 939 l 171 939 l 592 250 l 561 250 l 982 939 l 1015 939 l 1015 0 l 971 0 l 971 864 l 982 861 l 593 224 l 560 224 l 171 861 l 182 864 l 182 0 l 138 0 z "},"N":{"ha":957,"x_min":138,"x_max":819,"o":"m 138 0 l 138 939 l 171 939 l 182 881 l 182 0 l 138 0 m 786 0 l 161 879 l 171 939 l 796 60 l 786 0 m 786 0 l 775 58 l 775 939 l 819 939 l 819 0 l 786 0 z "},"Ń":{"ha":957,"x_min":138,"x_max":819,"o":"m 138 0 l 138 939 l 171 939 l 182 881 l 182 0 l 138 0 m 786 0 l 161 879 l 171 939 l 796 60 l 786 0 m 786 0 l 775 58 l 775 939 l 819 939 l 819 0 l 786 0 m 383 1046 l 365 1064 l 556 1278 l 593 1240 l 383 1046 z "},"Ň":{"ha":957,"x_min":138,"x_max":819,"o":"m 138 0 l 138 939 l 171 939 l 182 881 l 182 0 l 138 0 m 786 0 l 161 879 l 171 939 l 796 60 l 786 0 m 786 0 l 775 58 l 775 939 l 819 939 l 819 0 l 786 0 m 672 1278 l 690 1260 l 500 1046 l 458 1046 l 268 1260 l 286 1278 l 493 1086 l 465 1086 l 672 1278 z "},"Ņ":{"ha":957,"x_min":138,"x_max":819,"o":"m 138 0 l 138 939 l 171 939 l 182 881 l 182 0 l 138 0 m 786 0 l 161 879 l 171 939 l 796 60 l 786 0 m 786 0 l 775 58 l 775 939 l 819 939 l 819 0 l 786 0 m 458 -353 l 425 -335 l 489 -203 l 508 -200 q 497 -216 506 -210 q 475 -222 489 -222 q 438 -207 454 -222 q 422 -169 422 -192 q 440 -129 422 -146 q 481 -112 457 -112 q 519 -129 503 -112 q 536 -169 536 -146 q 534 -192 536 -179 q 521 -228 532 -206 l 458 -353 z "},"Ñ":{"ha":957,"x_min":138,"x_max":819,"o":"m 138 0 l 138 939 l 171 939 l 182 881 l 182 0 l 138 0 m 786 0 l 161 879 l 171 939 l 796 60 l 786 0 m 786 0 l 775 58 l 775 939 l 819 939 l 819 0 l 786 0 m 582 1058 q 510 1074 540 1058 q 451 1103 481 1089 q 385 1118 422 1118 q 325 1103 346 1118 q 288 1064 304 1089 l 261 1086 q 309 1136 281 1117 q 385 1156 338 1156 q 462 1141 431 1156 q 521 1111 493 1126 q 582 1096 549 1096 q 634 1110 614 1096 q 671 1150 654 1125 l 697 1128 q 650 1078 678 1097 q 582 1058 622 1058 z "},"Ŋ":{"ha":957,"x_min":138,"x_max":819,"o":"m 138 0 l 138 939 l 171 939 l 182 881 l 182 0 l 138 0 m 786 0 l 161 879 l 171 939 l 796 60 l 786 0 m 786 0 l 775 58 l 775 939 l 819 939 l 819 0 l 786 0 m 639 -286 q 558 -270 596 -286 q 492 -225 519 -254 l 521 -196 q 577 -235 547 -222 q 640 -247 607 -247 q 737 -214 697 -247 q 776 -107 776 -181 l 776 639 l 819 639 l 819 -106 q 794 -206 819 -165 q 728 -266 769 -246 q 639 -286 688 -286 z "},"O":{"ha":1101,"x_min":92,"x_max":1010,"o":"m 553 -14 q 370 23 454 -14 q 224 126 286 60 q 126 281 161 193 q 92 471 92 369 q 126 661 92 574 q 222 814 160 749 q 368 916 285 879 q 550 953 451 953 q 733 916 649 953 q 878 814 817 879 q 975 660 940 749 q 1010 469 1010 572 q 976 280 1010 368 q 879 126 942 192 q 734 23 817 60 q 553 -14 651 -14 m 550 29 q 761 88 668 29 q 908 246 854 146 q 963 471 963 346 q 931 644 963 564 q 844 783 900 724 q 714 876 789 843 q 550 910 639 910 q 339 852 432 910 q 192 695 246 794 q 139 471 139 596 q 170 297 139 378 q 257 156 201 217 q 388 63 313 96 q 550 29 463 29 z "},"Ó":{"ha":1101,"x_min":92,"x_max":1010,"o":"m 553 -14 q 370 23 454 -14 q 224 126 286 60 q 126 281 161 193 q 92 471 92 369 q 126 661 92 574 q 222 814 160 749 q 368 916 285 879 q 550 953 451 953 q 733 916 649 953 q 878 814 817 879 q 975 660 940 749 q 1010 469 1010 572 q 976 280 1010 368 q 879 126 942 192 q 734 23 817 60 q 553 -14 651 -14 m 550 29 q 761 88 668 29 q 908 246 854 146 q 963 471 963 346 q 931 644 963 564 q 844 783 900 724 q 714 876 789 843 q 550 910 639 910 q 339 852 432 910 q 192 695 246 794 q 139 471 139 596 q 170 297 139 378 q 257 156 201 217 q 388 63 313 96 q 550 29 463 29 m 456 1046 l 438 1064 l 628 1278 l 665 1240 l 456 1046 z "},"Ô":{"ha":1101,"x_min":92,"x_max":1010,"o":"m 553 -14 q 370 23 454 -14 q 224 126 286 60 q 126 281 161 193 q 92 471 92 369 q 126 661 92 574 q 222 814 160 749 q 368 916 285 879 q 550 953 451 953 q 733 916 649 953 q 878 814 817 879 q 975 660 940 749 q 1010 469 1010 572 q 976 280 1010 368 q 879 126 942 192 q 734 23 817 60 q 553 -14 651 -14 m 550 29 q 761 88 668 29 q 908 246 854 146 q 963 471 963 346 q 931 644 963 564 q 844 783 900 724 q 714 876 789 843 q 550 910 639 910 q 339 852 432 910 q 192 695 246 794 q 139 471 139 596 q 170 297 139 378 q 257 156 201 217 q 388 63 313 96 q 550 29 463 29 m 358 1046 l 340 1064 l 531 1278 l 572 1278 l 763 1064 l 744 1046 l 538 1238 l 565 1238 l 358 1046 z "},"Ö":{"ha":1101,"x_min":92,"x_max":1010,"o":"m 553 -14 q 370 23 454 -14 q 224 126 286 60 q 126 281 161 193 q 92 471 92 369 q 126 661 92 574 q 222 814 160 749 q 368 916 285 879 q 550 953 451 953 q 733 916 649 953 q 878 814 817 879 q 975 660 940 749 q 1010 469 1010 572 q 976 280 1010 368 q 879 126 942 192 q 734 23 817 60 q 553 -14 651 -14 m 550 29 q 761 88 668 29 q 908 246 854 146 q 963 471 963 346 q 931 644 963 564 q 844 783 900 724 q 714 876 789 843 q 550 910 639 910 q 339 852 432 910 q 192 695 246 794 q 139 471 139 596 q 170 297 139 378 q 257 156 201 217 q 388 63 313 96 q 550 29 463 29 m 432 1057 q 401 1071 414 1057 q 389 1103 389 1085 q 401 1135 389 1122 q 432 1147 414 1147 q 465 1135 451 1147 q 478 1103 478 1122 q 465 1071 478 1085 q 432 1057 451 1057 m 668 1057 q 638 1071 650 1057 q 625 1103 625 1085 q 638 1135 625 1122 q 668 1147 650 1147 q 701 1135 688 1147 q 714 1103 714 1122 q 701 1071 714 1085 q 668 1057 688 1057 z "},"Ò":{"ha":1101,"x_min":92,"x_max":1010,"o":"m 553 -14 q 370 23 454 -14 q 224 126 286 60 q 126 281 161 193 q 92 471 92 369 q 126 661 92 574 q 222 814 160 749 q 368 916 285 879 q 550 953 451 953 q 733 916 649 953 q 878 814 817 879 q 975 660 940 749 q 1010 469 1010 572 q 976 280 1010 368 q 879 126 942 192 q 734 23 817 60 q 553 -14 651 -14 m 550 29 q 761 88 668 29 q 908 246 854 146 q 963 471 963 346 q 931 644 963 564 q 844 783 900 724 q 714 876 789 843 q 550 910 639 910 q 339 852 432 910 q 192 695 246 794 q 139 471 139 596 q 170 297 139 378 q 257 156 201 217 q 388 63 313 96 q 550 29 463 29 m 606 1046 l 396 1240 l 433 1278 l 624 1064 l 606 1046 z "},"Ő":{"ha":1101,"x_min":92,"x_max":1010,"o":"m 553 -14 q 370 23 454 -14 q 224 126 286 60 q 126 281 161 193 q 92 471 92 369 q 126 661 92 574 q 222 814 160 749 q 368 916 285 879 q 550 953 451 953 q 733 916 649 953 q 878 814 817 879 q 975 660 940 749 q 1010 469 1010 572 q 976 280 1010 368 q 879 126 942 192 q 734 23 817 60 q 553 -14 651 -14 m 550 29 q 761 88 668 29 q 908 246 854 146 q 963 471 963 346 q 931 644 963 564 q 844 783 900 724 q 714 876 789 843 q 550 910 639 910 q 339 852 432 910 q 192 695 246 794 q 139 471 139 596 q 170 297 139 378 q 257 156 201 217 q 388 63 313 96 q 550 29 463 29 m 425 1017 l 401 1025 l 483 1300 l 533 1282 l 425 1017 m 585 1017 l 561 1025 l 643 1300 l 693 1282 l 585 1017 z "},"Ō":{"ha":1101,"x_min":92,"x_max":1010,"o":"m 553 -14 q 370 23 454 -14 q 224 126 286 60 q 126 281 161 193 q 92 471 92 369 q 126 661 92 574 q 222 814 160 749 q 368 916 285 879 q 550 953 451 953 q 733 916 649 953 q 878 814 817 879 q 975 660 940 749 q 1010 469 1010 572 q 976 280 1010 368 q 879 126 942 192 q 734 23 817 60 q 553 -14 651 -14 m 550 29 q 761 88 668 29 q 908 246 854 146 q 963 471 963 346 q 931 644 963 564 q 844 783 900 724 q 714 876 789 843 q 550 910 639 910 q 339 852 432 910 q 192 695 246 794 q 139 471 139 596 q 170 297 139 378 q 257 156 201 217 q 388 63 313 96 q 550 29 463 29 m 336 1121 l 767 1121 l 767 1083 l 336 1083 l 336 1121 z "},"Ø":{"ha":1101,"x_min":90,"x_max":1008,"o":"m 965 914 l 993 885 l 133 25 l 106 54 l 965 914 m 551 -14 q 369 23 453 -14 q 222 126 285 60 q 125 281 160 193 q 90 471 90 369 q 124 661 90 574 q 221 814 158 749 q 367 916 283 879 q 549 953 450 953 q 731 916 647 953 q 877 814 815 879 q 974 660 939 749 q 1008 469 1008 572 q 974 280 1008 368 q 878 126 940 192 q 733 23 815 60 q 551 -14 650 -14 m 549 29 q 760 88 667 29 q 907 246 853 146 q 961 471 961 346 q 930 644 961 564 q 843 783 899 724 q 713 876 788 843 q 549 910 638 910 q 338 852 431 910 q 191 695 244 794 q 138 471 138 596 q 169 297 138 378 q 256 156 200 217 q 386 63 311 96 q 549 29 461 29 z "},"Õ":{"ha":1101,"x_min":92,"x_max":1010,"o":"m 553 -14 q 370 23 454 -14 q 224 126 286 60 q 126 281 161 193 q 92 471 92 369 q 126 661 92 574 q 222 814 160 749 q 368 916 285 879 q 550 953 451 953 q 733 916 649 953 q 878 814 817 879 q 975 660 940 749 q 1010 469 1010 572 q 976 280 1010 368 q 879 126 942 192 q 734 23 817 60 q 553 -14 651 -14 m 550 29 q 761 88 668 29 q 908 246 854 146 q 963 471 963 346 q 931 644 963 564 q 844 783 900 724 q 714 876 789 843 q 550 910 639 910 q 339 852 432 910 q 192 695 246 794 q 139 471 139 596 q 170 297 139 378 q 257 156 201 217 q 388 63 313 96 q 550 29 463 29 m 654 1058 q 583 1074 613 1058 q 524 1103 553 1089 q 457 1118 494 1118 q 397 1103 418 1118 q 360 1064 376 1089 l 333 1086 q 381 1136 353 1117 q 457 1156 410 1156 q 534 1141 503 1156 q 593 1111 565 1126 q 654 1096 621 1096 q 706 1110 686 1096 q 743 1150 726 1125 l 769 1128 q 722 1078 750 1097 q 654 1058 694 1058 z "},"Œ":{"ha":1642,"x_min":92,"x_max":1567,"o":"m 553 -14 q 370 23 454 -14 q 224 126 286 60 q 126 281 161 193 q 92 471 92 369 q 126 661 92 574 q 222 814 160 749 q 368 916 285 879 q 550 953 451 953 q 737 916 654 953 q 878 814 819 879 q 969 660 938 749 q 1000 469 1000 572 q 969 280 1000 368 q 879 126 938 192 q 738 23 821 60 q 553 -14 656 -14 m 550 29 q 768 88 675 29 q 912 246 861 146 q 963 471 963 346 q 912 694 963 594 q 768 851 861 793 q 550 910 675 910 q 339 852 432 910 q 192 695 246 794 q 139 471 139 596 q 170 297 139 378 q 257 156 201 217 q 388 63 313 96 q 550 29 463 29 m 963 0 l 963 939 l 1007 939 l 1007 0 l 963 0 m 988 0 l 988 40 l 1567 40 l 1567 0 l 988 0 m 988 463 l 988 501 l 1525 501 l 1525 463 l 988 463 m 988 899 l 988 939 l 1558 939 l 1558 899 l 988 899 z "},"P":{"ha":849,"x_min":138,"x_max":765,"o":"m 160 400 l 160 440 l 479 440 q 603 468 549 440 q 688 547 657 496 q 719 669 719 599 q 688 792 719 740 q 603 871 657 843 q 479 899 549 899 l 160 899 l 160 939 l 486 939 q 629 906 567 939 q 728 812 692 872 q 765 669 765 751 q 728 527 765 588 q 629 433 692 467 q 486 400 567 400 l 160 400 m 138 0 l 138 939 l 182 939 l 182 0 l 138 0 z "},"Þ":{"ha":849,"x_min":138,"x_max":765,"o":"m 160 213 l 160 253 l 479 253 q 603 281 549 253 q 688 360 657 308 q 719 482 719 411 q 688 604 719 553 q 603 683 657 656 q 479 711 549 711 l 160 711 l 160 751 l 486 751 q 629 718 567 751 q 728 624 692 685 q 765 482 765 564 q 728 340 765 400 q 629 246 692 279 q 486 213 567 213 l 160 213 m 138 0 l 138 939 l 182 939 l 182 0 l 138 0 z "},"Q":{"ha":1121,"x_min":92,"x_max":1092,"o":"m 553 -14 q 370 23 454 -14 q 224 126 286 60 q 126 281 161 193 q 92 471 92 369 q 126 661 92 574 q 222 814 160 749 q 368 916 285 879 q 550 953 451 953 q 733 916 649 953 q 878 814 817 879 q 975 660 940 749 q 1010 469 1010 572 q 976 280 1010 368 q 879 126 942 192 q 734 23 817 60 q 553 -14 651 -14 m 1064 -71 l 572 421 l 600 449 l 1092 -43 l 1064 -71 m 550 29 q 761 88 668 29 q 908 246 854 146 q 963 471 963 346 q 931 644 963 564 q 844 783 900 724 q 714 876 789 843 q 550 910 639 910 q 339 852 432 910 q 192 695 246 794 q 139 471 139 596 q 170 297 139 378 q 257 156 201 217 q 388 63 313 96 q 550 29 463 29 z "},"R":{"ha":885,"x_min":138,"x_max":819,"o":"m 160 442 l 160 482 l 468 482 q 643 540 583 482 q 703 690 703 597 q 643 842 703 785 q 468 899 583 899 l 160 899 l 160 939 l 461 939 q 618 908 554 939 q 715 820 682 876 q 749 690 749 764 q 715 560 749 617 q 618 473 682 504 q 461 442 554 442 l 160 442 m 138 0 l 138 939 l 182 939 l 182 0 l 138 0 m 760 0 l 383 461 l 432 469 l 819 0 l 760 0 z "},"Ŕ":{"ha":885,"x_min":138,"x_max":819,"o":"m 160 442 l 160 482 l 468 482 q 643 540 583 482 q 703 690 703 597 q 643 842 703 785 q 468 899 583 899 l 160 899 l 160 939 l 461 939 q 618 908 554 939 q 715 820 682 876 q 749 690 749 764 q 715 560 749 617 q 618 473 682 504 q 461 442 554 442 l 160 442 m 138 0 l 138 939 l 182 939 l 182 0 l 138 0 m 760 0 l 383 461 l 432 469 l 819 0 l 760 0 m 301 1046 l 283 1064 l 474 1278 l 511 1240 l 301 1046 z "},"Ř":{"ha":885,"x_min":138,"x_max":819,"o":"m 160 442 l 160 482 l 468 482 q 643 540 583 482 q 703 690 703 597 q 643 842 703 785 q 468 899 583 899 l 160 899 l 160 939 l 461 939 q 618 908 554 939 q 715 820 682 876 q 749 690 749 764 q 715 560 749 617 q 618 473 682 504 q 461 442 554 442 l 160 442 m 138 0 l 138 939 l 182 939 l 182 0 l 138 0 m 760 0 l 383 461 l 432 469 l 819 0 l 760 0 m 590 1278 l 608 1260 l 418 1046 l 376 1046 l 186 1260 l 204 1278 l 411 1086 l 383 1086 l 590 1278 z "},"Ŗ":{"ha":885,"x_min":138,"x_max":819,"o":"m 160 442 l 160 482 l 468 482 q 643 540 583 482 q 703 690 703 597 q 643 842 703 785 q 468 899 583 899 l 160 899 l 160 939 l 461 939 q 618 908 554 939 q 715 820 682 876 q 749 690 749 764 q 715 560 749 617 q 618 473 682 504 q 461 442 554 442 l 160 442 m 138 0 l 138 939 l 182 939 l 182 0 l 138 0 m 760 0 l 383 461 l 432 469 l 819 0 l 760 0 m 404 -353 l 371 -335 l 435 -203 l 454 -200 q 443 -216 451 -210 q 421 -222 435 -222 q 384 -207 400 -222 q 368 -169 368 -192 q 385 -129 368 -146 q 426 -112 403 -112 q 465 -129 449 -112 q 482 -169 482 -146 q 480 -192 482 -179 q 467 -228 478 -206 l 404 -353 z "},"S":{"ha":767,"x_min":69,"x_max":678,"o":"m 396 -14 q 207 28 288 -14 q 69 144 126 71 l 101 175 q 233 62 160 96 q 399 28 307 28 q 567 78 501 28 q 632 217 632 128 q 605 326 632 283 q 533 394 578 368 q 436 441 489 421 q 331 481 383 461 q 233 531 278 501 q 162 608 189 561 q 135 726 135 654 q 167 845 135 794 q 258 924 200 896 q 394 953 317 953 q 556 918 485 953 q 676 818 626 883 l 644 788 q 537 879 597 847 q 394 911 476 911 q 240 863 300 911 q 181 728 181 814 q 208 626 181 665 q 279 560 235 586 q 376 516 324 535 q 482 476 429 497 q 579 425 535 456 q 651 347 624 394 q 678 225 678 299 q 602 47 678 107 q 396 -14 526 -14 z "},"Ś":{"ha":767,"x_min":69,"x_max":678,"o":"m 396 -14 q 207 28 288 -14 q 69 144 126 71 l 101 175 q 233 62 160 96 q 399 28 307 28 q 567 78 501 28 q 632 217 632 128 q 605 326 632 283 q 533 394 578 368 q 436 441 489 421 q 331 481 383 461 q 233 531 278 501 q 162 608 189 561 q 135 726 135 654 q 167 845 135 794 q 258 924 200 896 q 394 953 317 953 q 556 918 485 953 q 676 818 626 883 l 644 788 q 537 879 597 847 q 394 911 476 911 q 240 863 300 911 q 181 728 181 814 q 208 626 181 665 q 279 560 235 586 q 376 516 324 535 q 482 476 429 497 q 579 425 535 456 q 651 347 624 394 q 678 225 678 299 q 602 47 678 107 q 396 -14 526 -14 m 299 1046 l 281 1064 l 471 1278 l 508 1240 l 299 1046 z "},"Š":{"ha":767,"x_min":69,"x_max":678,"o":"m 396 -14 q 207 28 288 -14 q 69 144 126 71 l 101 175 q 233 62 160 96 q 399 28 307 28 q 567 78 501 28 q 632 217 632 128 q 605 326 632 283 q 533 394 578 368 q 436 441 489 421 q 331 481 383 461 q 233 531 278 501 q 162 608 189 561 q 135 726 135 654 q 167 845 135 794 q 258 924 200 896 q 394 953 317 953 q 556 918 485 953 q 676 818 626 883 l 644 788 q 537 879 597 847 q 394 911 476 911 q 240 863 300 911 q 181 728 181 814 q 208 626 181 665 q 279 560 235 586 q 376 516 324 535 q 482 476 429 497 q 579 425 535 456 q 651 347 624 394 q 678 225 678 299 q 602 47 678 107 q 396 -14 526 -14 m 588 1278 l 606 1260 l 415 1046 l 374 1046 l 183 1260 l 201 1278 l 408 1086 l 381 1086 l 588 1278 z "},"Ş":{"ha":767,"x_min":69,"x_max":678,"o":"m 396 -14 q 207 28 288 -14 q 69 144 126 71 l 101 175 q 233 62 160 96 q 399 28 307 28 q 567 78 501 28 q 632 217 632 128 q 605 326 632 283 q 533 394 578 368 q 436 441 489 421 q 331 481 383 461 q 233 531 278 501 q 162 608 189 561 q 135 726 135 654 q 167 845 135 794 q 258 924 200 896 q 394 953 317 953 q 556 918 485 953 q 676 818 626 883 l 644 788 q 537 879 597 847 q 394 911 476 911 q 240 863 300 911 q 181 728 181 814 q 208 626 181 665 q 279 560 235 586 q 376 516 324 535 q 482 476 429 497 q 579 425 535 456 q 651 347 624 394 q 678 225 678 299 q 602 47 678 107 q 396 -14 526 -14 m 385 -286 q 303 -272 344 -286 q 231 -231 263 -257 l 267 -200 q 319 -233 289 -221 q 385 -244 350 -244 q 469 -225 439 -244 q 499 -171 499 -206 q 466 -117 499 -136 q 372 -99 433 -99 l 344 -99 l 378 11 l 426 11 l 397 -85 l 378 -61 q 503 -90 460 -61 q 547 -172 547 -119 q 505 -256 547 -226 q 385 -286 463 -286 z "},"Ș":{"ha":767,"x_min":69,"x_max":678,"o":"m 396 -14 q 207 28 288 -14 q 69 144 126 71 l 101 175 q 233 62 160 96 q 399 28 307 28 q 567 78 501 28 q 632 217 632 128 q 605 326 632 283 q 533 394 578 368 q 436 441 489 421 q 331 481 383 461 q 233 531 278 501 q 162 608 189 561 q 135 726 135 654 q 167 845 135 794 q 258 924 200 896 q 394 953 317 953 q 556 918 485 953 q 676 818 626 883 l 644 788 q 537 879 597 847 q 394 911 476 911 q 240 863 300 911 q 181 728 181 814 q 208 626 181 665 q 279 560 235 586 q 376 516 324 535 q 482 476 429 497 q 579 425 535 456 q 651 347 624 394 q 678 225 678 299 q 602 47 678 107 q 396 -14 526 -14 m 378 -353 l 344 -335 l 408 -203 l 428 -200 q 417 -216 425 -210 q 394 -222 408 -222 q 358 -207 374 -222 q 342 -169 342 -192 q 359 -129 342 -146 q 400 -112 376 -112 q 439 -129 422 -112 q 456 -169 456 -146 q 453 -192 456 -179 q 440 -228 451 -206 l 378 -353 z "},"ẞ":{"ha":985,"x_min":138,"x_max":893,"o":"m 490 556 l 846 876 l 882 854 l 535 543 l 490 525 l 490 556 m 588 0 q 427 36 500 0 q 306 140 354 72 l 335 169 q 441 74 375 108 q 588 40 507 40 q 724 71 665 40 q 815 158 782 101 q 849 288 849 214 q 815 419 849 363 q 723 506 782 475 q 585 538 664 538 q 540 535 563 538 q 490 525 518 532 l 499 547 q 539 569 515 563 q 597 575 563 575 q 749 538 682 575 q 854 435 815 500 q 893 288 893 369 q 853 138 893 203 q 745 37 814 74 q 588 0 676 0 m 525 953 q 679 944 613 953 q 791 922 746 935 q 859 901 836 910 q 882 892 882 892 l 882 853 q 865 858 882 853 q 817 873 849 864 q 742 890 786 882 q 643 904 697 899 q 525 910 589 910 q 344 880 422 910 q 224 796 267 850 q 181 671 181 742 l 181 0 l 138 0 l 138 672 q 186 819 138 756 q 322 917 235 882 q 525 953 410 953 z "},"T":{"ha":894,"x_min":68,"x_max":826,"o":"m 425 0 l 425 913 l 469 913 l 469 0 l 425 0 m 68 899 l 68 939 l 826 939 l 826 899 l 68 899 z "},"Ť":{"ha":894,"x_min":68,"x_max":826,"o":"m 425 0 l 425 913 l 469 913 l 469 0 l 425 0 m 68 899 l 68 939 l 826 939 l 826 899 l 68 899 m 640 1278 l 658 1260 l 468 1046 l 426 1046 l 236 1260 l 254 1278 l 461 1086 l 433 1086 l 640 1278 z "},"Ț":{"ha":894,"x_min":68,"x_max":826,"o":"m 425 0 l 425 913 l 469 913 l 469 0 l 425 0 m 68 899 l 68 939 l 826 939 l 826 899 l 68 899 m 426 -353 l 393 -335 l 457 -203 l 476 -200 q 465 -216 474 -210 q 443 -222 457 -222 q 406 -207 422 -222 q 390 -169 390 -192 q 408 -129 390 -146 q 449 -112 425 -112 q 488 -129 471 -112 q 504 -169 504 -146 q 502 -192 504 -179 q 489 -228 500 -206 l 426 -353 z "},"U":{"ha":919,"x_min":125,"x_max":794,"o":"m 460 -14 q 288 29 364 -14 q 169 147 213 72 q 125 317 125 222 l 125 939 l 169 939 l 169 325 q 208 168 169 235 q 312 65 246 101 q 460 29 378 29 q 608 65 543 29 q 712 168 674 101 q 750 324 750 235 l 750 939 l 794 939 l 794 315 q 751 147 794 221 q 631 29 707 72 q 460 -14 556 -14 z "},"Ú":{"ha":919,"x_min":125,"x_max":794,"o":"m 460 -14 q 288 29 364 -14 q 169 147 213 72 q 125 317 125 222 l 125 939 l 169 939 l 169 325 q 208 168 169 235 q 312 65 246 101 q 460 29 378 29 q 608 65 543 29 q 712 168 674 101 q 750 324 750 235 l 750 939 l 794 939 l 794 315 q 751 147 794 221 q 631 29 707 72 q 460 -14 556 -14 m 364 1046 l 346 1064 l 536 1278 l 574 1240 l 364 1046 z "},"Ŭ":{"ha":919,"x_min":125,"x_max":794,"o":"m 460 -14 q 288 29 364 -14 q 169 147 213 72 q 125 317 125 222 l 125 939 l 169 939 l 169 325 q 208 168 169 235 q 312 65 246 101 q 460 29 378 29 q 608 65 543 29 q 712 168 674 101 q 750 324 750 235 l 750 939 l 794 939 l 794 315 q 751 147 794 221 q 631 29 707 72 q 460 -14 556 -14 m 671 1231 q 644 1122 671 1171 q 570 1046 617 1074 q 463 1018 524 1018 q 351 1046 400 1018 q 276 1122 303 1074 q 249 1231 249 1171 l 289 1231 q 337 1104 289 1154 q 465 1054 385 1054 q 549 1077 511 1054 q 610 1140 588 1100 q 632 1231 632 1181 l 671 1231 z "},"Û":{"ha":919,"x_min":125,"x_max":794,"o":"m 460 -14 q 288 29 364 -14 q 169 147 213 72 q 125 317 125 222 l 125 939 l 169 939 l 169 325 q 208 168 169 235 q 312 65 246 101 q 460 29 378 29 q 608 65 543 29 q 712 168 674 101 q 750 324 750 235 l 750 939 l 794 939 l 794 315 q 751 147 794 221 q 631 29 707 72 q 460 -14 556 -14 m 267 1046 l 249 1064 l 439 1278 l 481 1278 l 671 1064 l 653 1046 l 446 1238 l 474 1238 l 267 1046 z "},"Ü":{"ha":919,"x_min":125,"x_max":794,"o":"m 460 -14 q 288 29 364 -14 q 169 147 213 72 q 125 317 125 222 l 125 939 l 169 939 l 169 325 q 208 168 169 235 q 312 65 246 101 q 460 29 378 29 q 608 65 543 29 q 712 168 674 101 q 750 324 750 235 l 750 939 l 794 939 l 794 315 q 751 147 794 221 q 631 29 707 72 q 460 -14 556 -14 m 340 1057 q 310 1071 322 1057 q 297 1103 297 1085 q 310 1135 297 1122 q 340 1147 322 1147 q 373 1135 360 1147 q 386 1103 386 1122 q 373 1071 386 1085 q 340 1057 360 1057 m 576 1057 q 546 1071 558 1057 q 533 1103 533 1085 q 546 1135 533 1122 q 576 1147 558 1147 q 609 1135 596 1147 q 622 1103 622 1122 q 609 1071 622 1085 q 576 1057 596 1057 z "},"Ù":{"ha":919,"x_min":125,"x_max":794,"o":"m 460 -14 q 288 29 364 -14 q 169 147 213 72 q 125 317 125 222 l 125 939 l 169 939 l 169 325 q 208 168 169 235 q 312 65 246 101 q 460 29 378 29 q 608 65 543 29 q 712 168 674 101 q 750 324 750 235 l 750 939 l 794 939 l 794 315 q 751 147 794 221 q 631 29 707 72 q 460 -14 556 -14 m 514 1046 l 304 1240 l 342 1278 l 532 1064 l 514 1046 z "},"Ű":{"ha":919,"x_min":125,"x_max":794,"o":"m 460 -14 q 288 29 364 -14 q 169 147 213 72 q 125 317 125 222 l 125 939 l 169 939 l 169 325 q 208 168 169 235 q 312 65 246 101 q 460 29 378 29 q 608 65 543 29 q 712 168 674 101 q 750 324 750 235 l 750 939 l 794 939 l 794 315 q 751 147 794 221 q 631 29 707 72 q 460 -14 556 -14 m 333 1017 l 310 1025 l 392 1300 l 442 1282 l 333 1017 m 493 1017 l 469 1025 l 551 1300 l 601 1282 l 493 1017 z "},"Ū":{"ha":919,"x_min":125,"x_max":794,"o":"m 460 -14 q 288 29 364 -14 q 169 147 213 72 q 125 317 125 222 l 125 939 l 169 939 l 169 325 q 208 168 169 235 q 312 65 246 101 q 460 29 378 29 q 608 65 543 29 q 712 168 674 101 q 750 324 750 235 l 750 939 l 794 939 l 794 315 q 751 147 794 221 q 631 29 707 72 q 460 -14 556 -14 m 244 1121 l 675 1121 l 675 1083 l 244 1083 l 244 1121 z "},"Ų":{"ha":919,"x_min":125,"x_max":794,"o":"m 460 -14 q 288 29 364 -14 q 169 147 213 72 q 125 317 125 222 l 125 939 l 169 939 l 169 325 q 208 168 169 235 q 312 65 246 101 q 460 29 378 29 q 608 65 543 29 q 712 168 674 101 q 750 324 750 235 l 750 939 l 794 939 l 794 315 q 751 147 794 221 q 631 29 707 72 q 460 -14 556 -14 m 574 -272 q 492 -243 525 -272 q 458 -160 458 -214 q 492 -61 458 -115 q 568 35 525 -7 l 599 14 q 523 -74 550 -33 q 496 -160 496 -115 q 517 -222 496 -203 q 576 -240 539 -240 q 611 -235 596 -240 q 644 -218 626 -229 l 661 -242 q 619 -265 642 -257 q 574 -272 597 -272 z "},"Ů":{"ha":919,"x_min":125,"x_max":794,"o":"m 460 -14 q 288 29 364 -14 q 169 147 213 72 q 125 317 125 222 l 125 939 l 169 939 l 169 325 q 208 168 169 235 q 312 65 246 101 q 460 29 378 29 q 608 65 543 29 q 712 168 674 101 q 750 324 750 235 l 750 939 l 794 939 l 794 315 q 751 147 794 221 q 631 29 707 72 q 460 -14 556 -14 m 461 1018 q 387 1037 419 1018 q 336 1088 354 1056 q 318 1160 318 1119 q 336 1232 318 1200 q 387 1283 354 1264 q 461 1301 419 1301 q 533 1283 501 1301 q 582 1232 564 1264 q 600 1160 600 1200 q 582 1088 600 1119 q 533 1037 564 1056 q 461 1018 501 1018 m 463 1056 q 532 1085 503 1056 q 561 1160 561 1115 q 532 1234 561 1204 q 463 1264 503 1264 q 387 1234 415 1264 q 358 1160 358 1204 q 387 1085 358 1115 q 463 1056 415 1056 z "},"V":{"ha":919,"x_min":69,"x_max":850,"o":"m 438 0 l 69 939 l 118 939 l 469 40 l 449 40 l 803 939 l 850 939 l 479 0 l 438 0 z "},"W":{"ha":1356,"x_min":71,"x_max":1285,"o":"m 369 0 l 71 939 l 118 939 l 397 42 l 376 42 l 656 939 l 699 939 l 979 42 l 957 42 l 1238 939 l 1285 939 l 986 0 l 947 0 l 668 894 l 686 894 l 408 0 l 369 0 z "},"Ẃ":{"ha":1356,"x_min":71,"x_max":1285,"o":"m 369 0 l 71 939 l 118 939 l 397 42 l 376 42 l 656 939 l 699 939 l 979 42 l 957 42 l 1238 939 l 1285 939 l 986 0 l 947 0 l 668 894 l 686 894 l 408 0 l 369 0 m 582 1046 l 564 1064 l 754 1278 l 792 1240 l 582 1046 z "},"Ŵ":{"ha":1356,"x_min":71,"x_max":1285,"o":"m 369 0 l 71 939 l 118 939 l 397 42 l 376 42 l 656 939 l 699 939 l 979 42 l 957 42 l 1238 939 l 1285 939 l 986 0 l 947 0 l 668 894 l 686 894 l 408 0 l 369 0 m 485 1046 l 467 1064 l 657 1278 l 699 1278 l 889 1064 l 871 1046 l 664 1238 l 692 1238 l 485 1046 z "},"Ẅ":{"ha":1356,"x_min":71,"x_max":1285,"o":"m 369 0 l 71 939 l 118 939 l 397 42 l 376 42 l 656 939 l 699 939 l 979 42 l 957 42 l 1238 939 l 1285 939 l 986 0 l 947 0 l 668 894 l 686 894 l 408 0 l 369 0 m 558 1057 q 528 1071 540 1057 q 515 1103 515 1085 q 528 1135 515 1122 q 558 1147 540 1147 q 591 1135 578 1147 q 604 1103 604 1122 q 591 1071 604 1085 q 558 1057 578 1057 m 794 1057 q 764 1071 776 1057 q 751 1103 751 1085 q 764 1135 751 1122 q 794 1147 776 1147 q 827 1135 814 1147 q 840 1103 840 1122 q 827 1071 840 1085 q 794 1057 814 1057 z "},"Ẁ":{"ha":1356,"x_min":71,"x_max":1285,"o":"m 369 0 l 71 939 l 118 939 l 397 42 l 376 42 l 656 939 l 699 939 l 979 42 l 957 42 l 1238 939 l 1285 939 l 986 0 l 947 0 l 668 894 l 686 894 l 408 0 l 369 0 m 732 1046 l 522 1240 l 560 1278 l 750 1064 l 732 1046 z "},"X":{"ha":932,"x_min":68,"x_max":864,"o":"m 808 0 l 460 465 l 453 465 l 83 939 l 138 939 l 474 504 l 481 504 l 864 0 l 808 0 m 68 0 l 451 489 l 476 460 l 119 0 l 68 0 m 485 464 l 463 496 l 799 939 l 850 939 l 485 464 z "},"Y":{"ha":896,"x_min":67,"x_max":831,"o":"m 446 400 l 67 939 l 121 939 l 456 463 l 442 463 l 781 939 l 831 939 l 449 400 l 446 400 m 426 0 l 426 446 l 471 446 l 471 0 l 426 0 z "},"Ý":{"ha":896,"x_min":67,"x_max":831,"o":"m 446 400 l 67 939 l 121 939 l 456 463 l 442 463 l 781 939 l 831 939 l 449 400 l 446 400 m 426 0 l 426 446 l 471 446 l 471 0 l 426 0 m 353 1046 l 335 1064 l 525 1278 l 563 1240 l 353 1046 z "},"Ŷ":{"ha":896,"x_min":67,"x_max":831,"o":"m 446 400 l 67 939 l 121 939 l 456 463 l 442 463 l 781 939 l 831 939 l 449 400 l 446 400 m 426 0 l 426 446 l 471 446 l 471 0 l 426 0 m 256 1046 l 238 1064 l 428 1278 l 469 1278 l 660 1064 l 642 1046 l 435 1238 l 463 1238 l 256 1046 z "},"Ÿ":{"ha":896,"x_min":67,"x_max":831,"o":"m 446 400 l 67 939 l 121 939 l 456 463 l 442 463 l 781 939 l 831 939 l 449 400 l 446 400 m 426 0 l 426 446 l 471 446 l 471 0 l 426 0 m 329 1057 q 299 1071 311 1057 q 286 1103 286 1085 q 299 1135 286 1122 q 329 1147 311 1147 q 362 1135 349 1147 q 375 1103 375 1122 q 362 1071 375 1085 q 329 1057 349 1057 m 565 1057 q 535 1071 547 1057 q 522 1103 522 1085 q 535 1135 522 1122 q 565 1147 547 1147 q 598 1135 585 1147 q 611 1103 611 1122 q 598 1071 611 1085 q 565 1057 585 1057 z "},"Ỳ":{"ha":896,"x_min":67,"x_max":831,"o":"m 446 400 l 67 939 l 121 939 l 456 463 l 442 463 l 781 939 l 831 939 l 449 400 l 446 400 m 426 0 l 426 446 l 471 446 l 471 0 l 426 0 m 503 1046 l 293 1240 l 331 1278 l 521 1064 l 503 1046 z "},"Z":{"ha":785,"x_min":72,"x_max":711,"o":"m 72 25 l 658 914 l 711 914 l 125 25 l 72 25 m 72 0 l 72 25 l 108 40 l 701 40 l 701 0 l 72 0 m 93 899 l 93 939 l 711 939 l 711 914 l 674 899 l 93 899 z "},"Ź":{"ha":785,"x_min":72,"x_max":711,"o":"m 72 25 l 658 914 l 711 914 l 125 25 l 72 25 m 72 0 l 72 25 l 108 40 l 701 40 l 701 0 l 72 0 m 93 899 l 93 939 l 711 939 l 711 914 l 674 899 l 93 899 m 308 1046 l 290 1064 l 481 1278 l 518 1240 l 308 1046 z "},"Ž":{"ha":785,"x_min":72,"x_max":711,"o":"m 72 25 l 658 914 l 711 914 l 125 25 l 72 25 m 72 0 l 72 25 l 108 40 l 701 40 l 701 0 l 72 0 m 93 899 l 93 939 l 711 939 l 711 914 l 674 899 l 93 899 m 597 1278 l 615 1260 l 425 1046 l 383 1046 l 193 1260 l 211 1278 l 418 1086 l 390 1086 l 597 1278 z "},"Ż":{"ha":785,"x_min":72,"x_max":711,"o":"m 72 25 l 658 914 l 711 914 l 125 25 l 72 25 m 72 0 l 72 25 l 108 40 l 701 40 l 701 0 l 72 0 m 93 899 l 93 939 l 711 939 l 711 914 l 674 899 l 93 899 m 403 1057 q 372 1071 385 1057 q 360 1103 360 1085 q 372 1135 360 1122 q 403 1147 385 1147 q 435 1135 422 1147 q 449 1103 449 1122 q 435 1071 449 1085 q 403 1057 422 1057 z "},"a":{"ha":818,"x_min":69,"x_max":707,"o":"m 399 -14 q 230 30 304 -14 q 113 149 156 74 q 69 318 69 224 q 113 488 69 413 q 229 608 156 564 q 396 653 303 653 q 528 626 469 653 q 627 549 588 599 q 682 429 667 499 l 682 211 q 626 91 665 142 q 528 13 586 40 q 399 -14 471 -14 m 404 26 q 594 106 524 26 q 665 318 665 186 q 633 473 665 407 q 540 576 600 539 q 401 613 481 613 q 253 574 318 613 q 151 470 189 536 q 114 319 114 404 q 151 169 114 235 q 255 65 189 103 q 404 26 321 26 m 664 0 l 664 171 l 676 329 l 664 483 l 664 639 l 707 639 l 707 0 l 664 0 z "},"á":{"ha":818,"x_min":69,"x_max":707,"o":"m 399 -14 q 230 30 304 -14 q 113 149 156 74 q 69 318 69 224 q 113 488 69 413 q 229 608 156 564 q 396 653 303 653 q 528 626 469 653 q 627 549 588 599 q 682 429 667 499 l 682 211 q 626 91 665 142 q 528 13 586 40 q 399 -14 471 -14 m 404 26 q 594 106 524 26 q 665 318 665 186 q 633 473 665 407 q 540 576 600 539 q 401 613 481 613 q 253 574 318 613 q 151 470 189 536 q 114 319 114 404 q 151 169 114 235 q 255 65 189 103 q 404 26 321 26 m 664 0 l 664 171 l 676 329 l 664 483 l 664 639 l 707 639 l 707 0 l 664 0 m 326 746 l 308 764 l 499 978 l 536 940 l 326 746 z "},"ă":{"ha":818,"x_min":69,"x_max":707,"o":"m 399 -14 q 230 30 304 -14 q 113 149 156 74 q 69 318 69 224 q 113 488 69 413 q 229 608 156 564 q 396 653 303 653 q 528 626 469 653 q 627 549 588 599 q 682 429 667 499 l 682 211 q 626 91 665 142 q 528 13 586 40 q 399 -14 471 -14 m 404 26 q 594 106 524 26 q 665 318 665 186 q 633 473 665 407 q 540 576 600 539 q 401 613 481 613 q 253 574 318 613 q 151 470 189 536 q 114 319 114 404 q 151 169 114 235 q 255 65 189 103 q 404 26 321 26 m 664 0 l 664 171 l 676 329 l 664 483 l 664 639 l 707 639 l 707 0 l 664 0 m 633 931 q 606 822 633 871 q 533 746 579 774 q 425 718 486 718 q 314 746 363 718 q 238 822 265 774 q 211 931 211 871 l 251 931 q 299 804 251 854 q 428 754 347 754 q 512 777 474 754 q 572 840 550 800 q 594 931 594 881 l 633 931 z "},"ǎ":{"ha":818,"x_min":69,"x_max":707,"o":"m 399 -14 q 230 30 304 -14 q 113 149 156 74 q 69 318 69 224 q 113 488 69 413 q 229 608 156 564 q 396 653 303 653 q 528 626 469 653 q 627 549 588 599 q 682 429 667 499 l 682 211 q 626 91 665 142 q 528 13 586 40 q 399 -14 471 -14 m 404 26 q 594 106 524 26 q 665 318 665 186 q 633 473 665 407 q 540 576 600 539 q 401 613 481 613 q 253 574 318 613 q 151 470 189 536 q 114 319 114 404 q 151 169 114 235 q 255 65 189 103 q 404 26 321 26 m 664 0 l 664 171 l 676 329 l 664 483 l 664 639 l 707 639 l 707 0 l 664 0 m 615 978 l 633 960 l 443 746 l 401 746 l 211 960 l 229 978 l 436 786 l 408 786 l 615 978 z "},"â":{"ha":818,"x_min":69,"x_max":707,"o":"m 399 -14 q 230 30 304 -14 q 113 149 156 74 q 69 318 69 224 q 113 488 69 413 q 229 608 156 564 q 396 653 303 653 q 528 626 469 653 q 627 549 588 599 q 682 429 667 499 l 682 211 q 626 91 665 142 q 528 13 586 40 q 399 -14 471 -14 m 404 26 q 594 106 524 26 q 665 318 665 186 q 633 473 665 407 q 540 576 600 539 q 401 613 481 613 q 253 574 318 613 q 151 470 189 536 q 114 319 114 404 q 151 169 114 235 q 255 65 189 103 q 404 26 321 26 m 664 0 l 664 171 l 676 329 l 664 483 l 664 639 l 707 639 l 707 0 l 664 0 m 229 746 l 211 764 l 401 978 l 443 978 l 633 764 l 615 746 l 408 938 l 436 938 l 229 746 z "},"ä":{"ha":818,"x_min":69,"x_max":707,"o":"m 399 -14 q 230 30 304 -14 q 113 149 156 74 q 69 318 69 224 q 113 488 69 413 q 229 608 156 564 q 396 653 303 653 q 528 626 469 653 q 627 549 588 599 q 682 429 667 499 l 682 211 q 626 91 665 142 q 528 13 586 40 q 399 -14 471 -14 m 404 26 q 594 106 524 26 q 665 318 665 186 q 633 473 665 407 q 540 576 600 539 q 401 613 481 613 q 253 574 318 613 q 151 470 189 536 q 114 319 114 404 q 151 169 114 235 q 255 65 189 103 q 404 26 321 26 m 664 0 l 664 171 l 676 329 l 664 483 l 664 639 l 707 639 l 707 0 l 664 0 m 303 757 q 272 771 285 757 q 260 803 260 785 q 272 835 260 822 q 303 847 285 847 q 335 835 322 847 q 349 803 349 822 q 335 771 349 785 q 303 757 322 757 m 539 757 q 508 771 521 757 q 496 803 496 785 q 508 835 496 822 q 539 847 521 847 q 572 835 558 847 q 585 803 585 822 q 572 771 585 785 q 539 757 558 757 z "},"à":{"ha":818,"x_min":69,"x_max":707,"o":"m 399 -14 q 230 30 304 -14 q 113 149 156 74 q 69 318 69 224 q 113 488 69 413 q 229 608 156 564 q 396 653 303 653 q 528 626 469 653 q 627 549 588 599 q 682 429 667 499 l 682 211 q 626 91 665 142 q 528 13 586 40 q 399 -14 471 -14 m 404 26 q 594 106 524 26 q 665 318 665 186 q 633 473 665 407 q 540 576 600 539 q 401 613 481 613 q 253 574 318 613 q 151 470 189 536 q 114 319 114 404 q 151 169 114 235 q 255 65 189 103 q 404 26 321 26 m 664 0 l 664 171 l 676 329 l 664 483 l 664 639 l 707 639 l 707 0 l 664 0 m 476 746 l 267 940 l 304 978 l 494 764 l 476 746 z "},"ā":{"ha":818,"x_min":69,"x_max":707,"o":"m 399 -14 q 230 30 304 -14 q 113 149 156 74 q 69 318 69 224 q 113 488 69 413 q 229 608 156 564 q 396 653 303 653 q 528 626 469 653 q 627 549 588 599 q 682 429 667 499 l 682 211 q 626 91 665 142 q 528 13 586 40 q 399 -14 471 -14 m 404 26 q 594 106 524 26 q 665 318 665 186 q 633 473 665 407 q 540 576 600 539 q 401 613 481 613 q 253 574 318 613 q 151 470 189 536 q 114 319 114 404 q 151 169 114 235 q 255 65 189 103 q 404 26 321 26 m 664 0 l 664 171 l 676 329 l 664 483 l 664 639 l 707 639 l 707 0 l 664 0 m 207 821 l 638 821 l 638 783 l 207 783 l 207 821 z "},"ą":{"ha":818,"x_min":69,"x_max":769,"o":"m 399 -14 q 230 30 304 -14 q 113 149 156 74 q 69 318 69 224 q 113 488 69 413 q 229 608 156 564 q 396 653 303 653 q 528 626 469 653 q 627 549 588 599 q 682 429 667 499 l 682 211 q 626 91 665 142 q 528 13 586 40 q 399 -14 471 -14 m 404 26 q 594 106 524 26 q 665 318 665 186 q 633 473 665 407 q 540 576 600 539 q 401 613 481 613 q 253 574 318 613 q 151 470 189 536 q 114 319 114 404 q 151 169 114 235 q 255 65 189 103 q 404 26 321 26 m 664 0 l 664 171 l 676 329 l 664 483 l 664 639 l 707 639 l 707 0 l 664 0 m 682 -286 q 600 -257 633 -286 q 567 -174 567 -228 q 600 -75 567 -129 q 676 21 633 -21 l 707 0 q 631 -88 658 -47 q 604 -174 604 -129 q 626 -235 604 -217 q 685 -254 647 -254 q 719 -249 704 -254 q 753 -232 735 -243 l 769 -256 q 728 -278 750 -271 q 682 -286 706 -286 z "},"å":{"ha":818,"x_min":69,"x_max":707,"o":"m 399 -14 q 230 30 304 -14 q 113 149 156 74 q 69 318 69 224 q 113 488 69 413 q 229 608 156 564 q 396 653 303 653 q 528 626 469 653 q 627 549 588 599 q 682 429 667 499 l 682 211 q 626 91 665 142 q 528 13 586 40 q 399 -14 471 -14 m 404 26 q 594 106 524 26 q 665 318 665 186 q 633 473 665 407 q 540 576 600 539 q 401 613 481 613 q 253 574 318 613 q 151 470 189 536 q 114 319 114 404 q 151 169 114 235 q 255 65 189 103 q 404 26 321 26 m 664 0 l 664 171 l 676 329 l 664 483 l 664 639 l 707 639 l 707 0 l 664 0 m 424 718 q 349 737 382 718 q 299 788 317 756 q 281 860 281 819 q 299 932 281 900 q 349 983 317 964 q 424 1001 382 1001 q 495 983 464 1001 q 544 932 526 964 q 563 860 563 900 q 544 788 563 819 q 495 737 526 756 q 424 718 464 718 m 425 756 q 494 785 465 756 q 524 860 524 815 q 494 934 524 904 q 425 964 465 964 q 349 934 378 964 q 321 860 321 904 q 349 785 321 815 q 425 756 378 756 z "},"ã":{"ha":818,"x_min":69,"x_max":707,"o":"m 399 -14 q 230 30 304 -14 q 113 149 156 74 q 69 318 69 224 q 113 488 69 413 q 229 608 156 564 q 396 653 303 653 q 528 626 469 653 q 627 549 588 599 q 682 429 667 499 l 682 211 q 626 91 665 142 q 528 13 586 40 q 399 -14 471 -14 m 404 26 q 594 106 524 26 q 665 318 665 186 q 633 473 665 407 q 540 576 600 539 q 401 613 481 613 q 253 574 318 613 q 151 470 189 536 q 114 319 114 404 q 151 169 114 235 q 255 65 189 103 q 404 26 321 26 m 664 0 l 664 171 l 676 329 l 664 483 l 664 639 l 707 639 l 707 0 l 664 0 m 525 758 q 453 774 483 758 q 394 803 424 789 q 328 818 365 818 q 268 803 289 818 q 231 764 247 789 l 204 786 q 252 836 224 817 q 328 856 281 856 q 405 841 374 856 q 464 811 436 826 q 525 796 492 796 q 577 810 557 796 q 614 850 597 825 l 640 828 q 593 778 621 797 q 525 758 565 758 z "},"æ":{"ha":1349,"x_min":69,"x_max":1285,"o":"m 1000 -14 q 828 30 904 -14 q 709 149 753 74 q 665 321 665 225 q 708 490 665 415 q 824 609 750 565 q 992 653 899 653 q 1144 615 1078 653 q 1247 508 1210 576 q 1285 351 1285 440 q 1284 334 1285 346 q 1281 304 1283 322 l 696 304 l 696 344 l 1253 344 l 1240 335 q 1215 479 1246 417 q 1127 577 1185 542 q 990 613 1069 613 q 844 576 907 613 q 745 474 781 539 q 710 324 710 410 q 747 168 710 235 q 850 64 783 101 q 1006 26 917 26 q 1128 51 1072 26 q 1224 126 1185 76 l 1253 97 q 1144 16 1210 46 q 1000 -14 1078 -14 m 399 -14 q 230 30 304 -14 q 113 149 156 74 q 69 318 69 224 q 113 488 69 413 q 229 608 156 564 q 396 653 303 653 q 528 626 469 653 q 627 549 588 599 q 682 429 667 499 l 682 211 q 626 91 665 142 q 528 13 586 40 q 399 -14 471 -14 m 404 26 q 594 106 524 26 q 665 318 665 186 q 633 473 665 407 q 540 576 600 539 q 401 613 481 613 q 253 574 318 613 q 151 470 189 536 q 114 319 114 404 q 151 169 114 235 q 255 65 189 103 q 404 26 321 26 m 664 0 l 664 171 l 676 329 l 664 483 l 664 639 l 707 639 l 707 0 l 664 0 z "},"b":{"ha":818,"x_min":111,"x_max":747,"o":"m 429 -14 q 297 14 357 -14 q 194 92 236 42 q 135 211 151 143 l 135 429 q 194 550 151 500 q 299 626 238 600 q 429 653 360 653 q 592 609 521 653 q 706 490 664 565 q 747 318 747 414 q 706 149 747 224 q 593 30 665 74 q 429 -14 521 -14 m 111 0 l 111 967 l 154 967 l 154 483 l 140 329 l 154 171 l 154 0 l 111 0 m 421 26 q 567 64 504 26 q 667 168 631 101 q 703 319 703 235 q 667 472 703 406 q 568 575 631 538 q 425 613 506 613 q 283 575 344 613 q 188 472 222 538 q 153 318 153 406 q 187 167 153 233 q 281 64 221 101 q 421 26 342 26 z "},"c":{"ha":688,"x_min":69,"x_max":636,"o":"m 399 -14 q 231 31 306 -14 q 113 151 157 75 q 69 322 69 228 q 113 490 69 415 q 231 609 157 565 q 399 653 306 653 q 528 627 468 653 q 632 556 589 601 l 603 526 q 513 590 565 567 q 399 613 460 613 q 253 574 318 613 q 151 471 189 536 q 114 322 114 406 q 151 171 114 238 q 253 65 189 104 q 399 26 318 26 q 515 49 461 26 q 607 114 568 72 l 636 85 q 530 12 592 38 q 399 -14 468 -14 z "},"ć":{"ha":688,"x_min":69,"x_max":636,"o":"m 399 -14 q 231 31 306 -14 q 113 151 157 75 q 69 322 69 228 q 113 490 69 415 q 231 609 157 565 q 399 653 306 653 q 528 627 468 653 q 632 556 589 601 l 603 526 q 513 590 565 567 q 399 613 460 613 q 253 574 318 613 q 151 471 189 536 q 114 322 114 406 q 151 171 114 238 q 253 65 189 104 q 399 26 318 26 q 515 49 461 26 q 607 114 568 72 l 636 85 q 530 12 592 38 q 399 -14 468 -14 m 283 746 l 265 764 l 456 978 l 493 940 l 283 746 z "},"č":{"ha":688,"x_min":69,"x_max":636,"o":"m 399 -14 q 231 31 306 -14 q 113 151 157 75 q 69 322 69 228 q 113 490 69 415 q 231 609 157 565 q 399 653 306 653 q 528 627 468 653 q 632 556 589 601 l 603 526 q 513 590 565 567 q 399 613 460 613 q 253 574 318 613 q 151 471 189 536 q 114 322 114 406 q 151 171 114 238 q 253 65 189 104 q 399 26 318 26 q 515 49 461 26 q 607 114 568 72 l 636 85 q 530 12 592 38 q 399 -14 468 -14 m 572 978 l 590 960 l 400 746 l 358 746 l 168 960 l 186 978 l 393 786 l 365 786 l 572 978 z "},"ç":{"ha":688,"x_min":69,"x_max":636,"o":"m 399 -14 q 231 31 306 -14 q 113 151 157 75 q 69 322 69 228 q 113 490 69 415 q 231 609 157 565 q 399 653 306 653 q 528 627 468 653 q 632 556 589 601 l 603 526 q 513 590 565 567 q 399 613 460 613 q 253 574 318 613 q 151 471 189 536 q 114 322 114 406 q 151 171 114 238 q 253 65 189 104 q 399 26 318 26 q 515 49 461 26 q 607 114 568 72 l 636 85 q 530 12 592 38 q 399 -14 468 -14 m 351 -286 q 270 -272 311 -286 q 197 -231 229 -257 l 233 -200 q 286 -233 256 -221 q 351 -244 317 -244 q 435 -225 406 -244 q 465 -171 465 -206 q 433 -117 465 -136 q 339 -99 400 -99 l 311 -99 l 344 11 l 393 11 l 364 -85 l 344 -61 q 470 -90 426 -61 q 514 -172 514 -119 q 472 -256 514 -226 q 351 -286 429 -286 z "},"ċ":{"ha":688,"x_min":69,"x_max":636,"o":"m 399 -14 q 231 31 306 -14 q 113 151 157 75 q 69 322 69 228 q 113 490 69 415 q 231 609 157 565 q 399 653 306 653 q 528 627 468 653 q 632 556 589 601 l 603 526 q 513 590 565 567 q 399 613 460 613 q 253 574 318 613 q 151 471 189 536 q 114 322 114 406 q 151 171 114 238 q 253 65 189 104 q 399 26 318 26 q 515 49 461 26 q 607 114 568 72 l 636 85 q 530 12 592 38 q 399 -14 468 -14 m 378 757 q 347 771 360 757 q 335 803 335 785 q 347 835 335 822 q 378 847 360 847 q 410 835 397 847 q 424 803 424 822 q 410 771 424 785 q 378 757 397 757 z "},"d":{"ha":818,"x_min":71,"x_max":707,"o":"m 389 -14 q 226 30 297 -14 q 113 149 154 74 q 71 318 71 224 q 113 490 71 414 q 226 609 154 565 q 389 653 299 653 q 519 626 458 653 q 624 550 581 600 q 683 429 668 500 l 683 211 q 624 92 667 143 q 522 14 582 42 q 389 -14 461 -14 m 397 26 q 537 64 476 26 q 631 167 597 101 q 665 318 665 233 q 631 472 665 406 q 535 575 596 538 q 393 613 474 613 q 250 575 313 613 q 151 472 188 538 q 115 319 115 406 q 151 168 115 235 q 251 64 188 101 q 397 26 315 26 m 707 0 l 664 0 l 664 171 l 678 329 l 664 483 l 664 967 l 707 967 l 707 0 z "},"ð":{"ha":789,"x_min":79,"x_max":710,"o":"m 396 -14 q 237 28 308 -14 q 122 142 165 71 q 79 300 79 214 q 122 457 79 386 q 234 571 164 528 q 389 614 304 614 q 453 607 422 614 q 514 588 485 600 q 568 557 543 575 l 554 550 l 243 939 l 297 939 l 633 507 q 710 299 710 410 q 668 140 710 211 q 555 28 626 69 q 396 -14 483 -14 m 394 24 q 531 60 469 24 q 629 160 593 97 q 665 300 665 224 q 629 440 665 378 q 531 540 593 503 q 394 576 469 576 q 259 539 321 576 q 160 438 197 501 q 124 300 124 375 q 160 163 124 225 q 259 62 197 100 q 394 24 321 24 m 176 706 l 164 739 l 558 885 l 571 851 l 176 706 z "},"ď":{"ha":1044,"x_min":71,"x_max":918,"o":"m 389 -14 q 226 30 297 -14 q 113 149 154 74 q 71 318 71 224 q 113 490 71 414 q 226 609 154 565 q 389 653 299 653 q 519 626 458 653 q 624 550 581 600 q 683 429 668 500 l 683 211 q 624 92 667 143 q 522 14 582 42 q 389 -14 461 -14 m 397 26 q 537 64 476 26 q 631 167 597 101 q 665 318 665 233 q 631 472 665 406 q 535 575 596 538 q 393 613 474 613 q 250 575 313 613 q 151 472 188 538 q 115 319 115 406 q 151 168 115 235 q 251 64 188 101 q 397 26 315 26 m 707 0 l 664 0 l 664 171 l 678 329 l 664 483 l 664 967 l 707 967 l 707 0 m 840 704 l 807 722 l 871 854 l 890 857 q 879 841 888 847 q 857 835 871 835 q 820 850 836 835 q 804 888 804 865 q 822 928 804 911 q 863 944 839 944 q 901 928 885 944 q 918 888 918 911 q 916 865 918 878 q 903 829 914 851 l 840 704 z "},"đ":{"ha":818,"x_min":71,"x_max":818,"o":"m 403 804 l 403 846 l 818 846 l 818 804 l 403 804 m 389 -14 q 226 30 297 -14 q 113 149 154 74 q 71 318 71 224 q 113 490 71 414 q 226 609 154 565 q 389 653 299 653 q 519 626 458 653 q 624 550 581 600 q 683 429 668 500 l 683 211 q 624 92 667 143 q 522 14 582 42 q 389 -14 461 -14 m 397 26 q 537 64 476 26 q 631 167 597 101 q 665 318 665 233 q 631 472 665 406 q 535 575 596 538 q 393 613 474 613 q 250 575 313 613 q 151 472 188 538 q 115 319 115 406 q 151 168 115 235 q 251 64 188 101 q 397 26 315 26 m 707 0 l 664 0 l 664 171 l 678 329 l 664 483 l 664 967 l 707 967 l 707 0 z "},"e":{"ha":753,"x_min":69,"x_max":689,"o":"m 404 -14 q 233 30 308 -14 q 113 149 157 74 q 69 321 69 225 q 112 490 69 415 q 228 609 154 565 q 396 653 303 653 q 548 615 482 653 q 651 508 614 576 q 689 351 689 440 q 688 334 689 346 q 685 304 688 322 l 100 304 l 100 344 l 657 344 l 644 335 q 619 479 650 417 q 531 577 589 542 q 394 613 474 613 q 248 576 311 613 q 149 474 185 539 q 114 324 114 410 q 151 168 114 235 q 254 64 188 101 q 410 26 321 26 q 533 51 476 26 q 628 126 589 76 l 657 97 q 548 16 614 46 q 404 -14 482 -14 z "},"é":{"ha":753,"x_min":69,"x_max":689,"o":"m 404 -14 q 233 30 308 -14 q 113 149 157 74 q 69 321 69 225 q 112 490 69 415 q 228 609 154 565 q 396 653 303 653 q 548 615 482 653 q 651 508 614 576 q 689 351 689 440 q 688 334 689 346 q 685 304 688 322 l 100 304 l 100 344 l 657 344 l 644 335 q 619 479 650 417 q 531 577 589 542 q 394 613 474 613 q 248 576 311 613 q 149 474 185 539 q 114 324 114 410 q 151 168 114 235 q 254 64 188 101 q 410 26 321 26 q 533 51 476 26 q 628 126 589 76 l 657 97 q 548 16 614 46 q 404 -14 482 -14 m 300 746 l 282 764 l 472 978 l 510 940 l 300 746 z "},"ě":{"ha":753,"x_min":69,"x_max":689,"o":"m 404 -14 q 233 30 308 -14 q 113 149 157 74 q 69 321 69 225 q 112 490 69 415 q 228 609 154 565 q 396 653 303 653 q 548 615 482 653 q 651 508 614 576 q 689 351 689 440 q 688 334 689 346 q 685 304 688 322 l 100 304 l 100 344 l 657 344 l 644 335 q 619 479 650 417 q 531 577 589 542 q 394 613 474 613 q 248 576 311 613 q 149 474 185 539 q 114 324 114 410 q 151 168 114 235 q 254 64 188 101 q 410 26 321 26 q 533 51 476 26 q 628 126 589 76 l 657 97 q 548 16 614 46 q 404 -14 482 -14 m 589 978 l 607 960 l 417 746 l 375 746 l 185 960 l 203 978 l 410 786 l 382 786 l 589 978 z "},"ê":{"ha":753,"x_min":69,"x_max":689,"o":"m 404 -14 q 233 30 308 -14 q 113 149 157 74 q 69 321 69 225 q 112 490 69 415 q 228 609 154 565 q 396 653 303 653 q 548 615 482 653 q 651 508 614 576 q 689 351 689 440 q 688 334 689 346 q 685 304 688 322 l 100 304 l 100 344 l 657 344 l 644 335 q 619 479 650 417 q 531 577 589 542 q 394 613 474 613 q 248 576 311 613 q 149 474 185 539 q 114 324 114 410 q 151 168 114 235 q 254 64 188 101 q 410 26 321 26 q 533 51 476 26 q 628 126 589 76 l 657 97 q 548 16 614 46 q 404 -14 482 -14 m 203 746 l 185 764 l 375 978 l 417 978 l 607 764 l 589 746 l 382 938 l 410 938 l 203 746 z "},"ë":{"ha":753,"x_min":69,"x_max":689,"o":"m 404 -14 q 233 30 308 -14 q 113 149 157 74 q 69 321 69 225 q 112 490 69 415 q 228 609 154 565 q 396 653 303 653 q 548 615 482 653 q 651 508 614 576 q 689 351 689 440 q 688 334 689 346 q 685 304 688 322 l 100 304 l 100 344 l 657 344 l 644 335 q 619 479 650 417 q 531 577 589 542 q 394 613 474 613 q 248 576 311 613 q 149 474 185 539 q 114 324 114 410 q 151 168 114 235 q 254 64 188 101 q 410 26 321 26 q 533 51 476 26 q 628 126 589 76 l 657 97 q 548 16 614 46 q 404 -14 482 -14 m 276 757 q 246 771 258 757 q 233 803 233 785 q 246 835 233 822 q 276 847 258 847 q 309 835 296 847 q 322 803 322 822 q 309 771 322 785 q 276 757 296 757 m 513 757 q 482 771 494 757 q 469 803 469 785 q 482 835 469 822 q 513 847 494 847 q 545 835 532 847 q 558 803 558 822 q 545 771 558 785 q 513 757 532 757 z "},"ė":{"ha":753,"x_min":69,"x_max":689,"o":"m 404 -14 q 233 30 308 -14 q 113 149 157 74 q 69 321 69 225 q 112 490 69 415 q 228 609 154 565 q 396 653 303 653 q 548 615 482 653 q 651 508 614 576 q 689 351 689 440 q 688 334 689 346 q 685 304 688 322 l 100 304 l 100 344 l 657 344 l 644 335 q 619 479 650 417 q 531 577 589 542 q 394 613 474 613 q 248 576 311 613 q 149 474 185 539 q 114 324 114 410 q 151 168 114 235 q 254 64 188 101 q 410 26 321 26 q 533 51 476 26 q 628 126 589 76 l 657 97 q 548 16 614 46 q 404 -14 482 -14 m 394 757 q 364 771 376 757 q 351 803 351 785 q 364 835 351 822 q 394 847 376 847 q 427 835 414 847 q 440 803 440 822 q 427 771 440 785 q 394 757 414 757 z "},"è":{"ha":753,"x_min":69,"x_max":689,"o":"m 404 -14 q 233 30 308 -14 q 113 149 157 74 q 69 321 69 225 q 112 490 69 415 q 228 609 154 565 q 396 653 303 653 q 548 615 482 653 q 651 508 614 576 q 689 351 689 440 q 688 334 689 346 q 685 304 688 322 l 100 304 l 100 344 l 657 344 l 644 335 q 619 479 650 417 q 531 577 589 542 q 394 613 474 613 q 248 576 311 613 q 149 474 185 539 q 114 324 114 410 q 151 168 114 235 q 254 64 188 101 q 410 26 321 26 q 533 51 476 26 q 628 126 589 76 l 657 97 q 548 16 614 46 q 404 -14 482 -14 m 450 746 l 240 940 l 278 978 l 468 764 l 450 746 z "},"ē":{"ha":753,"x_min":69,"x_max":689,"o":"m 404 -14 q 233 30 308 -14 q 113 149 157 74 q 69 321 69 225 q 112 490 69 415 q 228 609 154 565 q 396 653 303 653 q 548 615 482 653 q 651 508 614 576 q 689 351 689 440 q 688 334 689 346 q 685 304 688 322 l 100 304 l 100 344 l 657 344 l 644 335 q 619 479 650 417 q 531 577 589 542 q 394 613 474 613 q 248 576 311 613 q 149 474 185 539 q 114 324 114 410 q 151 168 114 235 q 254 64 188 101 q 410 26 321 26 q 533 51 476 26 q 628 126 589 76 l 657 97 q 548 16 614 46 q 404 -14 482 -14 m 181 821 l 611 821 l 611 783 l 181 783 l 181 821 z "},"ę":{"ha":753,"x_min":69,"x_max":689,"o":"m 404 -14 q 233 30 308 -14 q 113 149 157 74 q 69 321 69 225 q 112 490 69 415 q 228 609 154 565 q 396 653 303 653 q 548 615 482 653 q 651 508 614 576 q 689 351 689 440 q 688 334 689 346 q 685 304 688 322 l 100 304 l 100 344 l 657 344 l 644 335 q 619 479 650 417 q 531 577 589 542 q 394 613 474 613 q 248 576 311 613 q 149 474 185 539 q 114 324 114 410 q 151 168 114 235 q 254 64 188 101 q 410 26 321 26 q 533 51 476 26 q 628 126 589 76 l 657 97 q 548 16 614 46 q 404 -14 482 -14 m 513 -272 q 431 -243 464 -272 q 397 -160 397 -214 q 431 -61 397 -115 q 507 35 464 -7 l 538 14 q 462 -74 489 -33 q 435 -160 435 -115 q 456 -222 435 -203 q 515 -240 478 -240 q 550 -235 535 -240 q 583 -218 565 -229 l 600 -242 q 558 -265 581 -257 q 513 -272 536 -272 z "},"f":{"ha":536,"x_min":43,"x_max":561,"o":"m 213 0 l 213 772 q 238 880 213 833 q 310 953 264 926 q 414 979 356 979 q 496 963 458 979 q 561 918 533 947 l 532 889 q 476 928 506 917 q 413 940 446 940 q 297 893 339 940 q 256 767 256 846 l 256 0 l 213 0 m 43 601 l 43 639 l 492 639 l 492 601 l 43 601 z "},"g":{"ha":818,"x_min":71,"x_max":708,"o":"m 374 -286 q 207 -251 282 -286 q 86 -151 132 -217 l 113 -125 q 218 -212 150 -179 q 375 -246 286 -246 q 587 -173 508 -246 q 665 24 665 -100 l 665 186 l 678 336 l 665 482 l 665 639 l 708 639 l 708 24 q 667 -139 708 -69 q 549 -247 625 -208 q 374 -286 474 -286 m 394 0 q 228 42 301 0 q 113 158 156 85 q 71 326 71 232 q 113 493 71 419 q 227 610 154 567 q 392 653 300 653 q 526 626 465 653 q 627 549 586 599 q 683 429 668 499 l 683 222 q 626 104 667 154 q 526 27 585 54 q 394 0 467 0 m 400 40 q 540 76 479 40 q 633 176 600 111 q 667 326 667 240 q 633 475 667 411 q 538 576 599 539 q 397 613 478 613 q 251 576 315 613 q 151 475 188 539 q 115 328 115 411 q 152 179 115 244 q 253 77 189 114 q 400 40 317 40 z "},"ğ":{"ha":818,"x_min":71,"x_max":708,"o":"m 374 -286 q 207 -251 282 -286 q 86 -151 132 -217 l 113 -125 q 218 -212 150 -179 q 375 -246 286 -246 q 587 -173 508 -246 q 665 24 665 -100 l 665 186 l 678 336 l 665 482 l 665 639 l 708 639 l 708 24 q 667 -139 708 -69 q 549 -247 625 -208 q 374 -286 474 -286 m 394 0 q 228 42 301 0 q 113 158 156 85 q 71 326 71 232 q 113 493 71 419 q 227 610 154 567 q 392 653 300 653 q 526 626 465 653 q 627 549 586 599 q 683 429 668 499 l 683 222 q 626 104 667 154 q 526 27 585 54 q 394 0 467 0 m 400 40 q 540 76 479 40 q 633 176 600 111 q 667 326 667 240 q 633 475 667 411 q 538 576 599 539 q 397 613 478 613 q 251 576 315 613 q 151 475 188 539 q 115 328 115 411 q 152 179 115 244 q 253 77 189 114 q 400 40 317 40 m 633 931 q 606 822 633 871 q 533 746 579 774 q 425 718 486 718 q 314 746 363 718 q 238 822 265 774 q 211 931 211 871 l 251 931 q 299 804 251 854 q 428 754 347 754 q 512 777 474 754 q 572 840 550 800 q 594 931 594 881 l 633 931 z "},"ģ":{"ha":818,"x_min":71,"x_max":708,"o":"m 374 -286 q 207 -251 282 -286 q 86 -151 132 -217 l 113 -125 q 218 -212 150 -179 q 375 -246 286 -246 q 587 -173 508 -246 q 665 24 665 -100 l 665 186 l 678 336 l 665 482 l 665 639 l 708 639 l 708 24 q 667 -139 708 -69 q 549 -247 625 -208 q 374 -286 474 -286 m 394 0 q 228 42 301 0 q 113 158 156 85 q 71 326 71 232 q 113 493 71 419 q 227 610 154 567 q 392 653 300 653 q 526 626 465 653 q 627 549 586 599 q 683 429 668 499 l 683 222 q 626 104 667 154 q 526 27 585 54 q 394 0 467 0 m 400 40 q 540 76 479 40 q 633 176 600 111 q 667 326 667 240 q 633 475 667 411 q 538 576 599 539 q 397 613 478 613 q 251 576 315 613 q 151 475 188 539 q 115 328 115 411 q 152 179 115 244 q 253 77 189 114 q 400 40 317 40 m 458 968 l 394 836 l 375 833 q 386 849 378 843 q 408 856 394 856 q 445 841 429 856 q 461 803 461 826 q 444 763 461 779 q 403 746 426 746 q 364 763 381 746 q 347 803 347 779 q 350 826 347 813 q 363 861 353 839 l 425 986 l 458 968 z "},"ġ":{"ha":818,"x_min":71,"x_max":708,"o":"m 374 -286 q 207 -251 282 -286 q 86 -151 132 -217 l 113 -125 q 218 -212 150 -179 q 375 -246 286 -246 q 587 -173 508 -246 q 665 24 665 -100 l 665 186 l 678 336 l 665 482 l 665 639 l 708 639 l 708 24 q 667 -139 708 -69 q 549 -247 625 -208 q 374 -286 474 -286 m 394 0 q 228 42 301 0 q 113 158 156 85 q 71 326 71 232 q 113 493 71 419 q 227 610 154 567 q 392 653 300 653 q 526 626 465 653 q 627 549 586 599 q 683 429 668 499 l 683 222 q 626 104 667 154 q 526 27 585 54 q 394 0 467 0 m 400 40 q 540 76 479 40 q 633 176 600 111 q 667 326 667 240 q 633 475 667 411 q 538 576 599 539 q 397 613 478 613 q 251 576 315 613 q 151 475 188 539 q 115 328 115 411 q 152 179 115 244 q 253 77 189 114 q 400 40 317 40 m 421 757 q 390 771 403 757 q 378 803 378 785 q 390 835 378 822 q 421 847 403 847 q 453 835 440 847 q 467 803 467 822 q 453 771 467 785 q 421 757 440 757 z "},"h":{"ha":746,"x_min":111,"x_max":649,"o":"m 606 0 l 606 382 q 546 550 606 486 q 386 614 486 614 q 266 584 318 614 q 184 503 214 554 q 154 383 154 451 l 125 400 q 160 529 125 472 q 256 619 196 586 q 393 653 317 653 q 527 618 469 653 q 617 522 585 583 q 649 382 649 461 l 649 0 l 606 0 m 111 0 l 111 967 l 154 967 l 154 0 l 111 0 z "},"ħ":{"ha":746,"x_min":0,"x_max":649,"o":"m 0 804 l 0 846 l 415 846 l 415 804 l 0 804 m 606 0 l 606 382 q 546 550 606 486 q 386 614 486 614 q 266 584 318 614 q 184 503 214 554 q 154 383 154 451 l 125 400 q 160 529 125 472 q 256 619 196 586 q 393 653 317 653 q 527 618 469 653 q 617 522 585 583 q 649 382 649 461 l 649 0 l 606 0 m 111 0 l 111 967 l 154 967 l 154 0 l 111 0 z "},"i":{"ha":267,"x_min":89,"x_max":178,"o":"m 111 0 l 111 639 l 154 639 l 154 0 l 111 0 m 132 799 q 101 813 114 799 q 89 844 89 826 q 101 876 89 864 q 132 889 114 889 q 165 876 151 889 q 178 844 178 864 q 165 813 178 826 q 132 799 151 799 z "},"ı":{"ha":267,"x_min":111,"x_max":156,"o":"m 111 0 l 111 639 l 156 639 l 156 0 l 111 0 z "},"í":{"ha":267,"x_min":19,"x_max":247,"o":"m 111 0 l 111 639 l 156 639 l 156 0 l 111 0 m 38 746 l 19 764 l 210 978 l 247 940 l 38 746 z "},"î":{"ha":267,"x_min":-78,"x_max":344,"o":"m 111 0 l 111 639 l 156 639 l 156 0 l 111 0 m -60 746 l -78 764 l 113 978 l 154 978 l 344 764 l 326 746 l 119 938 l 147 938 l -60 746 z "},"ï":{"ha":267,"x_min":-29,"x_max":296,"o":"m 111 0 l 111 639 l 156 639 l 156 0 l 111 0 m 14 757 q -17 771 -4 757 q -29 803 -29 785 q -17 835 -29 822 q 14 847 -4 847 q 47 835 33 847 q 60 803 60 822 q 47 771 60 785 q 14 757 33 757 m 250 757 q 219 771 232 757 q 207 803 207 785 q 219 835 207 822 q 250 847 232 847 q 283 835 269 847 q 296 803 296 822 q 283 771 296 785 q 250 757 269 757 z "},"ì":{"ha":267,"x_min":-22,"x_max":206,"o":"m 111 0 l 111 639 l 156 639 l 156 0 l 111 0 m 188 746 l -22 940 l 15 978 l 206 764 l 188 746 z "},"ĳ":{"ha":535,"x_min":89,"x_max":446,"o":"m 111 0 l 111 639 l 154 639 l 154 0 l 111 0 m 132 799 q 101 813 114 799 q 89 844 89 826 q 101 876 89 864 q 132 889 114 889 q 165 876 151 889 q 178 844 178 864 q 165 813 178 826 q 132 799 151 799 m 243 -286 q 162 -270 200 -286 q 96 -225 124 -254 l 125 -196 q 181 -235 151 -222 q 244 -247 211 -247 q 341 -214 301 -247 q 381 -107 381 -181 l 381 639 l 424 639 l 424 -106 q 399 -206 424 -165 q 333 -266 374 -246 q 243 -286 292 -286 m 400 799 q 369 813 382 799 q 357 844 357 826 q 369 876 357 864 q 400 889 382 889 q 433 876 419 889 q 446 844 446 864 q 433 813 446 826 q 400 799 419 799 z "},"ī":{"ha":267,"x_min":-29,"x_max":296,"o":"m -29 821 l 296 821 l 296 783 l -29 783 l -29 821 m 111 0 l 111 639 l 156 639 l 156 0 l 111 0 z "},"į":{"ha":267,"x_min":15,"x_max":218,"o":"m 111 0 l 111 639 l 154 639 l 154 0 l 111 0 m 132 799 q 101 813 114 799 q 89 844 89 826 q 101 876 89 864 q 132 889 114 889 q 165 876 151 889 q 178 844 178 864 q 165 813 178 826 q 132 799 151 799 m 131 -286 q 49 -257 82 -286 q 15 -174 15 -228 q 49 -75 15 -129 q 125 21 82 -21 l 156 0 q 80 -88 107 -47 q 53 -174 53 -129 q 74 -235 53 -217 q 133 -254 96 -254 q 168 -249 153 -254 q 201 -232 183 -243 l 218 -256 q 176 -278 199 -271 q 131 -286 154 -286 z "},"j":{"ha":268,"x_min":-171,"x_max":179,"o":"m -24 -286 q -105 -270 -67 -286 q -171 -225 -143 -254 l -142 -196 q -85 -235 -115 -222 q -22 -247 -56 -247 q 74 -214 35 -247 q 114 -107 114 -181 l 114 639 l 157 639 l 157 -106 q 132 -206 157 -165 q 66 -266 107 -246 q -24 -286 25 -286 m 133 799 q 103 813 115 799 q 90 844 90 826 q 103 876 90 864 q 133 889 115 889 q 166 876 153 889 q 179 844 179 864 q 166 813 179 826 q 133 799 153 799 z "},"ȷ":{"ha":268,"x_min":-171,"x_max":157,"o":"m -24 -286 q -105 -270 -67 -286 q -171 -225 -143 -254 l -142 -196 q -85 -235 -115 -222 q -22 -247 -56 -247 q 74 -214 35 -247 q 114 -107 114 -181 l 114 639 l 157 639 l 157 -106 q 132 -206 157 -165 q 66 -266 107 -246 q -24 -286 25 -286 z "},"k":{"ha":635,"x_min":111,"x_max":593,"o":"m 531 0 l 144 329 l 521 639 l 581 639 l 189 318 l 189 342 l 593 0 l 531 0 m 111 0 l 111 967 l 154 967 l 154 0 l 111 0 z "},"ķ":{"ha":635,"x_min":111,"x_max":593,"o":"m 531 0 l 144 329 l 521 639 l 581 639 l 189 318 l 189 342 l 593 0 l 531 0 m 111 0 l 111 967 l 154 967 l 154 0 l 111 0 m 319 -353 l 286 -335 l 350 -203 l 369 -200 q 358 -216 367 -210 q 336 -222 350 -222 q 299 -207 315 -222 q 283 -169 283 -192 q 301 -129 283 -146 q 342 -112 318 -112 q 381 -129 364 -112 q 397 -169 397 -146 q 395 -192 397 -179 q 382 -228 393 -206 l 319 -353 z "},"l":{"ha":265,"x_min":111,"x_max":154,"o":"m 111 0 l 111 967 l 154 967 l 154 0 l 111 0 z "},"ĺ":{"ha":265,"x_min":18,"x_max":246,"o":"m 111 0 l 111 967 l 154 967 l 154 0 l 111 0 m 36 1046 l 18 1064 l 208 1278 l 246 1240 l 36 1046 z "},"ľ":{"ha":457,"x_min":111,"x_max":331,"o":"m 111 0 l 111 967 l 154 967 l 154 0 l 111 0 m 253 704 l 219 722 l 283 854 l 303 857 q 292 841 300 847 q 269 835 283 835 q 233 850 249 835 q 217 888 217 865 q 234 928 217 911 q 275 944 251 944 q 314 928 297 944 q 331 888 331 911 q 328 865 331 878 q 315 829 326 851 l 253 704 z "},"ļ":{"ha":265,"x_min":75,"x_max":189,"o":"m 111 0 l 111 967 l 154 967 l 154 0 l 111 0 m 111 -353 l 78 -335 l 142 -203 l 161 -200 q 150 -216 158 -210 q 128 -222 142 -222 q 91 -207 107 -222 q 75 -169 75 -192 q 92 -129 75 -146 q 133 -112 110 -112 q 172 -129 156 -112 q 189 -169 189 -146 q 187 -192 189 -179 q 174 -228 185 -206 l 111 -353 z "},"ł":{"ha":576,"x_min":111,"x_max":465,"o":"m 111 403 l 465 607 l 465 563 l 111 358 l 111 403 m 267 0 l 267 967 l 310 967 l 310 0 l 267 0 z "},"m":{"ha":1163,"x_min":111,"x_max":1065,"o":"m 111 0 l 111 639 l 154 639 l 154 0 l 111 0 m 567 0 l 567 403 q 511 556 567 497 q 368 614 456 614 q 261 588 310 614 q 183 515 213 561 q 154 406 154 468 l 125 407 q 158 536 125 481 q 247 622 190 592 q 372 653 303 653 q 494 622 440 653 q 578 536 547 592 q 610 406 610 481 l 610 0 l 567 0 m 1022 0 l 1022 403 q 967 556 1022 497 q 824 614 911 614 q 717 588 765 614 q 639 515 668 561 q 610 406 610 468 l 581 407 q 614 537 581 482 q 703 622 647 592 q 828 653 760 653 q 949 622 896 653 q 1034 535 1003 592 q 1065 404 1065 479 l 1065 0 l 1022 0 z "},"n":{"ha":746,"x_min":111,"x_max":649,"o":"m 606 0 l 606 382 q 546 550 606 486 q 386 614 486 614 q 266 584 318 614 q 184 503 214 554 q 154 383 154 451 l 125 400 q 160 529 125 472 q 256 619 196 586 q 393 653 317 653 q 527 618 469 653 q 617 522 585 583 q 649 382 649 461 l 649 0 l 606 0 m 111 0 l 111 639 l 154 639 l 154 0 l 111 0 z "},"ń":{"ha":746,"x_min":111,"x_max":649,"o":"m 606 0 l 606 382 q 546 550 606 486 q 386 614 486 614 q 266 584 318 614 q 184 503 214 554 q 154 383 154 451 l 125 400 q 160 529 125 472 q 256 619 196 586 q 393 653 317 653 q 527 618 469 653 q 617 522 585 583 q 649 382 649 461 l 649 0 l 606 0 m 111 0 l 111 639 l 154 639 l 154 0 l 111 0 m 278 746 l 260 764 l 450 978 l 488 940 l 278 746 z "},"ň":{"ha":746,"x_min":111,"x_max":649,"o":"m 606 0 l 606 382 q 546 550 606 486 q 386 614 486 614 q 266 584 318 614 q 184 503 214 554 q 154 383 154 451 l 125 400 q 160 529 125 472 q 256 619 196 586 q 393 653 317 653 q 527 618 469 653 q 617 522 585 583 q 649 382 649 461 l 649 0 l 606 0 m 111 0 l 111 639 l 154 639 l 154 0 l 111 0 m 567 978 l 585 960 l 394 746 l 353 746 l 163 960 l 181 978 l 388 786 l 360 786 l 567 978 z "},"ņ":{"ha":746,"x_min":111,"x_max":649,"o":"m 606 0 l 606 382 q 546 550 606 486 q 386 614 486 614 q 266 584 318 614 q 184 503 214 554 q 154 383 154 451 l 125 400 q 160 529 125 472 q 256 619 196 586 q 393 653 317 653 q 527 618 469 653 q 617 522 585 583 q 649 382 649 461 l 649 0 l 606 0 m 111 0 l 111 639 l 154 639 l 154 0 l 111 0 m 353 -353 l 319 -335 l 383 -203 l 403 -200 q 392 -216 400 -210 q 369 -222 383 -222 q 333 -207 349 -222 q 317 -169 317 -192 q 334 -129 317 -146 q 375 -112 351 -112 q 414 -129 397 -112 q 431 -169 431 -146 q 428 -192 431 -179 q 415 -228 426 -206 l 353 -353 z "},"ñ":{"ha":746,"x_min":111,"x_max":649,"o":"m 606 0 l 606 382 q 546 550 606 486 q 386 614 486 614 q 266 584 318 614 q 184 503 214 554 q 154 383 154 451 l 125 400 q 160 529 125 472 q 256 619 196 586 q 393 653 317 653 q 527 618 469 653 q 617 522 585 583 q 649 382 649 461 l 649 0 l 606 0 m 111 0 l 111 639 l 154 639 l 154 0 l 111 0 m 476 758 q 405 774 435 758 q 346 803 375 789 q 279 818 317 818 q 219 803 240 818 q 182 764 199 789 l 156 786 q 203 836 175 817 q 279 856 232 856 q 356 841 325 856 q 415 811 388 826 q 476 796 443 796 q 528 810 508 796 q 565 850 549 825 l 592 828 q 544 778 572 797 q 476 758 517 758 z "},"ŋ":{"ha":746,"x_min":111,"x_max":649,"o":"m 468 -286 q 387 -270 425 -286 q 321 -225 349 -254 l 350 -196 q 406 -235 376 -222 q 469 -247 436 -247 q 566 -214 526 -247 q 606 -107 606 -181 l 606 279 l 649 279 l 649 -106 q 624 -206 649 -165 q 558 -266 599 -246 q 468 -286 517 -286 m 606 0 l 606 382 q 546 550 606 486 q 386 614 486 614 q 266 584 318 614 q 184 503 214 554 q 154 383 154 451 l 125 400 q 160 529 125 472 q 256 619 196 586 q 393 653 317 653 q 527 618 469 653 q 617 522 585 583 q 649 382 649 461 l 649 0 l 606 0 m 111 0 l 111 639 l 154 639 l 154 0 l 111 0 z "},"o":{"ha":796,"x_min":69,"x_max":726,"o":"m 399 -14 q 231 31 306 -14 q 113 151 157 75 q 69 322 69 228 q 113 490 69 415 q 231 609 157 565 q 399 653 306 653 q 565 609 490 653 q 683 490 639 565 q 726 322 726 415 q 683 151 726 226 q 565 31 639 75 q 399 -14 490 -14 m 399 26 q 543 65 479 26 q 644 172 607 104 q 682 324 682 239 q 644 471 682 406 q 543 574 607 536 q 399 613 479 613 q 253 574 318 613 q 151 471 189 536 q 114 322 114 406 q 151 171 114 238 q 253 65 189 104 q 399 26 318 26 z "},"ó":{"ha":796,"x_min":69,"x_max":726,"o":"m 399 -14 q 231 31 306 -14 q 113 151 157 75 q 69 322 69 228 q 113 490 69 415 q 231 609 157 565 q 399 653 306 653 q 565 609 490 653 q 683 490 639 565 q 726 322 726 415 q 683 151 726 226 q 565 31 639 75 q 399 -14 490 -14 m 399 26 q 543 65 479 26 q 644 172 607 104 q 682 324 682 239 q 644 471 682 406 q 543 574 607 536 q 399 613 479 613 q 253 574 318 613 q 151 471 189 536 q 114 322 114 406 q 151 171 114 238 q 253 65 189 104 q 399 26 318 26 m 303 746 l 285 764 l 475 978 l 513 940 l 303 746 z "},"ô":{"ha":796,"x_min":69,"x_max":726,"o":"m 399 -14 q 231 31 306 -14 q 113 151 157 75 q 69 322 69 228 q 113 490 69 415 q 231 609 157 565 q 399 653 306 653 q 565 609 490 653 q 683 490 639 565 q 726 322 726 415 q 683 151 726 226 q 565 31 639 75 q 399 -14 490 -14 m 399 26 q 543 65 479 26 q 644 172 607 104 q 682 324 682 239 q 644 471 682 406 q 543 574 607 536 q 399 613 479 613 q 253 574 318 613 q 151 471 189 536 q 114 322 114 406 q 151 171 114 238 q 253 65 189 104 q 399 26 318 26 m 206 746 l 188 764 l 378 978 l 419 978 l 610 764 l 592 746 l 385 938 l 413 938 l 206 746 z "},"ö":{"ha":796,"x_min":69,"x_max":726,"o":"m 399 -14 q 231 31 306 -14 q 113 151 157 75 q 69 322 69 228 q 113 490 69 415 q 231 609 157 565 q 399 653 306 653 q 565 609 490 653 q 683 490 639 565 q 726 322 726 415 q 683 151 726 226 q 565 31 639 75 q 399 -14 490 -14 m 399 26 q 543 65 479 26 q 644 172 607 104 q 682 324 682 239 q 644 471 682 406 q 543 574 607 536 q 399 613 479 613 q 253 574 318 613 q 151 471 189 536 q 114 322 114 406 q 151 171 114 238 q 253 65 189 104 q 399 26 318 26 m 279 757 q 249 771 261 757 q 236 803 236 785 q 249 835 236 822 q 279 847 261 847 q 312 835 299 847 q 325 803 325 822 q 312 771 325 785 q 279 757 299 757 m 515 757 q 485 771 497 757 q 472 803 472 785 q 485 835 472 822 q 515 847 497 847 q 548 835 535 847 q 561 803 561 822 q 548 771 561 785 q 515 757 535 757 z "},"ò":{"ha":796,"x_min":69,"x_max":726,"o":"m 399 -14 q 231 31 306 -14 q 113 151 157 75 q 69 322 69 228 q 113 490 69 415 q 231 609 157 565 q 399 653 306 653 q 565 609 490 653 q 683 490 639 565 q 726 322 726 415 q 683 151 726 226 q 565 31 639 75 q 399 -14 490 -14 m 399 26 q 543 65 479 26 q 644 172 607 104 q 682 324 682 239 q 644 471 682 406 q 543 574 607 536 q 399 613 479 613 q 253 574 318 613 q 151 471 189 536 q 114 322 114 406 q 151 171 114 238 q 253 65 189 104 q 399 26 318 26 m 453 746 l 243 940 l 281 978 l 471 764 l 453 746 z "},"ő":{"ha":796,"x_min":69,"x_max":726,"o":"m 399 -14 q 231 31 306 -14 q 113 151 157 75 q 69 322 69 228 q 113 490 69 415 q 231 609 157 565 q 399 653 306 653 q 565 609 490 653 q 683 490 639 565 q 726 322 726 415 q 683 151 726 226 q 565 31 639 75 q 399 -14 490 -14 m 399 26 q 543 65 479 26 q 644 172 607 104 q 682 324 682 239 q 644 471 682 406 q 543 574 607 536 q 399 613 479 613 q 253 574 318 613 q 151 471 189 536 q 114 322 114 406 q 151 171 114 238 q 253 65 189 104 q 399 26 318 26 m 272 717 l 249 725 l 331 1000 l 381 982 l 272 717 m 432 717 l 408 725 l 490 1000 l 540 982 l 432 717 z "},"ō":{"ha":796,"x_min":69,"x_max":726,"o":"m 399 -14 q 231 31 306 -14 q 113 151 157 75 q 69 322 69 228 q 113 490 69 415 q 231 609 157 565 q 399 653 306 653 q 565 609 490 653 q 683 490 639 565 q 726 322 726 415 q 683 151 726 226 q 565 31 639 75 q 399 -14 490 -14 m 399 26 q 543 65 479 26 q 644 172 607 104 q 682 324 682 239 q 644 471 682 406 q 543 574 607 536 q 399 613 479 613 q 253 574 318 613 q 151 471 189 536 q 114 322 114 406 q 151 171 114 238 q 253 65 189 104 q 399 26 318 26 m 183 821 l 614 821 l 614 783 l 183 783 l 183 821 z "},"ø":{"ha":796,"x_min":61,"x_max":736,"o":"m 89 -18 l 61 10 l 708 657 l 736 629 l 89 -18 m 399 -14 q 231 31 306 -14 q 113 151 157 75 q 69 322 69 228 q 113 490 69 415 q 231 609 157 565 q 399 653 306 653 q 565 609 490 653 q 683 490 639 565 q 726 322 726 415 q 683 151 726 226 q 565 31 639 75 q 399 -14 490 -14 m 399 26 q 543 65 479 26 q 644 172 607 104 q 682 324 682 239 q 644 471 682 406 q 543 574 607 536 q 399 613 479 613 q 253 574 318 613 q 151 471 189 536 q 114 322 114 406 q 151 171 114 238 q 253 65 189 104 q 399 26 318 26 z "},"õ":{"ha":796,"x_min":69,"x_max":726,"o":"m 399 -14 q 231 31 306 -14 q 113 151 157 75 q 69 322 69 228 q 113 490 69 415 q 231 609 157 565 q 399 653 306 653 q 565 609 490 653 q 683 490 639 565 q 726 322 726 415 q 683 151 726 226 q 565 31 639 75 q 399 -14 490 -14 m 399 26 q 543 65 479 26 q 644 172 607 104 q 682 324 682 239 q 644 471 682 406 q 543 574 607 536 q 399 613 479 613 q 253 574 318 613 q 151 471 189 536 q 114 322 114 406 q 151 171 114 238 q 253 65 189 104 q 399 26 318 26 m 501 758 q 430 774 460 758 q 371 803 400 789 q 304 818 342 818 q 244 803 265 818 q 207 764 224 789 l 181 786 q 228 836 200 817 q 304 856 257 856 q 381 841 350 856 q 440 811 413 826 q 501 796 468 796 q 553 810 533 796 q 590 850 574 825 l 617 828 q 569 778 597 797 q 501 758 542 758 z "},"œ":{"ha":1365,"x_min":69,"x_max":1301,"o":"m 399 -14 q 231 31 306 -14 q 113 151 157 75 q 69 322 69 228 q 113 490 69 415 q 231 609 157 565 q 399 653 306 653 q 565 609 490 653 q 683 490 639 565 q 726 322 726 415 q 683 151 726 226 q 565 31 639 75 q 399 -14 490 -14 m 399 26 q 543 65 479 26 q 644 172 607 104 q 682 324 682 239 q 644 471 682 406 q 543 574 607 536 q 399 613 479 613 q 253 574 318 613 q 151 471 189 536 q 114 322 114 406 q 151 171 114 238 q 253 65 189 104 q 399 26 318 26 m 1017 -14 q 845 30 921 -14 q 726 149 769 74 q 682 321 682 225 q 724 490 682 415 q 841 609 767 565 q 1008 653 915 653 q 1160 615 1094 653 q 1264 508 1226 576 q 1301 351 1301 440 q 1301 334 1301 346 q 1297 304 1300 322 l 713 304 l 713 344 l 1269 344 l 1257 335 q 1232 479 1263 417 q 1144 577 1201 542 q 1007 613 1086 613 q 860 576 924 613 q 762 474 797 539 q 726 324 726 410 q 763 168 726 235 q 867 64 800 101 q 1022 26 933 26 q 1145 51 1089 26 q 1240 126 1201 76 l 1269 97 q 1160 16 1226 46 q 1017 -14 1094 -14 z "},"p":{"ha":818,"x_min":111,"x_max":747,"o":"m 429 -14 q 297 14 357 -14 q 194 92 236 42 q 135 211 151 143 l 135 429 q 194 550 151 500 q 299 626 238 600 q 429 653 360 653 q 592 609 521 653 q 706 490 664 565 q 747 318 747 414 q 706 149 747 224 q 593 30 665 74 q 429 -14 521 -14 m 111 -272 l 111 639 l 154 639 l 154 483 l 140 329 l 154 171 l 154 -272 l 111 -272 m 421 26 q 567 64 504 26 q 667 168 631 101 q 703 319 703 235 q 667 472 703 406 q 568 575 631 538 q 425 613 506 613 q 283 575 344 613 q 188 472 222 538 q 153 318 153 406 q 187 167 153 233 q 281 64 221 101 q 421 26 342 26 z "},"þ":{"ha":818,"x_min":111,"x_max":747,"o":"m 429 -14 q 297 14 357 -14 q 194 92 236 42 q 135 211 151 143 l 135 429 q 194 550 151 500 q 299 626 238 600 q 429 653 360 653 q 592 609 521 653 q 706 490 664 565 q 747 318 747 414 q 706 149 747 224 q 593 30 665 74 q 429 -14 521 -14 m 111 -272 l 111 967 l 154 967 l 154 483 l 140 329 l 154 171 l 154 -272 l 111 -272 m 421 26 q 568 64 504 26 q 668 168 632 101 q 704 319 704 235 q 668 472 704 406 q 569 575 632 538 q 425 613 506 613 q 283 575 344 613 q 188 472 222 538 q 153 318 153 406 q 187 167 153 233 q 281 64 221 101 q 421 26 342 26 z "},"q":{"ha":819,"x_min":71,"x_max":708,"o":"m 400 -14 q 231 30 306 -14 q 114 149 157 74 q 71 318 71 224 q 114 488 71 413 q 231 608 157 564 q 397 653 304 653 q 530 626 471 653 q 628 549 589 599 q 683 429 668 499 l 683 211 q 627 91 667 142 q 530 13 588 40 q 400 -14 472 -14 m 406 26 q 596 106 525 26 q 667 318 667 186 q 634 473 667 407 q 542 576 601 539 q 403 613 482 613 q 255 574 319 613 q 153 470 190 536 q 115 319 115 404 q 153 169 115 235 q 256 65 190 103 q 406 26 322 26 m 665 -272 l 665 171 l 678 329 l 665 483 l 665 639 l 708 639 l 708 -272 l 665 -272 z "},"r":{"ha":558,"x_min":111,"x_max":515,"o":"m 111 0 l 111 639 l 154 639 l 154 0 l 111 0 m 154 390 l 125 399 q 190 587 125 521 q 351 653 254 653 q 440 636 399 653 q 515 583 481 619 l 486 551 q 423 597 457 583 q 344 611 389 611 q 207 553 260 611 q 154 390 154 496 z "},"ŕ":{"ha":558,"x_min":111,"x_max":515,"o":"m 111 0 l 111 639 l 154 639 l 154 0 l 111 0 m 154 390 l 125 399 q 190 587 125 521 q 351 653 254 653 q 440 636 399 653 q 515 583 481 619 l 486 551 q 423 597 457 583 q 344 611 389 611 q 207 553 260 611 q 154 390 154 496 m 185 746 l 167 764 l 357 978 l 394 940 l 185 746 z "},"ř":{"ha":558,"x_min":69,"x_max":515,"o":"m 111 0 l 111 639 l 154 639 l 154 0 l 111 0 m 154 390 l 125 399 q 190 587 125 521 q 351 653 254 653 q 440 636 399 653 q 515 583 481 619 l 486 551 q 423 597 457 583 q 344 611 389 611 q 207 553 260 611 q 154 390 154 496 m 474 978 l 492 960 l 301 746 l 260 746 l 69 960 l 88 978 l 294 786 l 267 786 l 474 978 z "},"ŗ":{"ha":558,"x_min":75,"x_max":515,"o":"m 111 0 l 111 639 l 154 639 l 154 0 l 111 0 m 154 390 l 125 399 q 190 587 125 521 q 351 653 254 653 q 440 636 399 653 q 515 583 481 619 l 486 551 q 423 597 457 583 q 344 611 389 611 q 207 553 260 611 q 154 390 154 496 m 111 -353 l 78 -335 l 142 -203 l 161 -200 q 150 -216 158 -210 q 128 -222 142 -222 q 91 -207 107 -222 q 75 -169 75 -192 q 92 -129 75 -146 q 133 -112 110 -112 q 172 -129 156 -112 q 189 -169 189 -146 q 187 -192 189 -179 q 174 -228 185 -206 l 111 -353 z "},"s":{"ha":579,"x_min":53,"x_max":511,"o":"m 294 -14 q 198 1 243 -14 q 117 41 153 15 q 53 100 81 67 l 82 131 q 178 51 124 76 q 296 25 232 25 q 422 59 375 25 q 469 153 469 93 q 442 236 469 206 q 372 283 415 267 q 281 314 329 300 q 190 347 233 328 q 120 399 147 365 q 93 492 93 433 q 118 575 93 539 q 189 632 143 611 q 297 653 235 653 q 422 628 365 653 q 511 558 479 604 l 482 529 q 404 591 454 568 q 293 614 354 614 q 175 579 215 614 q 135 493 135 544 q 162 417 135 444 q 232 374 189 389 q 323 345 275 358 q 414 312 371 332 q 484 256 457 292 q 511 158 511 221 q 452 33 511 79 q 294 -14 393 -14 z "},"ś":{"ha":579,"x_min":53,"x_max":511,"o":"m 294 -14 q 198 1 243 -14 q 117 41 153 15 q 53 100 81 67 l 82 131 q 178 51 124 76 q 296 25 232 25 q 422 59 375 25 q 469 153 469 93 q 442 236 469 206 q 372 283 415 267 q 281 314 329 300 q 190 347 233 328 q 120 399 147 365 q 93 492 93 433 q 118 575 93 539 q 189 632 143 611 q 297 653 235 653 q 422 628 365 653 q 511 558 479 604 l 482 529 q 404 591 454 568 q 293 614 354 614 q 175 579 215 614 q 135 493 135 544 q 162 417 135 444 q 232 374 189 389 q 323 345 275 358 q 414 312 371 332 q 484 256 457 292 q 511 158 511 221 q 452 33 511 79 q 294 -14 393 -14 m 201 746 l 183 764 l 374 978 l 411 940 l 201 746 z "},"š":{"ha":579,"x_min":53,"x_max":511,"o":"m 294 -14 q 198 1 243 -14 q 117 41 153 15 q 53 100 81 67 l 82 131 q 178 51 124 76 q 296 25 232 25 q 422 59 375 25 q 469 153 469 93 q 442 236 469 206 q 372 283 415 267 q 281 314 329 300 q 190 347 233 328 q 120 399 147 365 q 93 492 93 433 q 118 575 93 539 q 189 632 143 611 q 297 653 235 653 q 422 628 365 653 q 511 558 479 604 l 482 529 q 404 591 454 568 q 293 614 354 614 q 175 579 215 614 q 135 493 135 544 q 162 417 135 444 q 232 374 189 389 q 323 345 275 358 q 414 312 371 332 q 484 256 457 292 q 511 158 511 221 q 452 33 511 79 q 294 -14 393 -14 m 490 978 l 508 960 l 318 746 l 276 746 l 86 960 l 104 978 l 311 786 l 283 786 l 490 978 z "},"ş":{"ha":579,"x_min":53,"x_max":511,"o":"m 294 -14 q 198 1 243 -14 q 117 41 153 15 q 53 100 81 67 l 82 131 q 178 51 124 76 q 296 25 232 25 q 422 59 375 25 q 469 153 469 93 q 442 236 469 206 q 372 283 415 267 q 281 314 329 300 q 190 347 233 328 q 120 399 147 365 q 93 492 93 433 q 118 575 93 539 q 189 632 143 611 q 297 653 235 653 q 422 628 365 653 q 511 558 479 604 l 482 529 q 404 591 454 568 q 293 614 354 614 q 175 579 215 614 q 135 493 135 544 q 162 417 135 444 q 232 374 189 389 q 323 345 275 358 q 414 312 371 332 q 484 256 457 292 q 511 158 511 221 q 452 33 511 79 q 294 -14 393 -14 m 283 -286 q 202 -272 243 -286 q 129 -231 161 -257 l 165 -200 q 218 -233 188 -221 q 283 -244 249 -244 q 367 -225 338 -244 q 397 -171 397 -206 q 365 -117 397 -136 q 271 -99 332 -99 l 243 -99 l 276 11 l 325 11 l 296 -85 l 276 -61 q 402 -90 358 -61 q 446 -172 446 -119 q 403 -256 446 -226 q 283 -286 361 -286 z "},"ș":{"ha":579,"x_min":53,"x_max":511,"o":"m 294 -14 q 198 1 243 -14 q 117 41 153 15 q 53 100 81 67 l 82 131 q 178 51 124 76 q 296 25 232 25 q 422 59 375 25 q 469 153 469 93 q 442 236 469 206 q 372 283 415 267 q 281 314 329 300 q 190 347 233 328 q 120 399 147 365 q 93 492 93 433 q 118 575 93 539 q 189 632 143 611 q 297 653 235 653 q 422 628 365 653 q 511 558 479 604 l 482 529 q 404 591 454 568 q 293 614 354 614 q 175 579 215 614 q 135 493 135 544 q 162 417 135 444 q 232 374 189 389 q 323 345 275 358 q 414 312 371 332 q 484 256 457 292 q 511 158 511 221 q 452 33 511 79 q 294 -14 393 -14 m 276 -353 l 243 -335 l 307 -203 l 326 -200 q 315 -216 324 -210 q 293 -222 307 -222 q 256 -207 272 -222 q 240 -169 240 -192 q 258 -129 240 -146 q 299 -112 275 -112 q 338 -129 321 -112 q 354 -169 354 -146 q 352 -192 354 -179 q 339 -228 350 -206 l 276 -353 z "},"ß":{"ha":775,"x_min":111,"x_max":708,"o":"m 429 -14 q 319 7 374 -14 q 225 68 264 28 l 256 97 q 335 44 288 63 q 429 26 382 26 q 559 58 507 26 q 638 144 611 90 q 664 264 664 199 q 634 384 664 331 q 549 469 604 438 q 417 501 493 501 l 332 501 l 332 539 l 372 539 q 481 569 436 539 q 549 647 525 599 q 574 747 574 694 q 549 844 574 800 q 478 916 525 889 q 365 943 432 943 q 214 885 272 943 q 156 733 156 828 l 156 0 l 111 0 l 111 733 q 144 863 111 807 q 233 949 176 918 q 365 981 290 981 q 502 949 446 981 q 588 865 558 918 q 618 747 618 813 q 567 597 618 661 q 426 518 515 533 l 425 531 q 575 497 511 531 q 674 402 639 463 q 708 264 708 342 q 690 156 708 206 q 637 67 672 106 q 549 8 601 29 q 429 -14 497 -14 z "},"t":{"ha":467,"x_min":43,"x_max":424,"o":"m 213 0 l 213 911 l 256 911 l 256 0 l 213 0 m 43 601 l 43 639 l 424 639 l 424 601 l 43 601 z "},"ť":{"ha":550,"x_min":43,"x_max":424,"o":"m 213 0 l 213 911 l 256 911 l 256 0 l 213 0 m 43 601 l 43 639 l 424 639 l 424 601 l 43 601 m 329 688 l 296 706 l 360 838 l 379 840 q 368 824 376 831 q 346 818 360 818 q 309 833 325 818 q 293 871 293 849 q 310 911 293 894 q 351 928 328 928 q 390 911 374 928 q 407 871 407 894 q 405 848 407 861 q 392 813 403 835 l 329 688 z "},"ț":{"ha":467,"x_min":43,"x_max":424,"o":"m 213 0 l 213 911 l 256 911 l 256 0 l 213 0 m 43 601 l 43 639 l 424 639 l 424 601 l 43 601 m 214 -353 l 181 -335 l 244 -203 l 264 -200 q 253 -216 261 -210 q 231 -222 244 -222 q 194 -207 210 -222 q 178 -169 178 -192 q 195 -129 178 -146 q 236 -112 213 -112 q 275 -129 258 -112 q 292 -169 292 -146 q 290 -192 292 -179 q 276 -228 288 -206 l 214 -353 z "},"u":{"ha":711,"x_min":96,"x_max":615,"o":"m 356 -14 q 222 22 281 -14 q 129 120 163 57 q 96 267 96 183 l 96 639 l 139 639 l 139 268 q 166 142 139 197 q 242 56 193 88 q 356 25 292 25 q 513 93 453 25 q 572 268 572 161 l 572 639 l 615 639 l 615 267 q 582 121 615 185 q 490 22 549 57 q 356 -14 432 -14 z "},"ú":{"ha":711,"x_min":96,"x_max":615,"o":"m 356 -14 q 222 22 281 -14 q 129 120 163 57 q 96 267 96 183 l 96 639 l 139 639 l 139 268 q 166 142 139 197 q 242 56 193 88 q 356 25 292 25 q 513 93 453 25 q 572 268 572 161 l 572 639 l 615 639 l 615 267 q 582 121 615 185 q 490 22 549 57 q 356 -14 432 -14 m 260 746 l 242 764 l 432 978 l 469 940 l 260 746 z "},"ŭ":{"ha":711,"x_min":96,"x_max":615,"o":"m 356 -14 q 222 22 281 -14 q 129 120 163 57 q 96 267 96 183 l 96 639 l 139 639 l 139 268 q 166 142 139 197 q 242 56 193 88 q 356 25 292 25 q 513 93 453 25 q 572 268 572 161 l 572 639 l 615 639 l 615 267 q 582 121 615 185 q 490 22 549 57 q 356 -14 432 -14 m 567 931 q 540 822 567 871 q 466 746 513 774 q 358 718 419 718 q 247 746 296 718 q 172 822 199 774 q 144 931 144 871 l 185 931 q 233 804 185 854 q 361 754 281 754 q 445 777 407 754 q 506 840 483 800 q 528 931 528 881 l 567 931 z "},"û":{"ha":711,"x_min":96,"x_max":615,"o":"m 356 -14 q 222 22 281 -14 q 129 120 163 57 q 96 267 96 183 l 96 639 l 139 639 l 139 268 q 166 142 139 197 q 242 56 193 88 q 356 25 292 25 q 513 93 453 25 q 572 268 572 161 l 572 639 l 615 639 l 615 267 q 582 121 615 185 q 490 22 549 57 q 356 -14 432 -14 m 163 746 l 144 764 l 335 978 l 376 978 l 567 764 l 549 746 l 342 938 l 369 938 l 163 746 z "},"ü":{"ha":711,"x_min":96,"x_max":615,"o":"m 356 -14 q 222 22 281 -14 q 129 120 163 57 q 96 267 96 183 l 96 639 l 139 639 l 139 268 q 166 142 139 197 q 242 56 193 88 q 356 25 292 25 q 513 93 453 25 q 572 268 572 161 l 572 639 l 615 639 l 615 267 q 582 121 615 185 q 490 22 549 57 q 356 -14 432 -14 m 236 757 q 206 771 218 757 q 193 803 193 785 q 206 835 193 822 q 236 847 218 847 q 269 835 256 847 q 282 803 282 822 q 269 771 282 785 q 236 757 256 757 m 472 757 q 442 771 454 757 q 429 803 429 785 q 442 835 429 822 q 472 847 454 847 q 505 835 492 847 q 518 803 518 822 q 505 771 518 785 q 472 757 492 757 z "},"ù":{"ha":711,"x_min":96,"x_max":615,"o":"m 356 -14 q 222 22 281 -14 q 129 120 163 57 q 96 267 96 183 l 96 639 l 139 639 l 139 268 q 166 142 139 197 q 242 56 193 88 q 356 25 292 25 q 513 93 453 25 q 572 268 572 161 l 572 639 l 615 639 l 615 267 q 582 121 615 185 q 490 22 549 57 q 356 -14 432 -14 m 410 746 l 200 940 l 238 978 l 428 764 l 410 746 z "},"ű":{"ha":711,"x_min":96,"x_max":615,"o":"m 356 -14 q 222 22 281 -14 q 129 120 163 57 q 96 267 96 183 l 96 639 l 139 639 l 139 268 q 166 142 139 197 q 242 56 193 88 q 356 25 292 25 q 513 93 453 25 q 572 268 572 161 l 572 639 l 615 639 l 615 267 q 582 121 615 185 q 490 22 549 57 q 356 -14 432 -14 m 229 717 l 206 725 l 288 1000 l 338 982 l 229 717 m 389 717 l 365 725 l 447 1000 l 497 982 l 389 717 z "},"ū":{"ha":711,"x_min":96,"x_max":615,"o":"m 356 -14 q 222 22 281 -14 q 129 120 163 57 q 96 267 96 183 l 96 639 l 139 639 l 139 268 q 166 142 139 197 q 242 56 193 88 q 356 25 292 25 q 513 93 453 25 q 572 268 572 161 l 572 639 l 615 639 l 615 267 q 582 121 615 185 q 490 22 549 57 q 356 -14 432 -14 m 140 821 l 571 821 l 571 783 l 140 783 l 140 821 z "},"ų":{"ha":711,"x_min":96,"x_max":615,"o":"m 356 -14 q 222 22 281 -14 q 129 120 163 57 q 96 267 96 183 l 96 639 l 139 639 l 139 268 q 166 142 139 197 q 242 56 193 88 q 356 25 292 25 q 513 93 453 25 q 572 268 572 161 l 572 639 l 615 639 l 615 267 q 582 121 615 185 q 490 22 549 57 q 356 -14 432 -14 m 450 -272 q 368 -243 401 -272 q 335 -160 335 -214 q 368 -61 335 -115 q 444 35 401 -7 l 475 14 q 399 -74 426 -33 q 372 -160 372 -115 q 394 -222 372 -203 q 453 -240 415 -240 q 488 -235 472 -240 q 521 -218 503 -229 l 538 -242 q 496 -265 518 -257 q 450 -272 474 -272 z "},"ů":{"ha":711,"x_min":96,"x_max":615,"o":"m 356 -14 q 222 22 281 -14 q 129 120 163 57 q 96 267 96 183 l 96 639 l 139 639 l 139 268 q 166 142 139 197 q 242 56 193 88 q 356 25 292 25 q 513 93 453 25 q 572 268 572 161 l 572 639 l 615 639 l 615 267 q 582 121 615 185 q 490 22 549 57 q 356 -14 432 -14 m 357 718 q 283 737 315 718 q 232 788 250 756 q 214 860 214 819 q 232 932 214 900 q 283 983 250 964 q 357 1001 315 1001 q 428 983 397 1001 q 478 932 460 964 q 496 860 496 900 q 478 788 496 819 q 428 737 460 756 q 357 718 397 718 m 358 756 q 428 785 399 756 q 457 860 457 815 q 428 934 457 904 q 358 964 399 964 q 283 934 311 964 q 254 860 254 904 q 283 785 254 815 q 358 756 311 756 z "},"v":{"ha":714,"x_min":43,"x_max":671,"o":"m 343 0 l 43 639 l 90 639 l 368 39 l 344 39 l 624 639 l 671 639 l 368 0 l 343 0 z "},"w":{"ha":1025,"x_min":46,"x_max":979,"o":"m 282 0 l 46 639 l 92 639 l 307 39 l 282 39 l 500 639 l 525 639 l 743 39 l 718 39 l 933 639 l 979 639 l 743 0 l 717 0 l 496 608 l 529 608 l 308 0 l 282 0 z "},"ẃ":{"ha":1025,"x_min":46,"x_max":979,"o":"m 282 0 l 46 639 l 92 639 l 307 39 l 282 39 l 500 639 l 525 639 l 743 39 l 718 39 l 933 639 l 979 639 l 743 0 l 717 0 l 496 608 l 529 608 l 308 0 l 282 0 m 417 746 l 399 764 l 589 978 l 626 940 l 417 746 z "},"ŵ":{"ha":1025,"x_min":46,"x_max":979,"o":"m 282 0 l 46 639 l 92 639 l 307 39 l 282 39 l 500 639 l 525 639 l 743 39 l 718 39 l 933 639 l 979 639 l 743 0 l 717 0 l 496 608 l 529 608 l 308 0 l 282 0 m 319 746 l 301 764 l 492 978 l 533 978 l 724 764 l 706 746 l 499 938 l 526 938 l 319 746 z "},"ẅ":{"ha":1025,"x_min":46,"x_max":979,"o":"m 282 0 l 46 639 l 92 639 l 307 39 l 282 39 l 500 639 l 525 639 l 743 39 l 718 39 l 933 639 l 979 639 l 743 0 l 717 0 l 496 608 l 529 608 l 308 0 l 282 0 m 393 757 q 363 771 375 757 q 350 803 350 785 q 363 835 350 822 q 393 847 375 847 q 426 835 413 847 q 439 803 439 822 q 426 771 439 785 q 393 757 413 757 m 629 757 q 599 771 611 757 q 586 803 586 785 q 599 835 586 822 q 629 847 611 847 q 662 835 649 847 q 675 803 675 822 q 662 771 675 785 q 629 757 649 757 z "},"ẁ":{"ha":1025,"x_min":46,"x_max":979,"o":"m 282 0 l 46 639 l 92 639 l 307 39 l 282 39 l 500 639 l 525 639 l 743 39 l 718 39 l 933 639 l 979 639 l 743 0 l 717 0 l 496 608 l 529 608 l 308 0 l 282 0 m 567 746 l 357 940 l 394 978 l 585 764 l 567 746 z "},"x":{"ha":678,"x_min":43,"x_max":635,"o":"m 579 0 l 333 311 l 321 321 l 54 639 l 110 639 l 346 351 l 358 343 l 635 0 l 579 0 m 43 0 l 324 343 l 343 308 l 97 0 l 43 0 m 357 321 l 338 353 l 569 639 l 624 639 l 357 321 z "},"y":{"ha":697,"x_min":44,"x_max":653,"o":"m 333 0 l 44 639 l 92 639 l 358 39 l 326 39 l 606 639 l 653 639 l 350 0 l 333 0 m 175 -272 l 328 42 l 350 0 l 221 -272 l 175 -272 z "},"ý":{"ha":697,"x_min":44,"x_max":653,"o":"m 333 0 l 44 639 l 92 639 l 358 39 l 326 39 l 606 639 l 653 639 l 350 0 l 333 0 m 175 -272 l 328 42 l 350 0 l 221 -272 l 175 -272 m 253 746 l 235 764 l 425 978 l 463 940 l 253 746 z "},"ŷ":{"ha":697,"x_min":44,"x_max":653,"o":"m 333 0 l 44 639 l 92 639 l 358 39 l 326 39 l 606 639 l 653 639 l 350 0 l 333 0 m 175 -272 l 328 42 l 350 0 l 221 -272 l 175 -272 m 156 746 l 138 764 l 328 978 l 369 978 l 560 764 l 542 746 l 335 938 l 363 938 l 156 746 z "},"ÿ":{"ha":697,"x_min":44,"x_max":653,"o":"m 333 0 l 44 639 l 92 639 l 358 39 l 326 39 l 606 639 l 653 639 l 350 0 l 333 0 m 175 -272 l 328 42 l 350 0 l 221 -272 l 175 -272 m 229 757 q 199 771 211 757 q 186 803 186 785 q 199 835 186 822 q 229 847 211 847 q 262 835 249 847 q 275 803 275 822 q 262 771 275 785 q 229 757 249 757 m 465 757 q 435 771 447 757 q 422 803 422 785 q 435 835 422 822 q 465 847 447 847 q 498 835 485 847 q 511 803 511 822 q 498 771 511 785 q 465 757 485 757 z "},"ỳ":{"ha":697,"x_min":44,"x_max":653,"o":"m 333 0 l 44 639 l 92 639 l 358 39 l 326 39 l 606 639 l 653 639 l 350 0 l 333 0 m 175 -272 l 328 42 l 350 0 l 221 -272 l 175 -272 m 403 746 l 193 940 l 231 978 l 421 764 l 403 746 z "},"z":{"ha":601,"x_min":49,"x_max":551,"o":"m 49 24 l 500 615 l 551 615 l 100 24 l 49 24 m 49 0 l 49 24 l 78 38 l 544 38 l 544 0 l 49 0 m 71 601 l 71 639 l 551 639 l 551 615 l 508 601 l 71 601 z "},"ź":{"ha":601,"x_min":49,"x_max":551,"o":"m 49 24 l 500 615 l 551 615 l 100 24 l 49 24 m 49 0 l 49 24 l 78 38 l 544 38 l 544 0 l 49 0 m 71 601 l 71 639 l 551 639 l 551 615 l 508 601 l 71 601 m 224 746 l 206 764 l 396 978 l 433 940 l 224 746 z "},"ž":{"ha":601,"x_min":49,"x_max":551,"o":"m 49 24 l 500 615 l 551 615 l 100 24 l 49 24 m 49 0 l 49 24 l 78 38 l 544 38 l 544 0 l 49 0 m 71 601 l 71 639 l 551 639 l 551 615 l 508 601 l 71 601 m 513 978 l 531 960 l 340 746 l 299 746 l 108 960 l 126 978 l 333 786 l 306 786 l 513 978 z "},"ż":{"ha":601,"x_min":49,"x_max":551,"o":"m 49 24 l 500 615 l 551 615 l 100 24 l 49 24 m 49 0 l 49 24 l 78 38 l 544 38 l 544 0 l 49 0 m 71 601 l 71 639 l 551 639 l 551 615 l 508 601 l 71 601 m 318 757 q 288 771 300 757 q 275 803 275 785 q 288 835 275 822 q 318 847 300 847 q 351 835 338 847 q 364 803 364 822 q 351 771 364 785 q 318 757 338 757 z "},"ﬁ":{"ha":731,"x_min":43,"x_max":642,"o":"m 213 0 l 213 772 q 238 880 213 833 q 310 953 264 926 q 414 979 356 979 q 496 963 458 979 q 561 918 533 947 l 532 889 q 476 928 506 917 q 413 940 446 940 q 298 893 339 940 q 257 767 257 846 l 257 0 l 213 0 m 43 601 l 43 639 l 597 639 l 597 601 l 43 601 m 575 0 l 575 639 l 619 639 l 619 0 l 575 0 m 596 740 q 565 754 578 740 q 553 786 553 768 q 565 818 553 806 q 596 831 578 831 q 628 818 615 831 q 642 786 642 806 q 628 754 642 768 q 596 740 615 740 z "},"ﬂ":{"ha":731,"x_min":43,"x_max":619,"o":"m 213 0 l 213 772 q 238 880 213 833 q 310 953 264 926 q 414 979 356 979 l 413 940 q 298 893 339 940 q 257 767 257 846 l 257 0 l 213 0 m 43 601 l 43 639 l 593 639 l 593 601 l 43 601 m 576 0 l 576 986 l 619 986 l 619 0 l 576 0 z "},"ª":{"ha":489,"x_min":39,"x_max":425,"o":"m 236 544 q 135 571 181 544 q 65 642 90 597 q 39 744 39 688 q 65 849 39 803 q 135 921 90 894 q 235 947 179 947 q 345 911 299 947 q 404 810 392 875 l 404 682 q 347 581 392 618 q 236 544 301 544 m 240 579 q 349 624 308 579 q 390 746 390 669 q 349 867 390 821 q 239 913 307 913 q 122 865 168 913 q 76 746 76 818 q 123 626 76 674 q 240 579 169 579 m 389 553 l 389 656 l 397 751 l 389 844 l 389 939 l 425 939 l 425 553 l 389 553 z "},"º":{"ha":476,"x_min":39,"x_max":438,"o":"m 239 544 q 138 572 183 544 q 65 644 92 599 q 39 747 39 690 q 65 849 39 804 q 138 921 92 894 q 239 947 183 947 q 339 921 294 947 q 410 849 383 894 q 438 747 438 804 q 410 644 438 690 q 339 571 383 597 q 239 544 294 544 m 239 579 q 354 628 308 579 q 400 749 400 676 q 353 865 400 818 q 239 913 307 913 q 123 865 169 913 q 76 747 76 818 q 123 627 76 675 q 239 579 169 579 z "},"⁄":{"ha":819,"x_min":78,"x_max":742,"o":"m 354 410 l 375 396 l 124 -14 l 78 19 l 354 410 m 465 529 l 444 543 l 696 953 l 742 919 l 465 529 z "},"½":{"ha":874,"x_min":78,"x_max":789,"o":"m 354 410 l 375 396 l 124 -14 l 78 19 l 354 410 m 465 529 l 444 543 l 696 953 l 742 919 l 465 529 m 196 465 l 196 939 l 232 939 l 232 465 l 196 465 m 93 906 l 93 939 l 225 939 l 225 906 l 93 906 m 478 3 l 653 185 q 722 267 704 238 q 739 329 739 296 q 711 399 739 374 q 636 425 683 425 q 565 406 596 425 q 511 350 535 388 l 485 375 q 550 438 513 417 q 638 460 588 460 q 738 424 700 460 q 776 328 776 389 q 758 254 776 288 q 685 165 739 221 l 529 6 l 478 3 m 478 -21 l 478 3 l 507 13 l 789 13 l 789 -21 l 478 -21 z "},"¼":{"ha":883,"x_min":78,"x_max":807,"o":"m 354 410 l 375 396 l 124 -14 l 78 19 l 354 410 m 465 529 l 444 543 l 696 953 l 742 919 l 465 529 m 196 465 l 196 939 l 232 939 l 232 465 l 196 465 m 93 906 l 93 939 l 225 939 l 225 906 l 93 906 m 451 131 l 632 453 l 675 453 l 490 131 l 451 131 m 451 106 l 451 131 l 467 140 l 807 140 l 807 106 l 451 106 m 697 -21 l 697 299 l 733 299 l 733 -21 l 697 -21 z "},"¾":{"ha":871,"x_min":78,"x_max":789,"o":"m 401 410 l 422 396 l 171 -14 l 125 19 l 401 410 m 513 529 l 492 543 l 743 953 l 789 919 l 513 529 m 222 458 q 138 477 175 458 q 78 528 101 496 l 103 554 q 152 510 121 528 q 222 493 183 493 q 309 524 275 493 q 343 607 343 556 q 310 691 343 660 q 219 722 276 722 q 199 721 210 722 q 172 717 188 719 l 185 736 q 210 747 196 744 q 238 750 224 750 q 340 710 299 750 q 382 607 382 669 q 337 500 382 542 q 222 458 292 458 m 172 717 l 172 740 l 333 918 l 376 915 l 213 735 l 172 717 m 97 906 l 97 939 l 376 939 l 376 915 l 343 906 l 97 906 m 433 131 l 614 453 l 657 453 l 472 131 l 433 131 m 433 106 l 433 131 l 449 140 l 789 140 l 789 106 l 433 106 m 679 -21 l 679 299 l 715 299 l 715 -21 l 679 -21 z "},"¹":{"ha":333,"x_min":63,"x_max":201,"o":"m 165 465 l 165 939 l 201 939 l 201 465 l 165 465 m 63 906 l 63 939 l 194 939 l 194 906 l 63 906 z "},"²":{"ha":451,"x_min":67,"x_max":378,"o":"m 67 489 l 242 671 q 310 753 293 724 q 328 815 328 782 q 300 885 328 860 q 225 911 272 911 q 154 892 185 911 q 100 836 124 874 l 74 861 q 139 924 101 903 q 226 946 176 946 q 327 910 289 946 q 365 814 365 875 q 347 740 365 774 q 274 651 328 707 l 118 492 l 67 489 m 67 465 l 67 489 l 96 499 l 378 499 l 378 465 l 67 465 z "},"³":{"ha":453,"x_min":65,"x_max":369,"o":"m 210 458 q 126 477 163 458 q 65 528 89 496 l 90 554 q 140 510 108 528 q 210 493 171 493 q 297 524 263 493 q 331 607 331 556 q 297 691 331 660 q 207 722 264 722 q 186 721 197 722 q 160 717 175 719 l 172 736 q 197 747 183 744 q 225 750 211 750 q 328 710 286 750 q 369 607 369 669 q 324 500 369 542 q 210 458 279 458 m 160 717 l 160 740 l 321 918 l 364 915 l 200 735 l 160 717 m 85 906 l 85 939 l 364 939 l 364 915 l 331 906 l 85 906 z "},"⁴":{"ha":488,"x_min":67,"x_max":422,"o":"m 67 617 l 247 939 l 290 939 l 106 617 l 67 617 m 67 592 l 67 617 l 82 626 l 422 626 l 422 592 l 67 592 m 313 465 l 313 785 l 349 785 l 349 465 l 313 465 z "},"\r":{"ha":833,"x_min":0,"x_max":0,"o":""}," ":{"ha":319,"x_min":0,"x_max":0,"o":""}," ":{"ha":319,"x_min":0,"x_max":0,"o":""},".":{"ha":400,"x_min":144,"x_max":256,"o":"m 200 -14 q 160 3 176 -14 q 144 43 144 21 q 160 83 144 67 q 200 99 176 99 q 240 83 224 99 q 256 43 256 67 q 240 3 256 21 q 200 -14 224 -14 z "},",":{"ha":376,"x_min":136,"x_max":250,"o":"m 139 -124 l 203 8 l 222 11 q 211 -5 219 1 q 189 -11 203 -11 q 152 4 168 -11 q 136 42 136 19 q 153 82 136 65 q 194 99 171 99 q 233 82 217 99 q 250 42 250 65 q 248 19 250 32 q 235 -17 246 6 l 172 -142 l 139 -124 z "},":":{"ha":374,"x_min":132,"x_max":243,"o":"m 186 -14 q 147 3 163 -14 q 132 43 132 21 q 147 83 132 67 q 186 99 163 99 q 226 83 210 99 q 243 43 243 67 q 226 3 243 21 q 186 -14 210 -14 m 186 431 q 147 448 163 431 q 132 488 132 465 q 147 527 132 511 q 186 543 163 543 q 226 527 210 543 q 243 488 243 511 q 226 448 243 465 q 186 431 210 431 z "},";":{"ha":374,"x_min":132,"x_max":246,"o":"m 135 -124 l 199 8 l 218 11 q 207 -5 215 1 q 185 -11 199 -11 q 148 4 164 -11 q 132 42 132 19 q 149 82 132 65 q 190 99 167 99 q 229 82 213 99 q 246 42 246 65 q 244 19 246 32 q 231 -17 242 6 l 168 -142 l 135 -124 m 188 431 q 149 448 164 431 q 133 488 133 465 q 149 527 133 511 q 188 543 164 543 q 228 527 211 543 q 244 488 244 511 q 228 448 244 465 q 188 431 211 431 z "},"…":{"ha":956,"x_min":144,"x_max":811,"o":"m 478 -14 q 438 3 454 -14 q 422 43 422 21 q 438 83 422 67 q 478 99 454 99 q 517 83 501 99 q 533 43 533 67 q 517 3 533 21 q 478 -14 501 -14 m 756 -14 q 716 3 732 -14 q 700 43 700 21 q 716 83 700 67 q 756 99 732 99 q 795 83 779 99 q 811 43 811 67 q 795 3 811 21 q 756 -14 779 -14 m 200 -14 q 160 3 176 -14 q 144 43 144 21 q 160 83 144 67 q 200 99 176 99 q 240 83 224 99 q 256 43 256 67 q 240 3 256 21 q 200 -14 224 -14 z "},"!":{"ha":360,"x_min":122,"x_max":233,"o":"m 163 257 l 153 967 l 207 967 l 197 257 l 163 257 m 178 -14 q 138 3 154 -14 q 122 42 122 19 q 138 82 122 65 q 178 99 154 99 q 217 82 201 99 q 233 42 233 65 q 217 3 233 19 q 178 -14 201 -14 z "},"¡":{"ha":360,"x_min":122,"x_max":233,"o":"m 153 -272 l 163 382 l 197 382 l 207 -272 l 153 -272 m 178 540 q 138 557 154 540 q 122 596 122 574 q 138 636 122 619 q 178 653 154 653 q 217 636 201 653 q 233 596 233 619 q 217 557 233 574 q 178 540 201 540 z "},"?":{"ha":699,"x_min":85,"x_max":601,"o":"m 325 257 l 321 508 l 354 510 q 459 544 414 513 q 530 624 504 575 q 556 731 556 674 q 530 835 556 788 q 458 910 504 882 q 346 938 411 938 q 206 901 261 938 q 117 813 150 864 l 85 844 q 188 941 121 901 q 346 981 254 981 q 481 948 424 981 q 569 859 538 915 q 601 731 601 803 q 569 603 601 663 q 481 508 538 544 q 350 469 424 472 l 364 490 l 360 257 l 325 257 m 340 -14 q 301 3 317 -14 q 285 42 285 19 q 301 82 285 65 q 340 99 317 99 q 380 82 364 99 q 396 42 396 65 q 380 3 396 19 q 340 -14 364 -14 z "},"¿":{"ha":701,"x_min":100,"x_max":617,"o":"m 356 -286 q 222 -252 279 -286 q 132 -160 164 -218 q 100 -32 100 -103 q 132 101 100 44 q 221 190 164 157 q 351 225 278 222 l 338 204 l 342 382 l 376 382 l 381 186 l 347 185 q 202 123 258 181 q 146 -32 146 65 q 172 -137 146 -89 q 244 -214 197 -185 q 356 -243 292 -243 q 497 -206 442 -243 q 585 -118 551 -169 l 617 -150 q 514 -247 581 -207 q 356 -286 447 -286 m 361 540 q 322 557 338 540 q 306 597 306 574 q 322 637 306 621 q 361 653 338 653 q 401 637 385 653 q 417 597 417 621 q 401 557 417 574 q 361 540 385 540 z "},"·":{"ha":111,"x_min":0,"x_max":111,"o":"m 56 436 q 16 453 32 436 q 0 493 0 471 q 16 533 0 517 q 56 549 32 549 q 95 533 79 549 q 111 493 111 517 q 95 453 111 471 q 56 436 79 436 z "},"•":{"ha":407,"x_min":103,"x_max":304,"o":"m 204 390 q 151 404 174 390 q 116 442 129 418 q 103 493 103 465 q 116 544 103 521 q 151 581 129 567 q 204 594 174 594 q 256 581 233 594 q 292 544 279 567 q 304 493 304 521 q 292 442 304 465 q 256 404 279 418 q 204 390 233 390 z "},"*":{"ha":674,"x_min":97,"x_max":576,"o":"m 342 539 l 318 761 l 118 649 l 97 690 l 310 781 l 136 932 l 169 964 l 326 796 l 419 1001 l 463 982 l 346 788 l 576 765 l 571 719 l 342 765 l 389 544 l 342 539 z "},"#":{"ha":882,"x_min":89,"x_max":792,"o":"m 494 0 l 624 939 l 665 939 l 535 0 l 494 0 m 89 315 l 89 351 l 753 351 l 753 315 l 89 315 m 204 0 l 335 939 l 375 939 l 244 0 l 204 0 m 128 603 l 128 639 l 792 639 l 792 603 l 128 603 z "},"/":{"ha":497,"x_min":42,"x_max":456,"o":"m 42 -56 l 415 986 l 456 986 l 82 -56 l 42 -56 z "},"\\":{"ha":497,"x_min":42,"x_max":456,"o":"m 415 -56 l 42 986 l 82 986 l 456 -56 l 415 -56 z "},"-":{"ha":638,"x_min":111,"x_max":526,"o":"m 111 329 l 111 371 l 526 371 l 526 329 l 111 329 z "},"–":{"ha":744,"x_min":111,"x_max":633,"o":"m 111 332 l 111 368 l 633 368 l 633 332 l 111 332 z "},"—":{"ha":1146,"x_min":111,"x_max":1035,"o":"m 111 332 l 111 368 l 1035 368 l 1035 332 l 111 332 z "},"_":{"ha":800,"x_min":111,"x_max":689,"o":"m 111 -128 l 111 -92 l 689 -92 l 689 -128 l 111 -128 z "},"(":{"ha":435,"x_min":89,"x_max":371,"o":"m 343 -150 q 202 3 258 -87 q 117 202 146 94 q 89 424 89 310 q 117 645 89 538 q 202 844 146 753 q 343 997 258 935 l 371 969 q 190 733 250 876 q 129 424 129 590 q 190 115 129 257 q 371 -122 250 -28 l 343 -150 z "},")":{"ha":433,"x_min":64,"x_max":346,"o":"m 92 -150 l 64 -122 q 245 115 185 -28 q 306 424 306 257 q 245 733 306 590 q 64 969 185 876 l 92 997 q 233 844 176 935 q 317 645 289 753 q 346 424 346 538 q 317 202 346 310 q 233 3 289 94 q 92 -150 176 -87 z "},"{":{"ha":435,"x_min":63,"x_max":369,"o":"m 322 -133 q 182 -72 233 -133 q 149 124 131 -10 l 168 271 q 158 371 178 339 q 100 403 138 403 l 63 403 l 63 435 l 100 435 q 158 467 138 435 q 168 567 178 499 l 149 710 q 182 905 131 843 q 322 967 233 967 l 369 967 l 369 932 l 333 932 q 217 883 258 932 q 189 715 175 835 l 207 565 q 205 490 213 524 q 176 436 197 457 q 117 406 154 415 l 117 428 q 176 401 154 422 q 205 347 197 379 q 207 272 213 314 l 189 118 q 217 -49 175 0 q 333 -99 258 -99 l 369 -99 l 369 -133 l 322 -133 z "},"}":{"ha":435,"x_min":65,"x_max":372,"o":"m 113 -133 l 65 -133 l 65 -99 l 101 -99 q 218 -49 176 -99 q 246 118 260 0 l 228 272 q 231 347 224 314 q 259 401 238 379 q 318 428 281 422 l 318 406 q 259 436 281 415 q 231 490 238 457 q 228 565 224 524 l 246 715 q 219 883 261 835 q 101 932 176 932 l 65 932 l 65 967 l 113 967 q 253 905 201 967 q 286 710 304 843 l 267 567 q 277 467 257 499 q 335 435 297 435 l 372 435 l 372 403 l 335 403 q 277 371 297 403 q 267 271 257 339 l 286 124 q 253 -72 304 -10 q 113 -133 201 -133 z "},"[":{"ha":456,"x_min":132,"x_max":390,"o":"m 132 -133 l 132 967 l 172 967 l 172 -133 l 132 -133 m 153 -133 l 153 -99 l 390 -99 l 390 -133 l 153 -133 m 153 932 l 153 967 l 390 967 l 390 932 l 153 932 z "},"]":{"ha":456,"x_min":65,"x_max":324,"o":"m 283 -133 l 283 967 l 324 967 l 324 -133 l 283 -133 m 65 -133 l 65 -99 l 303 -99 l 303 -133 l 65 -133 m 65 932 l 65 967 l 303 967 l 303 932 l 65 932 z "},"‚":{"ha":376,"x_min":136,"x_max":250,"o":"m 139 -124 l 203 8 l 222 11 q 211 -5 219 1 q 189 -11 203 -11 q 152 4 168 -11 q 136 42 136 19 q 153 82 136 65 q 194 99 171 99 q 233 82 217 99 q 250 42 250 65 q 248 19 250 32 q 235 -17 246 6 l 172 -142 l 139 -124 z "},"„":{"ha":549,"x_min":136,"x_max":422,"o":"m 311 -124 l 375 8 l 394 11 q 383 -5 392 1 q 361 -11 375 -11 q 324 4 340 -11 q 308 42 308 19 q 326 82 308 65 q 367 99 343 99 q 406 82 389 99 q 422 42 422 65 q 420 19 422 32 q 407 -17 418 6 l 344 -142 l 311 -124 m 139 -124 l 203 8 l 222 11 q 211 -5 219 1 q 189 -11 203 -11 q 152 4 168 -11 q 136 42 136 19 q 153 82 136 65 q 194 99 171 99 q 233 82 217 99 q 250 42 250 65 q 248 19 250 32 q 235 -17 246 6 l 172 -142 l 139 -124 z "},"“":{"ha":506,"x_min":106,"x_max":392,"o":"m 217 963 l 153 831 l 133 828 q 144 844 136 838 q 167 850 153 850 q 203 835 188 850 q 219 797 219 821 q 202 757 219 774 q 161 740 185 740 q 122 757 139 740 q 106 797 106 774 q 108 820 106 807 q 121 856 111 833 l 183 981 l 217 963 m 389 963 l 325 831 l 306 828 q 317 844 308 838 q 339 850 325 850 q 376 835 360 850 q 392 797 392 821 q 374 757 392 774 q 333 740 357 740 q 294 757 311 740 q 278 797 278 774 q 281 820 278 807 q 293 856 283 833 l 356 981 l 389 963 z "},"”":{"ha":504,"x_min":114,"x_max":400,"o":"m 289 731 l 353 863 l 372 865 q 361 849 369 856 q 339 843 353 843 q 302 858 318 843 q 286 896 286 874 q 303 936 286 919 q 344 953 321 953 q 383 936 367 953 q 400 896 400 919 q 398 873 400 886 q 385 838 396 860 l 322 713 l 289 731 m 117 731 l 181 863 l 200 865 q 189 849 197 856 q 167 843 181 843 q 130 858 146 843 q 114 896 114 874 q 131 936 114 919 q 172 953 149 953 q 211 936 194 953 q 228 896 228 919 q 226 873 228 886 q 213 838 224 860 l 150 713 l 117 731 z "},"‘":{"ha":333,"x_min":106,"x_max":219,"o":"m 217 963 l 153 831 l 133 828 q 144 844 136 838 q 167 850 153 850 q 203 835 188 850 q 219 797 219 821 q 202 757 219 774 q 161 740 185 740 q 122 757 139 740 q 106 797 106 774 q 108 820 106 807 q 121 856 111 833 l 183 981 l 217 963 z "},"’":{"ha":332,"x_min":114,"x_max":228,"o":"m 117 731 l 181 863 l 200 865 q 189 849 197 856 q 167 843 181 843 q 130 858 146 843 q 114 896 114 874 q 131 936 114 919 q 172 953 149 953 q 211 936 194 953 q 228 896 228 919 q 226 873 228 886 q 213 838 224 860 l 150 713 l 117 731 z "},"«":{"ha":563,"x_min":74,"x_max":490,"o":"m 246 115 l 74 325 l 246 535 l 296 535 l 121 325 l 296 115 l 246 115 m 440 115 l 268 325 l 440 535 l 490 535 l 315 325 l 490 115 l 440 115 z "},"»":{"ha":563,"x_min":72,"x_max":489,"o":"m 267 115 l 442 325 l 267 535 l 317 535 l 489 325 l 317 115 l 267 115 m 72 115 l 247 325 l 72 535 l 122 535 l 294 325 l 122 115 l 72 115 z "},"‹":{"ha":368,"x_min":74,"x_max":296,"o":"m 246 115 l 74 325 l 246 535 l 296 535 l 121 325 l 296 115 l 246 115 z "},"›":{"ha":368,"x_min":72,"x_max":294,"o":"m 72 115 l 247 325 l 72 535 l 122 535 l 294 325 l 122 115 l 72 115 z "},"\"":{"ha":447,"x_min":126,"x_max":321,"o":"m 281 719 l 267 967 l 321 967 l 307 719 l 281 719 m 140 719 l 126 967 l 181 967 l 167 719 l 140 719 z "},"'":{"ha":307,"x_min":126,"x_max":181,"o":"m 140 719 l 126 967 l 181 967 l 167 719 l 140 719 z "},"✓":{"ha":993,"x_min":44,"x_max":949,"o":"m 351 139 l 44 436 l 71 465 l 376 165 l 342 165 l 919 771 l 949 743 l 369 139 l 351 139 z "},"@":{"ha":1097,"x_min":119,"x_max":979,"o":"m 553 -111 q 383 -78 463 -111 q 245 15 304 -44 q 153 156 186 75 q 119 329 119 236 q 153 504 119 424 q 248 645 188 585 q 389 739 308 706 q 561 772 469 772 q 777 716 683 772 q 925 561 871 660 q 979 333 979 463 q 967 231 979 275 q 931 147 956 188 l 893 158 q 920 208 911 186 q 933 260 929 231 q 938 336 938 289 q 889 545 938 456 q 755 684 840 635 q 561 733 669 733 q 361 682 451 733 q 217 539 271 631 q 163 328 163 447 q 215 121 163 211 q 356 -21 268 31 q 550 -72 444 -72 q 703 -49 638 -72 q 817 21 768 -25 l 846 -7 q 713 -85 786 -58 q 553 -111 639 -111 m 531 132 q 433 158 476 132 q 364 230 389 185 q 339 329 339 275 q 364 431 339 386 q 433 503 389 476 q 531 529 476 529 q 648 490 601 529 q 694 399 694 451 l 694 261 q 649 171 694 210 q 531 132 603 132 m 531 168 q 642 213 600 168 q 683 331 683 258 q 642 449 683 406 q 532 493 601 493 q 425 449 469 493 q 381 331 381 404 q 424 213 381 258 q 531 168 468 168 m 685 147 l 685 185 l 931 185 l 931 147 l 685 147 m 678 147 l 678 242 l 690 336 l 678 426 l 678 521 l 719 521 l 719 147 l 678 147 z "},"&":{"ha":871,"x_min":111,"x_max":847,"o":"m 785 0 l 324 465 q 234 585 263 526 q 206 707 206 643 q 237 835 206 781 q 325 922 268 890 q 456 953 382 953 q 546 939 504 953 q 622 899 588 925 q 679 835 656 874 l 647 803 q 565 883 613 856 q 457 910 517 910 q 307 853 364 910 q 250 703 250 797 q 275 597 250 646 q 363 486 300 549 l 847 0 l 785 0 m 400 -14 q 251 22 317 -14 q 149 118 186 57 q 111 258 111 179 q 158 423 111 347 q 283 536 206 499 l 310 506 q 199 406 242 475 q 156 258 156 338 q 188 140 156 192 q 275 58 219 88 q 401 28 331 28 q 546 65 479 28 q 647 165 613 101 l 676 136 q 608 56 650 90 q 513 4 565 22 q 400 -14 460 -14 z "},"¶":{"ha":928,"x_min":108,"x_max":833,"o":"m 506 400 l 388 400 q 245 433 308 400 q 145 527 182 467 q 108 669 108 588 q 145 812 108 751 q 245 906 182 872 q 388 939 308 939 l 833 939 l 833 899 l 394 899 q 272 871 326 899 q 185 792 217 843 q 154 669 154 740 q 185 547 154 599 q 272 468 217 496 q 394 440 326 440 l 506 440 l 506 400 m 528 -139 l 483 -139 l 483 939 l 528 939 l 528 -139 m 703 -139 l 658 -139 l 658 939 l 703 939 l 703 -139 z "},"§":{"ha":728,"x_min":114,"x_max":614,"o":"m 376 194 l 378 229 q 518 269 465 229 q 571 371 571 310 q 541 465 571 432 q 464 517 511 499 q 363 551 417 536 q 263 589 310 567 q 185 651 215 611 q 156 761 156 692 q 183 860 156 817 q 260 928 210 903 q 379 953 310 953 q 519 922 457 953 q 613 840 581 892 l 582 808 q 493 883 550 857 q 374 910 436 910 q 243 867 288 910 q 199 764 199 825 q 228 672 199 704 q 306 620 258 639 q 406 587 353 601 q 507 550 460 572 q 584 488 554 528 q 614 376 614 447 q 584 281 614 322 q 501 217 554 240 q 376 194 449 194 m 349 -168 q 210 -137 272 -168 q 115 -56 147 -107 l 146 -24 q 235 -99 178 -72 q 354 -125 292 -125 q 485 -82 440 -125 q 529 21 529 -39 q 499 113 529 81 q 422 165 469 146 q 322 198 375 183 q 221 235 268 213 q 144 297 174 257 q 114 408 114 338 q 144 504 114 464 q 227 567 174 544 q 351 590 281 590 l 350 556 q 210 515 263 556 q 157 414 157 475 q 187 320 157 354 q 264 267 217 286 q 365 233 311 249 q 465 196 418 218 q 542 133 513 174 q 572 24 572 93 q 545 -75 572 -32 q 468 -143 518 -118 q 349 -168 418 -168 z "},"©":{"ha":1193,"x_min":118,"x_max":1075,"o":"m 599 -14 q 405 23 493 -14 q 253 126 317 60 q 153 281 189 193 q 118 471 118 369 q 153 661 118 574 q 251 814 188 749 q 403 916 315 879 q 596 953 490 953 q 790 916 701 953 q 942 814 878 879 q 1040 660 1006 749 q 1075 469 1075 572 q 1040 280 1075 368 q 942 126 1006 192 q 791 23 878 60 q 599 -14 704 -14 m 600 203 q 466 239 526 203 q 371 336 406 275 q 336 472 336 397 q 371 607 336 547 q 466 702 406 667 q 600 738 526 738 q 703 717 656 738 q 789 658 751 697 l 761 626 q 691 676 732 658 q 600 694 650 694 q 491 666 540 694 q 413 588 442 638 q 383 472 383 538 q 413 354 383 406 q 491 274 442 303 q 600 244 540 244 q 690 261 647 244 q 765 313 733 278 l 792 282 q 707 224 757 244 q 600 203 657 203 m 596 29 q 821 88 724 29 q 973 246 918 146 q 1028 471 1028 346 q 973 694 1028 594 q 821 851 918 793 q 596 910 724 910 q 371 852 468 910 q 219 695 274 794 q 165 471 165 596 q 220 246 165 346 q 372 88 275 146 q 596 29 469 29 z "},"®":{"ha":831,"x_min":126,"x_max":704,"o":"m 417 369 q 266 408 332 369 q 163 514 200 447 q 126 663 126 581 q 163 810 126 744 q 265 914 200 875 q 414 953 329 953 q 565 914 500 953 q 667 809 631 875 q 704 661 704 743 q 667 513 704 579 q 566 408 631 447 q 417 369 501 369 m 319 511 l 319 821 l 353 821 l 353 511 l 319 511 m 515 511 l 390 664 l 429 664 l 554 511 l 515 511 m 414 397 q 550 433 492 397 q 641 528 608 468 q 674 663 674 588 q 641 796 674 736 q 550 890 608 856 q 414 925 492 925 q 280 890 338 925 q 190 796 222 856 q 157 663 157 736 q 190 528 157 588 q 281 433 222 468 q 414 397 339 397 m 326 657 l 326 690 l 428 690 q 472 704 458 690 q 486 739 486 718 q 473 774 486 758 q 428 789 460 789 l 326 789 l 326 821 l 426 821 q 497 798 472 821 q 521 739 521 775 q 497 680 521 703 q 426 657 472 657 l 326 657 z "},"™":{"ha":926,"x_min":33,"x_max":893,"o":"m 211 443 l 211 900 l 233 900 l 233 443 l 211 443 m 33 893 l 33 913 l 413 913 l 413 893 l 33 893 m 453 443 l 453 913 l 469 913 l 681 568 l 665 568 l 876 913 l 893 913 l 893 443 l 871 443 l 871 875 l 876 874 l 682 556 l 664 556 l 469 874 l 475 875 l 475 443 l 453 443 z "},"°":{"ha":556,"x_min":76,"x_max":479,"o":"m 278 543 q 175 569 221 543 q 103 642 129 596 q 76 747 76 689 q 103 853 76 807 q 175 926 129 899 q 278 953 221 953 q 381 926 336 953 q 453 853 426 899 q 479 747 479 807 q 453 642 479 689 q 381 569 426 596 q 278 543 336 543 m 279 578 q 394 626 349 578 q 440 750 440 675 q 395 871 440 824 q 279 918 350 918 q 161 871 207 918 q 115 750 115 824 q 162 626 115 675 q 279 578 208 578 z "},"|":{"ha":371,"x_min":165,"x_max":206,"o":"m 165 -181 l 165 1036 l 206 1036 l 206 -181 l 165 -181 z "},"¦":{"ha":371,"x_min":165,"x_max":206,"o":"m 165 536 l 165 1036 l 206 1036 l 206 536 l 165 536 m 165 -181 l 165 319 l 206 319 l 206 -181 l 165 -181 z "},"℠":{"ha":865,"x_min":33,"x_max":832,"o":"m 197 436 q 102 457 143 436 q 33 515 61 478 l 50 531 q 116 474 79 492 q 199 457 153 457 q 283 482 250 457 q 315 551 315 507 q 302 606 315 585 q 267 640 289 626 q 217 664 244 654 q 164 684 190 674 q 115 709 138 694 q 80 747 93 724 q 67 807 67 769 q 83 866 67 840 q 128 906 99 892 q 196 919 157 919 q 277 902 242 919 q 338 853 313 885 l 322 838 q 268 883 299 867 q 196 899 238 899 q 119 874 149 899 q 89 807 89 850 q 103 756 89 776 q 139 724 117 736 q 188 701 161 711 q 240 681 214 692 q 289 656 267 671 q 325 617 311 640 q 339 556 339 593 q 301 467 339 497 q 197 436 263 436 m 392 443 l 392 913 l 408 913 l 619 568 l 604 568 l 815 913 l 832 913 l 832 443 l 810 443 l 810 875 l 815 874 l 621 556 l 603 556 l 408 874 l 414 875 l 414 443 l 392 443 z "},"¢":{"ha":696,"x_min":74,"x_max":640,"o":"m 403 136 q 235 181 310 136 q 117 301 161 225 q 74 472 74 378 q 117 640 74 565 q 235 759 161 715 q 403 803 310 803 q 533 777 472 803 q 636 706 593 751 l 607 676 q 517 740 569 717 q 403 763 464 763 q 258 724 322 763 q 156 621 193 686 q 118 472 118 556 q 156 321 118 388 q 258 215 193 254 q 403 176 322 176 q 519 199 465 176 q 611 264 572 222 l 640 235 q 534 162 596 188 q 403 136 472 136 m 365 14 l 365 925 l 401 925 l 401 14 l 365 14 z "},"¤":{"ha":636,"x_min":28,"x_max":608,"o":"m 318 203 q 184 239 244 203 q 89 336 124 275 q 54 472 54 397 q 89 607 54 547 q 184 702 124 667 q 318 738 244 738 q 451 703 392 738 q 547 608 511 668 q 582 472 582 547 q 547 335 582 396 q 451 238 511 274 q 318 203 392 203 m 54 181 l 28 206 l 129 307 l 154 282 l 54 181 m 318 240 q 432 271 382 240 q 511 354 482 301 q 540 474 540 407 q 511 589 540 538 q 432 670 482 640 q 318 700 382 700 q 204 670 254 700 q 125 589 154 640 q 96 472 96 538 q 125 353 96 406 q 205 271 154 301 q 318 240 256 240 m 583 181 l 482 282 l 507 307 l 608 206 l 583 181 m 129 635 l 28 735 l 54 761 l 154 660 l 129 635 m 507 635 l 482 660 l 583 761 l 608 735 l 507 635 z "},"$":{"ha":832,"x_min":114,"x_max":703,"o":"m 429 -14 q 247 28 325 -14 q 114 144 169 71 l 146 175 q 273 62 203 96 q 432 28 343 28 q 594 78 531 28 q 658 217 658 128 q 633 326 658 283 q 564 394 607 368 q 469 441 521 421 q 367 481 418 461 q 272 531 315 501 q 203 608 229 561 q 178 726 178 654 q 209 845 178 794 q 297 924 240 896 q 428 953 353 953 q 584 918 515 953 q 701 818 653 883 l 669 788 q 566 879 625 847 q 428 911 507 911 q 280 863 338 911 q 222 728 222 814 q 248 626 222 665 q 317 560 274 586 q 411 516 360 535 q 514 476 463 497 q 608 425 565 456 q 677 347 651 394 q 703 225 703 299 q 629 47 703 107 q 429 -14 556 -14 m 419 -139 l 419 1078 l 456 1078 l 456 -139 l 419 -139 z "},"€":{"ha":1028,"x_min":47,"x_max":908,"o":"m 575 -14 q 398 23 478 -14 q 260 126 318 60 q 170 281 201 193 q 139 471 139 369 q 170 661 139 574 q 258 814 201 749 q 395 916 315 879 q 571 953 475 953 q 756 914 675 953 q 901 806 838 875 l 869 774 q 740 874 814 838 q 571 910 667 910 q 369 852 456 910 q 234 695 282 794 q 186 471 186 596 q 235 246 186 346 q 370 88 283 146 q 571 29 457 29 q 746 66 671 29 q 876 167 821 103 l 908 135 q 765 26 846 65 q 575 -14 683 -14 m 47 572 l 47 611 l 689 611 l 676 572 l 47 572 m 47 331 l 47 369 l 632 369 l 619 331 l 47 331 z "},"£":{"ha":850,"x_min":108,"x_max":751,"o":"m 258 14 l 258 685 q 294 831 258 771 q 388 922 329 890 q 518 953 447 953 q 665 919 608 953 q 751 843 721 885 l 719 811 q 637 881 685 853 q 515 910 589 910 q 410 885 458 910 q 332 810 361 860 q 303 689 303 761 l 303 14 l 258 14 m 108 0 l 108 40 l 733 40 l 733 0 l 108 0 m 108 429 l 108 469 l 622 469 l 622 429 l 108 429 z "},"¥":{"ha":906,"x_min":119,"x_max":786,"o":"m 450 400 l 119 939 l 172 939 l 460 463 l 446 463 l 736 939 l 786 939 l 453 400 l 450 400 m 431 0 l 431 446 l 475 446 l 475 0 l 431 0 m 340 611 l 363 572 l 154 572 l 154 611 l 340 611 m 154 331 l 154 369 l 751 369 l 751 331 l 154 331 m 533 572 l 560 611 l 751 611 l 751 572 l 533 572 z "},"∕":{"ha":497,"x_min":42,"x_max":456,"o":"m 42 -56 l 415 986 l 456 986 l 82 -56 l 42 -56 z "},"+":{"ha":731,"x_min":104,"x_max":626,"o":"m 104 443 l 104 479 l 626 479 l 626 443 l 104 443 m 346 736 l 385 736 l 385 186 l 346 186 l 346 736 z "},"−":{"ha":731,"x_min":104,"x_max":626,"o":"m 104 443 l 104 479 l 626 479 l 626 443 l 104 443 z "},"×":{"ha":731,"x_min":118,"x_max":613,"o":"m 146 214 l 118 242 l 585 708 l 613 681 l 146 214 m 575 224 l 128 671 l 156 699 l 603 251 l 575 224 z "},"÷":{"ha":731,"x_min":104,"x_max":626,"o":"m 104 443 l 104 479 l 626 479 l 626 443 l 104 443 m 364 635 q 333 649 346 635 q 321 681 321 663 q 333 713 321 700 q 364 725 346 725 q 397 713 383 725 q 410 681 410 700 q 397 649 410 663 q 364 635 383 635 m 364 197 q 333 211 346 197 q 321 243 321 225 q 333 275 321 263 q 364 288 346 288 q 397 275 383 288 q 410 243 410 263 q 397 211 410 225 q 364 197 383 197 z "},"=":{"ha":731,"x_min":104,"x_max":626,"o":"m 104 603 l 104 639 l 626 639 l 626 603 l 104 603 m 104 283 l 104 319 l 626 319 l 626 283 l 104 283 z "},">":{"ha":731,"x_min":104,"x_max":626,"o":"m 104 682 l 104 722 l 626 479 l 626 451 l 104 208 l 104 249 l 600 476 l 600 454 l 104 682 z "},"<":{"ha":731,"x_min":104,"x_max":626,"o":"m 626 208 l 104 451 l 104 479 l 626 722 l 626 682 l 131 454 l 131 476 l 626 249 l 626 208 z "},"±":{"ha":731,"x_min":104,"x_max":626,"o":"m 104 513 l 104 549 l 626 549 l 626 513 l 104 513 m 346 736 l 385 736 l 385 325 l 346 325 l 346 736 m 104 186 l 104 222 l 626 222 l 626 186 l 104 186 z "},"~":{"ha":731,"x_min":96,"x_max":635,"o":"m 494 410 q 434 419 463 410 q 377 440 406 428 q 317 460 349 451 q 247 469 286 469 q 170 455 199 469 q 122 415 142 440 l 96 438 q 154 488 119 468 q 247 507 189 507 q 317 498 286 507 q 377 477 349 489 q 434 456 406 465 q 494 447 463 447 q 563 462 535 447 q 610 501 590 476 l 635 479 q 578 429 613 449 q 494 410 544 410 z "},"¬":{"ha":731,"x_min":104,"x_max":626,"o":"m 104 513 l 104 549 l 626 549 l 626 513 l 104 513 m 588 539 l 626 539 l 626 256 l 588 256 l 588 539 z "},"^":{"ha":636,"x_min":104,"x_max":532,"o":"m 486 635 l 314 936 l 322 936 l 150 635 l 104 635 l 300 967 l 335 967 l 532 635 l 486 635 z "},"µ":{"ha":818,"x_min":165,"x_max":685,"o":"m 165 -250 l 165 639 l 208 639 l 208 -250 l 165 -250 m 424 -14 q 247 56 314 -14 q 179 239 179 125 l 208 256 q 264 90 208 154 q 417 25 319 25 q 577 87 513 25 q 642 257 642 149 l 642 639 l 685 639 l 685 257 q 650 114 685 175 q 556 19 615 53 q 424 -14 497 -14 z "},"%":{"ha":925,"x_min":108,"x_max":817,"o":"m 136 0 l 739 939 l 789 939 l 186 0 l 136 0 m 625 -14 q 531 11 574 -14 q 461 80 488 36 q 435 176 435 124 q 460 272 435 229 q 530 340 486 315 q 625 365 574 365 q 721 340 678 365 q 790 272 764 315 q 817 176 817 229 q 791 80 817 124 q 722 11 765 36 q 625 -14 678 -14 m 624 26 q 730 68 688 26 q 772 178 772 110 q 728 284 772 243 q 624 325 685 325 q 522 284 564 325 q 479 178 479 243 q 522 68 479 110 q 624 26 564 26 m 299 572 q 204 597 247 572 q 135 666 161 622 q 108 763 108 710 q 134 858 108 815 q 203 926 160 901 q 299 951 247 951 q 394 926 351 951 q 464 858 438 901 q 490 763 490 815 q 465 666 490 710 q 395 597 439 622 q 299 572 351 572 m 297 613 q 403 654 361 613 q 446 764 446 696 q 402 870 446 829 q 297 911 358 911 q 195 870 238 911 q 153 764 153 829 q 195 654 153 696 q 297 613 238 613 z "},"↑":{"ha":914,"x_min":138,"x_max":776,"o":"m 436 824 l 478 824 l 478 108 l 436 108 l 436 824 m 776 481 l 457 800 l 138 481 l 138 539 l 457 858 l 776 539 l 776 481 z "},"↗":{"ha":914,"x_min":138,"x_max":776,"o":"m 736 779 l 767 749 l 167 150 l 138 179 l 736 779 m 735 296 l 735 747 l 283 747 l 324 789 l 776 789 l 776 336 l 735 296 z "},"→":{"ha":914,"x_min":96,"x_max":846,"o":"m 811 490 l 811 449 l 96 449 l 96 490 l 811 490 m 468 150 l 788 469 l 468 789 l 526 789 l 846 469 l 526 150 l 468 150 z "},"↘":{"ha":914,"x_min":138,"x_max":776,"o":"m 767 190 l 736 160 l 138 760 l 167 789 l 767 190 m 283 192 l 735 192 l 735 643 l 776 603 l 776 150 l 324 150 l 283 192 z "},"↓":{"ha":914,"x_min":138,"x_max":776,"o":"m 478 115 l 436 115 l 436 831 l 478 831 l 478 115 m 138 458 l 457 139 l 776 458 l 776 400 l 457 81 l 138 400 l 138 458 z "},"↙":{"ha":914,"x_min":138,"x_max":776,"o":"m 178 160 l 147 190 l 747 789 l 776 760 l 178 160 m 179 643 l 179 192 l 631 192 l 590 150 l 138 150 l 138 603 l 179 643 z "},"←":{"ha":914,"x_min":68,"x_max":818,"o":"m 103 449 l 103 490 l 818 490 l 818 449 l 103 449 m 446 789 l 126 469 l 446 150 l 388 150 l 68 469 l 388 789 l 446 789 z "},"↖":{"ha":914,"x_min":138,"x_max":776,"o":"m 147 749 l 178 779 l 776 179 l 747 150 l 147 749 m 631 747 l 179 747 l 179 296 l 138 336 l 138 789 l 590 789 l 631 747 z "},"̈":{"ha":0,"x_min":83,"x_max":408,"o":"m 126 757 q 96 771 108 757 q 83 803 83 785 q 96 835 83 822 q 126 847 108 847 q 159 835 146 847 q 172 803 172 822 q 159 771 172 785 q 126 757 146 757 m 363 757 q 332 771 344 757 q 319 803 319 785 q 332 835 319 822 q 363 847 344 847 q 395 835 382 847 q 408 803 408 822 q 395 771 408 785 q 363 757 382 757 z "},"̇":{"ha":0,"x_min":125,"x_max":214,"o":"m 168 757 q 138 771 150 757 q 125 803 125 785 q 138 835 125 822 q 168 847 150 847 q 201 835 188 847 q 214 803 214 822 q 201 771 214 785 q 168 757 188 757 z "},"̀":{"ha":0,"x_min":56,"x_max":283,"o":"m 265 746 l 56 940 l 93 978 l 283 764 l 265 746 z "},"́":{"ha":0,"x_min":56,"x_max":283,"o":"m 74 746 l 56 764 l 246 978 l 283 940 l 74 746 z "},"̋":{"ha":0,"x_min":56,"x_max":347,"o":"m 79 717 l 56 725 l 138 1000 l 188 982 l 79 717 m 239 717 l 215 725 l 297 1000 l 347 982 l 239 717 z "},"̂":{"ha":0,"x_min":56,"x_max":478,"o":"m 74 746 l 56 764 l 246 978 l 288 978 l 478 764 l 460 746 l 253 938 l 281 938 l 74 746 z "},"̌":{"ha":0,"x_min":56,"x_max":478,"o":"m 460 978 l 478 960 l 288 746 l 246 746 l 56 960 l 74 978 l 281 786 l 253 786 l 460 978 z "},"̆":{"ha":0,"x_min":56,"x_max":478,"o":"m 478 931 q 451 822 478 871 q 377 746 424 774 q 269 718 331 718 q 158 746 207 718 q 83 822 110 774 q 56 931 56 871 l 96 931 q 144 804 96 854 q 272 754 192 754 q 356 777 318 754 q 417 840 394 800 q 439 931 439 881 l 478 931 z "},"̊":{"ha":0,"x_min":56,"x_max":338,"o":"m 199 718 q 124 737 157 718 q 74 788 92 756 q 56 860 56 819 q 74 932 56 900 q 124 983 92 964 q 199 1001 157 1001 q 270 983 239 1001 q 319 932 301 964 q 338 860 338 900 q 319 788 338 819 q 270 737 301 756 q 199 718 239 718 m 200 756 q 269 785 240 756 q 299 860 299 815 q 269 934 299 904 q 200 964 240 964 q 124 934 153 964 q 96 860 96 904 q 124 785 96 815 q 200 756 153 756 z "},"̃":{"ha":0,"x_min":56,"x_max":492,"o":"m 376 758 q 305 774 335 758 q 246 803 275 789 q 179 818 217 818 q 119 803 140 818 q 82 764 99 789 l 56 786 q 103 836 75 817 q 179 856 132 856 q 256 841 225 856 q 315 811 288 826 q 376 796 343 796 q 428 810 408 796 q 465 850 449 825 l 492 828 q 444 778 472 797 q 376 758 417 758 z "},"̄":{"ha":0,"x_min":56,"x_max":486,"o":"m 56 821 l 486 821 l 486 783 l 56 783 l 56 821 z "},"̒":{"ha":0,"x_min":56,"x_max":169,"o":"m 167 968 l 103 836 l 83 833 q 94 849 86 843 q 117 856 103 856 q 153 841 138 856 q 169 803 169 826 q 152 763 169 779 q 111 746 135 746 q 72 763 89 746 q 56 803 56 779 q 58 826 56 813 q 71 861 61 839 l 133 986 l 167 968 z "},"̦":{"ha":0,"x_min":56,"x_max":169,"o":"m 92 -353 l 58 -335 l 122 -203 l 142 -200 q 131 -216 139 -210 q 108 -222 122 -222 q 72 -207 88 -222 q 56 -169 56 -192 q 73 -129 56 -146 q 114 -112 90 -112 q 153 -129 136 -112 q 169 -169 169 -146 q 167 -192 169 -179 q 154 -228 165 -206 l 92 -353 z "},"̧":{"ha":0,"x_min":31,"x_max":347,"o":"m 185 -286 q 103 -272 144 -286 q 31 -231 63 -257 l 67 -200 q 119 -233 89 -221 q 185 -244 150 -244 q 269 -225 239 -244 q 299 -171 299 -206 q 266 -117 299 -136 q 172 -99 233 -99 l 144 -99 l 178 11 l 226 11 l 197 -85 l 178 -61 q 303 -90 260 -61 q 347 -172 347 -119 q 305 -256 347 -226 q 185 -286 263 -286 z "},"̨":{"ha":0,"x_min":50,"x_max":253,"o":"m 165 -286 q 83 -257 117 -286 q 50 -174 50 -228 q 83 -75 50 -129 q 160 21 117 -21 l 190 0 q 115 -88 142 -47 q 88 -174 88 -129 q 109 -235 88 -217 q 168 -254 131 -254 q 203 -249 188 -254 q 236 -232 218 -243 l 253 -256 q 211 -278 233 -271 q 165 -286 189 -286 z "},"¨":{"ha":492,"x_min":83,"x_max":408,"o":"m 126 757 q 96 771 108 757 q 83 803 83 785 q 96 835 83 822 q 126 847 108 847 q 159 835 146 847 q 172 803 172 822 q 159 771 172 785 q 126 757 146 757 m 363 757 q 332 771 344 757 q 319 803 319 785 q 332 835 319 822 q 363 847 344 847 q 395 835 382 847 q 408 803 408 822 q 395 771 408 785 q 363 757 382 757 z "},"˙":{"ha":339,"x_min":125,"x_max":214,"o":"m 168 757 q 138 771 150 757 q 125 803 125 785 q 138 835 125 822 q 168 847 150 847 q 201 835 188 847 q 214 803 214 822 q 201 771 214 785 q 168 757 188 757 z "},"`":{"ha":339,"x_min":56,"x_max":283,"o":"m 265 746 l 56 940 l 93 978 l 283 764 l 265 746 z "},"´":{"ha":339,"x_min":56,"x_max":283,"o":"m 74 746 l 56 764 l 246 978 l 283 940 l 74 746 z "},"˝":{"ha":403,"x_min":56,"x_max":347,"o":"m 79 717 l 56 725 l 138 1000 l 188 982 l 79 717 m 239 717 l 215 725 l 297 1000 l 347 982 l 239 717 z "},"ˆ":{"ha":533,"x_min":56,"x_max":478,"o":"m 74 746 l 56 764 l 246 978 l 288 978 l 478 764 l 460 746 l 253 938 l 281 938 l 74 746 z "},"ˇ":{"ha":533,"x_min":56,"x_max":478,"o":"m 460 978 l 478 960 l 288 746 l 246 746 l 56 960 l 74 978 l 281 786 l 253 786 l 460 978 z "},"˘":{"ha":533,"x_min":56,"x_max":478,"o":"m 478 931 q 451 822 478 871 q 377 746 424 774 q 269 718 331 718 q 158 746 207 718 q 83 822 110 774 q 56 931 56 871 l 96 931 q 144 804 96 854 q 272 754 192 754 q 356 777 318 754 q 417 840 394 800 q 439 931 439 881 l 478 931 z "},"˚":{"ha":393,"x_min":56,"x_max":338,"o":"m 199 718 q 124 737 157 718 q 74 788 92 756 q 56 860 56 819 q 74 932 56 900 q 124 983 92 964 q 199 1001 157 1001 q 270 983 239 1001 q 319 932 301 964 q 338 860 338 900 q 319 788 338 819 q 270 737 301 756 q 199 718 239 718 m 200 756 q 269 785 240 756 q 299 860 299 815 q 269 934 299 904 q 200 964 240 964 q 124 934 153 964 q 96 860 96 904 q 124 785 96 815 q 200 756 153 756 z "},"˜":{"ha":547,"x_min":56,"x_max":492,"o":"m 376 758 q 305 774 335 758 q 246 803 275 789 q 179 818 217 818 q 119 803 140 818 q 82 764 99 789 l 56 786 q 103 836 75 817 q 179 856 132 856 q 256 841 225 856 q 315 811 288 826 q 376 796 343 796 q 428 810 408 796 q 465 850 449 825 l 492 828 q 444 778 472 797 q 376 758 417 758 z "},"¯":{"ha":542,"x_min":56,"x_max":486,"o":"m 56 821 l 486 821 l 486 783 l 56 783 l 56 821 z "},"¸":{"ha":361,"x_min":31,"x_max":347,"o":"m 185 -286 q 103 -272 144 -286 q 31 -231 63 -257 l 67 -200 q 119 -233 89 -221 q 185 -244 150 -244 q 269 -225 239 -244 q 299 -171 299 -206 q 266 -117 299 -136 q 172 -99 233 -99 l 144 -99 l 178 11 l 226 11 l 197 -85 l 178 -61 q 303 -90 260 -61 q 347 -172 347 -119 q 305 -256 347 -226 q 185 -286 263 -286 z "},"˛":{"ha":308,"x_min":50,"x_max":253,"o":"m 165 -286 q 83 -257 117 -286 q 50 -174 50 -228 q 83 -75 50 -129 q 160 21 117 -21 l 190 0 q 115 -88 142 -47 q 88 -174 88 -129 q 109 -235 88 -217 q 168 -254 131 -254 q 203 -249 188 -254 q 236 -232 218 -243 l 253 -256 q 211 -278 233 -271 q 165 -286 189 -286 z "},"ʼ":{"ha":338,"x_min":100,"x_max":239,"o":"m 100 758 l 192 890 l 211 893 q 200 877 208 883 q 178 871 192 871 q 141 886 157 871 q 125 924 125 901 q 142 964 125 947 q 183 981 160 981 q 222 964 206 981 q 239 924 239 947 q 235 899 239 914 q 218 865 232 885 l 133 740 l 100 758 z "}}}
